<svg xmlns="http://www.w3.org/2000/svg" id="Capa_2" data-name="Capa 2" viewBox="0 0 143.85 73"><defs><style>      .cls-1 {        fill: #fff;        stroke-width: 0px;      }    </style></defs><g id="Capa_1-2" data-name="Capa 1"><g><path class="cls-1" d="m69.86,25.16c-.41,0-.6-.07-.6-.07v-.18s.1,0,.19,0c.26,0,.47-.06.64-.19.29-.22.44-.63.44-1.2,0-1.3-.76-1.34-1.22-1.34-.15,0-.38.03-.38.03v3.98c0,.71,0,.99.13,1.17.13.17.32.25.7.27v.16c-.35-.02-1.14-.04-1.46-.04s-.82,0-1.21.04v-.16c.12,0,.31-.05.44-.2.15-.17.16-.42.16-1.2v-3.11c0-.57-.03-.77-.12-.9-.07-.1-.22-.21-.46-.23v-.16c.35.02.77.03,1.08.03.51,0,.81-.02,1.36-.02.18,0,.66,0,1.02.09.66.15,1.27.55,1.27,1.5,0,1.2-.92,1.74-2.01,1.74h0Z"></path><path class="cls-1" d="m75.61,27.87c-1.87,0-2.97-1.14-2.97-2.96s1.19-3.13,3.07-3.13,2.97,1.14,2.97,2.96-1.19,3.13-3.07,3.13h0Zm.05-5.69c-1.23,0-1.67,1.17-1.67,2.61s.51,2.68,1.66,2.68c1.23,0,1.67-1.17,1.67-2.61s-.51-2.68-1.66-2.68h0Z"></path><path class="cls-1" d="m85.18,22.19c-.15.17-.16.42-.16,1.2v4.43h-.51l-3.44-4.57c-.15-.2-.22-.34-.22-.34v3.6c0,.57.03.77.12.9.07.1.22.21.46.23v.16c-.35-.02-.53-.04-.85-.04s-.52,0-.9.04v-.16c.12,0,.31-.05.44-.2.15-.17.16-.42.16-1.2v-3.11c0-.57-.03-.77-.12-.9-.07-.1-.22-.21-.46-.23v-.16c.35.02.73.04,1.05.04.14,0,.54-.02.79-.04l2.62,3.49c.23.31.29.44.29.44v-2.64c0-.57-.03-.77-.12-.9-.07-.1-.22-.21-.46-.23v-.16c.35.02.57.04.88.04s.48,0,.87-.04v.16c-.12,0-.31.05-.44.2h0Z"></path><path class="cls-1" d="m90.68,23.02c0-.31-.14-.51-.31-.61-.2-.12-.38-.14-.94-.14h-.33v4.22c0,.57.03.77.12.89.14.22.55.23.64.23v.17c-.35-.02-1.08-.04-1.39-.04s-1.05.02-1.4.04v-.16c.07,0,.45-.03.62-.22.15-.17.16-.41.16-1.18v-3.96h-.33c-.56,0-.74.02-.94.14-.17.1-.3.31-.31.61h-.19c.04-.42.03-1.17.03-1.17h4.74s0,.75.03,1.17h-.19Z"></path><path class="cls-1" d="m93.42,22.19c-.15.17-.16.42-.16,1.2v3.11c0,.57.03.77.12.9.07.1.22.21.46.23v.16c-.35-.02-.9-.04-1.22-.04s-.86.02-1.21.04v-.16c.12,0,.31-.05.44-.2.15-.17.16-.42.16-1.2v-3.11c0-.57-.03-.77-.12-.9-.07-.1-.22-.21-.46-.23v-.16c.35.02.9.04,1.22.04s.86-.02,1.21-.04v.16c-.12,0-.31.05-.44.2h0Z"></path><path class="cls-1" d="m98.7,23.02c0-.31-.13-.51-.31-.61-.2-.12-.38-.14-.94-.14h-.74v2.21h.76c.33,0,.57-.02.73-.15.13-.1.22-.27.24-.53h.19c0,.2-.02.33-.02.89s0,.67.02.88h-.19c-.02-.23-.09-.39-.2-.49-.19-.16-.47-.18-.79-.18h-.74v1.61c0,.57.03.75.12.88.14.22.55.23.64.23v.17c-.35-.02-1.07-.05-1.38-.05-.51,0-.72.02-1.23.05v-.16c.12,0,.31-.05.44-.2.15-.17.16-.42.16-1.2v-3.11c0-.57-.03-.77-.12-.9-.07-.1-.22-.21-.46-.23v-.16c.5.03.89.03,1.39.03h2.58s0,.75.03,1.17h-.19Z"></path><path class="cls-1" d="m101.72,22.19c-.15.17-.16.42-.16,1.2v3.11c0,.57.03.77.12.9.07.1.22.21.46.23v.16c-.35-.02-.9-.04-1.22-.04s-.86.02-1.21.04v-.16c.12,0,.31-.05.44-.2.15-.17.16-.42.16-1.2v-3.11c0-.57-.03-.77-.12-.9-.07-.1-.22-.21-.46-.23v-.16c.35.02.9.04,1.22.04s.86-.02,1.21-.04v.16c-.12,0-.31.05-.44.2h0Z"></path><path class="cls-1" d="m107.8,23.02c0-.23-.1-.41-.24-.52-.28-.24-.75-.29-1.03-.29-.8,0-2.01.17-2.01,2.63,0,1.51.51,2.56,2.04,2.56.33,0,.76-.05,1-.33.12-.13.19-.31.19-.55h.19c-.02.26-.04.54-.04.97v.15c-.41.14-1.06.2-1.53.2-1.14,0-2.09-.33-2.65-1.02-.36-.45-.57-1.08-.57-1.86,0-1.56.89-2.55,2.04-2.96.46-.16,1.03-.2,1.37-.2.7,0,1.34.1,1.42.1-.02.17-.02.38-.02.56,0,.24,0,.46.02.58h-.19Z"></path><path class="cls-1" d="m111,22.19c-.15.17-.16.42-.16,1.2v3.11c0,.57.03.77.12.9.07.1.22.21.46.23v.16c-.35-.02-.9-.04-1.22-.04s-.86.02-1.21.04v-.16c.12,0,.31-.05.44-.2.15-.17.16-.42.16-1.2v-3.11c0-.57-.03-.77-.12-.9-.07-.1-.22-.21-.46-.23v-.16c.35.02.9.04,1.22.04s.86-.02,1.21-.04v.16c-.12,0-.31.05-.44.2h0Z"></path><path class="cls-1" d="m116.58,27.76c-.27,0-.94.02-1.2.04v-.16c.22,0,.35-.05.42-.11.05-.05.08-.12.08-.2,0-.11-.04-.26-.14-.52l-.43-1.25h-1.69l-.46,1.26c-.09.25-.14.4-.14.52,0,.08.02.14.07.19.1.1.29.1.42.11v.16c-.32-.02-.53-.04-.86-.04-.29,0-.55,0-.84.04v-.16c.25,0,.39-.18.44-.26.07-.11.21-.42.44-.99l1.88-4.56.66-.12,1.63,4.59c.23.62.39,1.01.42,1.08.05.08.17.26.42.25v.16c-.26-.02-.87-.04-1.13-.04h0Zm-1.82-3.81c-.2-.57-.24-.81-.24-.81l-.75,2.02h1.41l-.42-1.21h0Z"></path><path class="cls-1" d="m72.56,32.65c-.15.17-.16.42-.16,1.2v1.83c0,.68-.02,1.11-.15,1.47-.41,1.07-1.58,1.17-2.31,1.17-1.53,0-2.04-.54-2.28-1.14-.17-.45-.15-1.05-.15-1.52v-2.08c0-.57-.03-.77-.12-.9-.07-.1-.22-.21-.46-.23v-.16c.35.02.9.04,1.22.04s.86-.02,1.21-.04v.16c-.12,0-.31.05-.44.2-.15.17-.16.42-.16,1.2v2.4c0,.81.06,1.65,1.38,1.65s1.39-.95,1.39-1.66v-2.67c0-.57-.03-.77-.12-.9-.07-.1-.22-.21-.46-.23v-.16c.35.02.66.04.98.04s.72-.02,1.08-.04v.16c-.12,0-.31.05-.44.2h0Z"></path><path class="cls-1" d="m79.33,32.65c-.15.17-.16.42-.16,1.2v4.43h-.51l-3.44-4.57c-.15-.2-.22-.34-.22-.34v3.6c0,.57.03.77.12.9.07.1.22.21.46.23v.16c-.35-.02-.53-.04-.85-.04s-.52,0-.9.04v-.16c.12,0,.31-.05.44-.2.15-.17.16-.43.16-1.2v-3.11c0-.57-.03-.77-.12-.9-.07-.1-.22-.21-.46-.23v-.16c.35.02.73.04,1.05.04.14,0,.54-.02.79-.04l2.62,3.49c.23.31.29.44.29.44v-2.64c0-.57-.03-.77-.12-.9-.07-.1-.22-.21-.46-.23v-.16c.35.02.57.04.88.04s.48,0,.87-.04v.16c-.12,0-.31.05-.44.2h0Z"></path><path class="cls-1" d="m82.65,32.65c-.15.17-.16.42-.16,1.2v3.11c0,.57.03.77.12.9.07.1.22.21.46.23v.16c-.35-.02-.9-.04-1.22-.04s-.86.02-1.21.04v-.16c.12,0,.31-.05.44-.2.15-.17.16-.43.16-1.2v-3.11c0-.57-.03-.77-.12-.9-.07-.1-.22-.21-.46-.23v-.16c.35.02.9.04,1.22.04s.86-.02,1.21-.04v.16c-.12,0-.31.05-.44.2h0Z"></path><path class="cls-1" d="m89.11,32.72c-.07.11-.21.42-.44.99l-1.87,4.56-.69.12-1.63-4.59c-.23-.62-.39-1.01-.42-1.08-.05-.08-.17-.26-.42-.25v-.16c.26.02.87.04,1.13.04s.95-.02,1.21-.04v.16c-.22,0-.35.05-.43.11-.05.05-.08.12-.08.2,0,.11.04.26.14.52l.99,2.84c.19.55.25.81.25.81,0,0,.1-.3.3-.83l1.05-2.83c.09-.25.14-.4.14-.52,0-.08-.02-.14-.07-.19-.1-.1-.29-.1-.42-.11v-.16c.32.02.54.04.87.04.29,0,.55,0,.84-.04v.16c-.25,0-.39.18-.44.26h0Z"></path><path class="cls-1" d="m93.9,38.24h-2.53c-.51,0-.99,0-1.5.02v-.16c.12,0,.31-.05.44-.2.15-.17.16-.43.16-1.2v-3.11c0-.57-.03-.77-.12-.9-.07-.1-.22-.21-.46-.23v-.16c.5.03.89.03,1.39.03h2.59s0,.75.03,1.17h-.19c0-.31-.13-.52-.31-.61-.2-.12-.38-.14-.94-.14h-.74v2.21h.76c.32,0,.57-.02.73-.15.13-.1.22-.27.23-.53h.19c0,.2-.02.33-.02.89s0,.67.02.88h-.19c-.02-.24-.09-.39-.2-.49-.19-.16-.47-.18-.79-.18h-.74v2c0,.41.07.46.56.46h.15c.5,0,.86-.02,1.08-.25.12-.12.21-.33.22-.6h.19c-.04.42-.03,1.26-.03,1.26h0Z"></path><path class="cls-1" d="m100.05,38.28c-.94,0-1.17-.38-1.48-.77-.2-.25-.88-1.13-1.32-1.78h-.38v1.23c0,.57.03.77.12.9.07.1.22.21.46.23v.16c-.35-.02-.87-.04-1.18-.04s-.85.02-1.2.04v-.16c.12,0,.31-.05.44-.2.15-.17.16-.43.16-1.2v-3.11c0-.57-.03-.77-.12-.9-.07-.1-.22-.21-.46-.23v-.16c.35.02.66.03.98.03.65,0,.8-.03,1.38-.03.21,0,.67,0,1.03.09,1.08.27,1.2,1.08,1.2,1.44,0,.47-.16,1.32-1.32,1.64,0,0,1,1.16,1.54,1.77.44.5.75.84,1.13.86v.15s-.21.04-.98.04h0Zm-2.79-5.64c-.19,0-.39.03-.39.03v2.68s.21.02.42.02c.13,0,.25,0,.35-.04.13-.04.72-.14.72-1.37s-.76-1.31-1.11-1.31h0Z"></path><path class="cls-1" d="m102.94,38.29c-.42,0-1.01-.05-1.43-.19v-.15c0-.42-.02-.72-.04-.98h.19c.04.27.13.51.32.65.24.2.6.24.91.24,1.17,0,1.18-.77,1.18-.95,0-.59-.38-.81-.88-1.11l-.51-.32c-.65-.41-1.07-.8-1.07-1.66,0-.45.22-1.58,2.1-1.58.81,0,1.39.1,1.39.1,0,0-.03.2-.03.49,0,.51.02.65.02.65h-.19c-.02-.23-.11-.4-.24-.53-.23-.23-.63-.29-.92-.29-.93,0-1.04.53-1.04.84,0,.47.27.7.76.99l.58.34c.73.43,1.17.82,1.17,1.74,0,1.21-.96,1.73-2.28,1.73h0Z"></path><path class="cls-1" d="m108.32,32.65c-.15.17-.16.42-.16,1.2v3.11c0,.57.03.77.12.9.07.1.22.21.46.23v.16c-.35-.02-.9-.04-1.22-.04s-.86.02-1.21.04v-.16c.12,0,.31-.05.44-.2.15-.17.16-.43.16-1.2v-3.11c0-.57-.03-.77-.12-.9-.07-.1-.22-.21-.46-.23v-.16c.35.02.9.04,1.22.04s.86-.02,1.21-.04v.16c-.12,0-.31.05-.44.2h0Z"></path><path class="cls-1" d="m113.48,38.11c-.28.08-.78.14-1.47.14-.46,0-.8-.03-1.2-.03-.32,0-.7,0-1.05.03v-.16c.12,0,.31-.05.44-.2.15-.17.16-.43.16-1.2v-3.11c0-.57-.03-.77-.12-.9-.07-.1-.22-.21-.46-.23v-.16s.34.03,1,.03c.29,0,.83-.02,1.48-.02.81,0,3.31.07,3.31,2.81,0,2.12-1.26,2.77-2.1,3h0Zm-1.23-5.4c-.48,0-.64.03-.64.03v4.62c0,.26.03.4.22.45.09.03.24.03.43.03,1.37,0,1.96-.72,1.96-2.6,0-2.3-1.19-2.52-1.97-2.52h0Z"></path><path class="cls-1" d="m120.62,38.22c-.27,0-.94.02-1.2.04v-.16c.22,0,.35-.05.42-.11.05-.05.08-.12.08-.2,0-.11-.04-.26-.13-.52l-.43-1.25h-1.69l-.46,1.26c-.09.25-.14.4-.14.52,0,.08.02.14.07.19.1.1.29.1.42.11v.16c-.32-.02-.53-.04-.86-.04-.29,0-.55,0-.84.04v-.16c.25,0,.39-.18.44-.26.07-.11.21-.43.44-.99l1.88-4.56.66-.12,1.63,4.59c.23.62.39,1.01.42,1.08.05.08.17.26.42.25v.16c-.26-.02-.87-.04-1.13-.04h0Zm-1.82-3.81c-.2-.57-.24-.81-.24-.81l-.75,2.02h1.41l-.42-1.21h0Z"></path><path class="cls-1" d="m126.06,38.11c-.28.08-.78.14-1.47.14-.46,0-.8-.03-1.2-.03-.32,0-.7,0-1.05.03v-.16c.12,0,.31-.05.44-.2.15-.17.16-.43.16-1.2v-3.11c0-.57-.03-.77-.12-.9-.07-.1-.22-.21-.46-.23v-.16s.34.03,1,.03c.29,0,.83-.02,1.48-.02.81,0,3.31.07,3.31,2.81,0,2.12-1.26,2.77-2.1,3h0Zm-1.23-5.4c-.48,0-.64.03-.64.03v4.62c0,.26.03.4.22.45.09.03.23.03.43.03,1.37,0,1.96-.72,1.96-2.6,0-2.3-1.19-2.52-1.97-2.52h0Z"></path><path class="cls-1" d="m73.82,44.33c0-.33-.14-.58-.35-.74-.4-.35-1.07-.41-1.46-.41-1.13,0-2.86.24-2.86,3.74,0,2.15.73,3.64,2.9,3.64.46,0,1.08-.06,1.42-.48.17-.18.27-.44.27-.78h.27c-.03.37-.05.77-.05,1.38v.22c-.58.19-1.5.28-2.17.28-1.62,0-2.97-.46-3.76-1.45-.51-.64-.81-1.53-.81-2.65,0-2.22,1.26-3.62,2.9-4.21.65-.23,1.46-.28,1.95-.28.99,0,1.9.14,2.02.14-.03.24-.03.54-.03.8,0,.33.01.66.03.82h-.27Z"></path><path class="cls-1" d="m81.39,51.06c-.38,0-1.34.03-1.71.05v-.23c.31,0,.5-.06.6-.15.08-.06.11-.17.11-.28,0-.15-.06-.37-.19-.73l-.62-1.77h-2.4l-.65,1.78c-.13.36-.2.57-.2.73,0,.12.02.21.1.27.14.14.41.14.59.15v.23c-.45-.03-.76-.05-1.22-.05-.41,0-.78.01-1.19.05v-.23c.36.01.55-.26.63-.37.1-.15.3-.6.63-1.4l2.67-6.47.94-.17,2.31,6.52c.32.89.55,1.44.6,1.53.08.12.24.37.6.36v.23c-.37-.03-1.23-.05-1.61-.05h0Zm-2.58-5.41c-.28-.81-.35-1.16-.35-1.16l-1.07,2.88h2l-.59-1.72h0Z"></path><path class="cls-1" d="m89.53,44.33c-.01-.44-.19-.73-.44-.87-.28-.17-.54-.19-1.34-.19h-.47v6c0,.81.04,1.09.17,1.27.2.31.78.33.91.33v.24c-.5-.03-1.53-.05-1.98-.05s-1.49.03-1.99.05v-.23c.1,0,.64-.04.89-.31.22-.24.23-.58.23-1.68v-5.62h-.48c-.8,0-1.05.02-1.34.19-.24.14-.42.44-.44.87h-.27c.05-.59.04-1.66.04-1.66h6.73s-.01,1.07.04,1.66h-.27Z"></path><path class="cls-1" d="m94.79,51.21c-2.66,0-4.22-1.62-4.22-4.2s1.69-4.44,4.37-4.44,4.22,1.62,4.22,4.2-1.69,4.44-4.37,4.44h0Zm.08-8.08c-1.75,0-2.38,1.67-2.38,3.71s.73,3.8,2.36,3.8c1.75,0,2.38-1.67,2.38-3.71s-.73-3.8-2.36-3.8h0Zm1.75-2.09l-2.77.98-.15-.23,1.8-1.76.09-.03,1.1.85-.06.19h0Z"></path><path class="cls-1" d="m106.23,51.08h-3.52c-.72,0-1.41-.01-2.13.03v-.23c.17,0,.44-.06.63-.28.22-.24.23-.6.23-1.71v-4.42c0-.81-.04-1.09-.17-1.28-.1-.14-.31-.3-.65-.32v-.23c.5.03,1.42.05,1.87.05s1.4-.03,1.9-.05v.24c-.54.03-.82.14-1,.39-.19.26-.18.65-.18,1.66v4.92c0,.58.1.66.8.66h.22c.71,0,1.14-.03,1.46-.35.17-.17.29-.48.31-.86h.27c-.05.59-.04,1.8-.04,1.8h0Z"></path><path class="cls-1" d="m110.41,43.15c-.22.24-.23.6-.23,1.71v4.42c0,.81.04,1.09.17,1.29.1.14.31.29.65.32v.23c-.5-.03-1.28-.05-1.73-.05s-1.22.03-1.72.05v-.23c.17,0,.44-.06.63-.28.22-.24.23-.6.23-1.71v-4.42c0-.81-.04-1.09-.17-1.28-.1-.14-.31-.3-.65-.32v-.23c.5.03,1.28.05,1.73.05s1.22-.03,1.72-.05v.23c-.17,0-.44.07-.63.28h0Z"></path><path class="cls-1" d="m119.06,44.33c0-.33-.14-.58-.35-.74-.4-.35-1.07-.41-1.46-.41-1.13,0-2.86.24-2.86,3.74,0,2.15.73,3.64,2.9,3.64.46,0,1.08-.06,1.43-.48.17-.18.27-.44.27-.78h.27c-.03.37-.05.77-.05,1.38v.22c-.58.19-1.5.28-2.17.28-1.62,0-2.97-.46-3.76-1.45-.51-.64-.81-1.53-.81-2.65,0-2.22,1.26-3.62,2.9-4.21.66-.23,1.46-.28,1.95-.28.99,0,1.9.14,2.02.14-.03.24-.03.54-.03.8,0,.33.01.66.03.82h-.27Z"></path><path class="cls-1" d="m126.62,51.06c-.38,0-1.33.03-1.71.05v-.23c.31,0,.5-.06.6-.15.08-.06.12-.17.12-.28,0-.15-.07-.37-.19-.73l-.62-1.77h-2.4l-.66,1.78c-.13.36-.21.57-.21.73,0,.12.03.21.1.27.14.14.41.14.59.15v.23c-.45-.03-.76-.05-1.22-.05-.41,0-.78.01-1.19.05v-.23c.36.01.55-.26.63-.37.1-.15.3-.6.63-1.4l2.67-6.47.94-.17,2.31,6.52c.32.89.55,1.44.6,1.53.08.12.24.37.6.36v.23c-.37-.03-1.23-.05-1.61-.05h0Zm-2.58-5.41c-.28-.81-.35-1.16-.35-1.16l-1.07,2.88h2l-.59-1.72h0Z"></path><path class="cls-1" d="m135.54,50.96c-.28.08-.78.14-1.47.14-.46,0-.8-.03-1.2-.03-.32,0-.7,0-1.05.03v-.16c.12,0,.31-.05.44-.2.15-.17.16-.42.16-1.2v-3.11c0-.57-.03-.77-.12-.9-.07-.1-.22-.21-.46-.23v-.16s.34.03,1,.03c.29,0,.83-.02,1.48-.02.81,0,3.31.07,3.31,2.81,0,2.12-1.26,2.77-2.1,3h0Zm-1.23-5.4c-.48,0-.64.03-.64.03v4.62c0,.26.03.4.22.45.09.03.23.03.43.03,1.37,0,1.96-.72,1.96-2.6,0-2.3-1.19-2.52-1.97-2.52h0Z"></path><path class="cls-1" d="m142.66,51.08h-2.53c-.51,0-.99,0-1.5.02v-.16c.12,0,.31-.05.44-.2.15-.17.16-.42.16-1.2v-3.11c0-.57-.03-.77-.12-.9-.07-.1-.22-.21-.46-.23v-.16c.5.03.89.03,1.39.03h2.58s0,.75.03,1.17h-.19c0-.31-.14-.51-.31-.61-.2-.12-.38-.14-.94-.14h-.74v2.21h.76c.33,0,.57-.02.73-.15.13-.1.22-.27.23-.53h.19c0,.2-.02.33-.02.89s0,.67.02.88h-.19c-.02-.24-.09-.39-.2-.49-.19-.16-.47-.18-.79-.18h-.74v2c0,.41.07.46.56.46h.15c.5,0,.86-.02,1.08-.24.12-.12.21-.33.22-.61h.19c-.04.42-.03,1.27-.03,1.27h0Z"></path><path class="cls-1" d="m74.3,56.14c-.1.15-.29.6-.62,1.39l-2.64,6.43-.97.17-2.29-6.48c-.32-.88-.55-1.43-.6-1.52-.08-.11-.24-.37-.6-.36v-.23c.37.03,1.22.05,1.59.05s1.34-.02,1.71-.05v.23c-.31,0-.5.06-.6.15-.08.06-.12.17-.12.28,0,.15.06.37.19.73l1.39,4c.27.78.36,1.15.36,1.15,0,0,.14-.42.42-1.17l1.48-3.99c.13-.36.2-.56.2-.73,0-.11-.03-.2-.1-.27-.14-.14-.41-.14-.59-.15v-.23c.45.03.76.05,1.22.05.41,0,.78-.01,1.19-.05v.23c-.36-.01-.55.25-.62.37h0Z"></path><path class="cls-1" d="m80.83,63.9c-.38,0-1.33.02-1.7.05v-.23c.31,0,.5-.06.6-.15.08-.06.11-.16.11-.28,0-.15-.06-.37-.19-.73l-.61-1.76h-2.38l-.65,1.77c-.13.36-.2.56-.2.73,0,.11.03.2.1.27.14.14.41.14.59.15v.23c-.45-.03-.75-.05-1.21-.05-.41,0-.78.01-1.19.05v-.23c.36.01.55-.26.62-.37.1-.15.29-.6.62-1.39l2.65-6.43.93-.17,2.29,6.48c.32.88.55,1.43.6,1.52.08.11.24.37.6.36v.23c-.37-.03-1.22-.05-1.59-.05h0Zm-2.56-5.37c-.28-.8-.34-1.15-.34-1.15l-1.06,2.86h1.99l-.59-1.71h0Z"></path><path class="cls-1" d="m88.86,63.93h-3.49c-.71,0-1.4-.01-2.12.03v-.23c.17,0,.43-.06.62-.28.22-.24.23-.6.23-1.7v-4.39c0-.8-.04-1.08-.17-1.27-.1-.14-.31-.29-.65-.32v-.23c.5.03,1.41.05,1.86.05s1.39-.02,1.89-.05v.24c-.53.03-.82.14-.99.38-.19.25-.18.65-.18,1.64v4.88c0,.57.1.65.79.65h.22c.7,0,1.13-.03,1.45-.34.17-.17.29-.47.31-.85h.27c-.05.59-.04,1.78-.04,1.78h0Z"></path><path class="cls-1" d="m94.07,60.24c-.57,0-.84-.1-.84-.1v-.25s.14.01.27.01c.37,0,.66-.09.91-.27.41-.31.62-.89.62-1.7,0-1.84-1.07-1.89-1.72-1.89-.22,0-.54.04-.54.04v5.61c0,.99-.01,1.39.18,1.65.18.24.46.36.99.38v.23c-.5-.03-1.61-.05-2.05-.05s-1.16,0-1.71.05v-.23c.17,0,.43-.06.62-.28.22-.24.23-.6.23-1.7v-4.39c0-.8-.04-1.08-.17-1.27-.1-.14-.31-.29-.65-.32v-.23c.5.03,1.08.04,1.53.04.71,0,1.15-.03,1.93-.03.25,0,.93.01,1.44.13.93.22,1.78.78,1.78,2.12,0,1.7-1.3,2.45-2.83,2.45h0Z"></path><path class="cls-1" d="m103.31,63.9c-.38,0-1.33.02-1.7.05v-.23c.31,0,.5-.06.6-.15.08-.06.12-.16.12-.28,0-.15-.06-.37-.19-.73l-.61-1.76h-2.38l-.65,1.77c-.13.36-.2.56-.2.73,0,.11.02.2.1.27.14.14.41.14.59.15v.23c-.45-.03-.75-.05-1.21-.05-.41,0-.78.01-1.19.05v-.23c.36.01.55-.26.62-.37.1-.15.29-.6.63-1.39l2.65-6.43.93-.17,2.29,6.48c.32.88.55,1.43.6,1.52.08.11.24.37.6.36v.23c-.37-.03-1.22-.05-1.59-.05h0Zm-2.56-5.37c-.28-.8-.34-1.15-.34-1.15l-1.06,2.86h1.99l-.59-1.71h0Z"></path><path class="cls-1" d="m112.77,63.99c-1.33,0-1.65-.53-2.09-1.08-.28-.36-1.24-1.59-1.86-2.51h-.54v1.73c0,.8.04,1.08.17,1.28.1.14.31.29.65.32v.23c-.5-.03-1.22-.05-1.67-.05s-1.2.02-1.7.05v-.23c.17,0,.43-.06.62-.28.22-.24.23-.6.23-1.7v-4.39c0-.8-.04-1.08-.17-1.27-.1-.14-.31-.29-.65-.32v-.23c.5.03.93.04,1.38.04.92,0,1.13-.04,1.95-.04.29,0,.94,0,1.45.13,1.52.38,1.7,1.52,1.7,2.03,0,.66-.23,1.86-1.86,2.32,0,0,1.42,1.63,2.17,2.5.62.7,1.06,1.19,1.59,1.21v.22s-.29.05-1.38.05h0Zm-3.94-7.95c-.27,0-.55.04-.55.04v3.77s.29.02.6.02c.18,0,.36-.01.5-.05.18-.05,1.02-.2,1.02-1.94s-1.07-1.85-1.57-1.85h0Z"></path><path class="cls-1" d="m121.22,63.9c-.38,0-1.33.02-1.7.05v-.23c.31,0,.5-.06.6-.15.08-.06.11-.16.11-.28,0-.15-.06-.37-.19-.73l-.61-1.76h-2.38l-.65,1.77c-.13.36-.2.56-.2.73,0,.11.03.2.1.27.14.14.41.14.59.15v.23c-.45-.03-.75-.05-1.21-.05-.41,0-.78.01-1.19.05v-.23c.36.01.55-.26.62-.37.1-.15.29-.6.62-1.39l2.65-6.43.93-.17,2.29,6.48c.32.88.55,1.43.6,1.52.08.11.24.37.6.36v.23c-.37-.03-1.22-.05-1.59-.05h0Zm-2.56-5.37c-.28-.8-.34-1.15-.34-1.15l-1.06,2.86h1.99l-.59-1.71h0Z"></path><path class="cls-1" d="m126.49,56.05c-.22.24-.23.6-.23,1.7v4.39c0,.8.04,1.08.16,1.28.1.14.31.29.65.32v.23c-.5-.03-1.27-.05-1.72-.05s-1.21.02-1.71.05v-.23c.17,0,.43-.06.62-.28.22-.24.23-.6.23-1.7v-4.39c0-.8-.04-1.08-.17-1.27-.1-.14-.31-.29-.65-.32v-.23c.5.03,1.27.05,1.72.05s1.21-.02,1.71-.05v.23c-.17,0-.43.06-.63.28h0Zm.6-2.09l-2.75.97-.15-.23,1.78-1.75.09-.02,1.1.84-.06.19h0Z"></path><path class="cls-1" d="m130.58,64c-.59,0-1.43-.08-2.01-.27v-.2c0-.6-.03-1.02-.05-1.39h.27c.05.38.18.71.45.92.34.28.84.35,1.29.35,1.64,0,1.67-1.08,1.67-1.34,0-.83-.54-1.13-1.24-1.57l-.71-.45c-.92-.57-1.52-1.14-1.52-2.35,0-.64.31-2.23,2.96-2.23,1.15,0,1.96.14,1.96.14,0,0-.04.28-.04.69,0,.71.02.92.02.92h-.27c-.03-.32-.15-.56-.34-.75-.33-.33-.89-.41-1.3-.41-1.31,0-1.47.75-1.47,1.19,0,.66.38.98,1.07,1.39l.82.49c1.03.61,1.66,1.16,1.66,2.45,0,1.71-1.35,2.43-3.21,2.43h0Z"></path><path class="cls-1" d="m139.51,64.06c-2.64,0-4.19-1.61-4.19-4.17s1.68-4.41,4.33-4.41,4.19,1.61,4.19,4.17-1.68,4.41-4.33,4.41h0Zm.08-8.02c-1.73,0-2.36,1.66-2.36,3.68s.73,3.77,2.35,3.77c1.73,0,2.36-1.66,2.36-3.69s-.73-3.77-2.35-3.77h0Z"></path><polygon class="cls-1" points="30.33 7.34 30.33 8.48 29.05 8.48 29.05 9.19 30.33 9.19 30.33 11.47 31.04 11.47 31.04 9.19 32.32 9.19 32.32 8.48 31.04 8.48 31.04 7.34 30.33 7.34 30.33 7.34"></polygon><path class="cls-1" d="m8.61,42.14c0,12.27,9.89,22.2,22.1,22.2s22.1-9.94,22.1-22.2-9.96-22.2-22.1-22.2-22.1,9.94-22.1,22.2m.6.34h14.45c.1,5.69,2.96,9.48,6.66,10.43v10.84c-11.66-.15-20.96-9.6-21.11-21.26m21.47-7.04c1.35.45,3.06.75,6.47.53v6.17c0,5.5-2.72,9.41-6.47,10.24-3.74-.83-6.47-4.74-6.47-10.24v-6.17c3.41.23,5.12-.08,6.47-.53m.36,28.3v-10.84c3.7-.95,6.54-4.74,6.64-10.43h14.54c-.15,11.67-9.66,21.11-21.18,21.26m21.18-21.97h-14.49v-6.33c-3.13.28-5.26-.03-6.68-.5v-14.41c11.52.15,21.03,9.71,21.18,21.23m-21.89-21.23v14.41c-1.42.47-3.55.78-6.68.5v6.33h-14.43c.15-11.67,9.45-21.08,21.11-21.23"></path><path class="cls-1" d="m34.76,11.66l-.15.6c14.76,1.96,26.14,14.75,26.14,29.88,0,16.56-13.48,30.11-30.04,30.11S.67,58.7.67,42.14C.67,26.94,12.05,14.21,26.81,12.26l-.15-.6C11.68,13.54,0,26.63,0,42.14c0,17.01,13.78,30.86,30.71,30.86s30.71-13.85,30.71-30.86c0-15.51-11.69-28.6-26.67-30.48"></path><path class="cls-1" d="m40.86,11.36l-5.78-.63-.08.47,5.24.79c.15-.16.46-.47.61-.63m-5.78-1.18l6.16.47c.15-.24.53-.63.53-.63l-.53-.39-6.16.08v.47h0Zm-.08-1.26l.08.39,5.55-.55s-.46-.63-.61-.79l-5.02.95h0Zm-.23-.87l.15.47,4.56-1.34-.38-.79-4.33,1.66h0Zm-.46-.79l.23.39,4.18-2.29c-.08-.16-.15-.95-.15-.95l-4.26,2.84h0Zm-.61-.71l.38.39,4.26-3.55v-.95h-.84l-3.8,4.1h0Zm-.76-.55l.38.24,2.89-3.94-1.06-.08-2.2,3.79h0Zm-.68-.47l.38.24,1.6-3.71-.84-.32-1.14,3.79h0Zm-.91-.16l.46.08.91-4.1-.53-.39-.84,4.42h0Zm-10.72,5.99c.15.16.46.47.61.63l5.24-.79-.08-.47-5.78.63h0Zm5.78-1.18v-.47l-6.16-.08-.53.39s.38.39.53.63l6.16-.47h0Zm.08-1.26l-5.02-.95c-.15.16-.61.79-.61.79l5.55.55.08-.39h0Zm.23-.87l-4.33-1.66-.38.79,4.56,1.34.15-.47h0Zm.46-.79l-4.26-2.84s-.08.79-.15.95l4.18,2.29.23-.39h0Zm.61-.71l-3.8-4.1h-.84v.95l4.26,3.55.38-.39h0Zm.76-.55l-2.2-3.79-1.06.08,2.89,3.94.38-.24h0Zm.68-.47l-1.14-3.79-.84.32,1.6,3.71.38-.24h0Zm.91-.16l-.84-4.42s-.46.32-.53.39l.91,4.1.46-.08h0Zm.84-.08l.38-4.89c-.3-.08-.61-.39-.61-.39,0,0-.3.32-.61.39l.38,4.89h.46Z"></path><path class="cls-1" d="m11.41,62.47c-.16-.09-.4-.27-.7-.57-.2-.2-.34-.36-.51-.53-.14-.14-.31-.3-.47-.44l.07-.07c.05.05.15.11.28.1.14,0,.25-.11.59-.45l1.34-1.36c.25-.25.32-.35.34-.44.01-.07,0-.18-.1-.3l.07-.07s.14.16.42.44c.13.12.37.35.65.63.36.35,1.41,1.46.23,2.66-.92.93-1.74.66-2.21.4m1.79-2.89c-.21-.21-.29-.27-.29-.27l-1.99,2.01c-.11.11-.16.18-.1.29.03.05.09.11.18.2.6.59,1.17.53,1.98-.29.99-1,.57-1.61.23-1.95"></path><path class="cls-1" d="m15.14,65.59l-1.25-.92c-.25-.18-.49-.36-.75-.54l.06-.08c.06.04.17.09.29.06.14-.03.23-.15.52-.54l1.13-1.54c.21-.28.26-.39.27-.49,0-.08-.03-.18-.15-.28l.06-.08c.24.19.43.34.68.52l1.28.94s-.28.37-.41.59l-.09-.07c.11-.16.12-.31.07-.42-.05-.13-.14-.2-.42-.41l-.37-.27-.8,1.1.38.28c.16.12.29.2.42.19.1,0,.21-.05.31-.18l.09.07c-.07.1-.13.15-.33.44-.2.28-.24.33-.31.44l-.09-.07c.08-.12.1-.23.08-.31-.03-.15-.17-.26-.32-.38l-.37-.27-.72.99c-.15.2-.13.25.11.43l.08.06c.25.18.43.3.62.27.1-.02.22-.09.33-.22l.09.07c-.17.19-.47.62-.47.62"></path><path class="cls-1" d="m21.79,65.3c-.07.04-.23.18-.5.43l-2.22,2.05-.41-.11.29-2.98c.04-.41.05-.66.04-.71,0-.06-.03-.19-.17-.25l.04-.09c.14.08.47.24.62.31.15.07.53.24.68.29l-.04.09c-.12-.06-.21-.07-.26-.05-.04.01-.08.04-.1.09-.03.06-.04.16-.06.32l-.19,1.83c-.04.36-.07.52-.07.52,0,0,.13-.14.38-.38l1.32-1.3c.12-.12.18-.18.21-.25.02-.05.03-.08,0-.12-.03-.08-.13-.13-.2-.17l.04-.09c.17.09.29.16.47.25.16.08.31.14.48.2l-.04.09c-.14-.07-.26,0-.31.03"></path><path class="cls-1" d="m23.53,69.38c-.16-.05-.55-.16-.71-.19l.03-.1c.13.04.22.04.27.01.04-.02.07-.05.08-.1.02-.06.02-.16.01-.33l-.03-.81-.99-.31-.5.66c-.1.13-.16.21-.18.28-.01.05-.01.09,0,.12.04.08.15.11.22.14l-.03.1c-.18-.07-.31-.12-.5-.18-.17-.05-.32-.09-.5-.13l.03-.1c.15.05.26-.04.31-.07.06-.05.2-.21.44-.5l1.92-2.33.41.05.13,2.99c.02.41.04.66.05.71.02.06.05.18.2.23l-.03.1c-.15-.06-.5-.18-.66-.23m-.38-2.56c-.01-.37,0-.52,0-.52l-.8,1.05.83.25-.03-.79h0Z"></path><path class="cls-1" d="m27.43,70.15l-1.5-.25c-.31-.05-.6-.1-.91-.14l.02-.1c.07.01.19,0,.29-.08.11-.09.14-.24.22-.71l.31-1.88c.06-.34.06-.47.02-.56-.03-.07-.11-.15-.26-.18l.02-.1c.21.05.6.12.8.15.19.03.6.09.81.11l-.02.1c-.23-.03-.36,0-.45.09-.1.1-.12.27-.19.69l-.34,2.1c-.04.25,0,.29.29.33l.09.02c.3.05.49.07.65-.05.08-.06.16-.18.19-.35l.11.02c-.06.25-.14.76-.14.76"></path><path class="cls-1" d="m30.21,68.7c-.25,0-.36-.06-.36-.06v-.11s.06,0,.12,0c.16,0,.29-.03.4-.1.18-.13.28-.38.29-.73.02-.8-.44-.84-.72-.84-.09,0-.23,0-.23,0l-.08,2.44c-.01.43-.02.6.06.72.07.11.19.16.43.18v.1c-.22-.02-.7-.04-.9-.05-.19,0-.5-.01-.74,0v-.1c.07,0,.19-.02.28-.11.1-.1.11-.26.12-.74l.06-1.91c.01-.35,0-.47-.05-.56-.04-.06-.13-.13-.28-.15v-.1c.22.02.47.03.67.04.31,0,.5,0,.84.01.11,0,.4.02.62.08.4.11.77.36.75.94-.02.74-.6,1.05-1.26,1.03"></path><path class="cls-1" d="m34.63,70.05c-.17.02-.57.07-.73.1v-.1c.12-.01.2-.05.24-.09.03-.03.04-.08.04-.13,0-.07-.04-.16-.11-.31l-.34-.74-1.03.1-.21.8c-.04.16-.06.25-.06.32,0,.05.02.09.06.11.07.05.18.04.26.04v.1c-.18,0-.32.01-.52.03-.18.02-.34.04-.51.07v-.1c.14-.01.22-.14.24-.19.04-.07.1-.27.21-.63l.87-2.9.4-.11,1.27,2.71c.18.37.3.6.33.63.04.05.12.15.27.13v.1c-.15,0-.52.03-.68.05m-1.34-2.21c-.16-.34-.2-.48-.2-.48l-.34,1.28.86-.09-.33-.71h0Z"></path><path class="cls-1" d="m39.16,69.1c-.56.14-.75-.05-1-.23-.16-.12-.69-.54-1.06-.86l-.23.06.19.73c.09.34.13.45.21.52.06.05.16.09.31.06l.03.1c-.21.04-.52.11-.71.16-.19.05-.5.14-.71.21l-.03-.1c.07-.02.18-.07.23-.19.06-.12.03-.28-.09-.74l-.48-1.85c-.09-.34-.13-.45-.21-.52-.06-.05-.16-.09-.31-.06l-.02-.1c.21-.04.4-.09.58-.13.39-.1.47-.14.82-.23.12-.03.4-.1.63-.1.68,0,.88.45.94.67.07.28.1.81-.53,1.18,0,0,.77.53,1.18.82.34.23.57.39.8.34l.02.09s-.12.05-.57.17m-2.52-2.92c-.11.03-.23.08-.23.08l.41,1.59s.13-.02.25-.05c.07-.02.15-.05.2-.08.07-.04.41-.2.22-.93-.19-.76-.65-.66-.86-.61"></path><path class="cls-1" d="m43.06,67.49c-.15.07-.52.24-.67.32l-.04-.09c.12-.05.19-.11.21-.17.02-.04.02-.09,0-.13-.03-.06-.09-.14-.2-.26l-.55-.59-.95.42.05.82c.01.16.02.26.05.32.02.05.05.08.09.09.08.03.19-.02.26-.04l.04.09c-.18.07-.31.11-.49.19-.16.07-.31.14-.46.23l-.04-.09c.14-.06.17-.2.18-.26.01-.08.01-.29,0-.66l-.08-3.02.34-.23,2.05,2.17c.28.3.47.47.5.5.05.03.16.1.3.04l.04.09c-.15.06-.5.19-.64.26m-1.96-1.69c-.25-.27-.34-.4-.34-.4l.08,1.32.79-.35-.53-.58h0Z"></path><path class="cls-1" d="m43.47,62.3l-.82.97-.11-.05.28-1.05.03-.03.6.07.02.09h0Zm.24.92c-.03.14.05.27.29.69l.97,1.64c.18.3.25.4.34.44.07.03.18.04.31-.02l.05.09c-.19.1-.49.26-.65.36-.17.1-.45.28-.63.4l-.05-.09c.06-.04.15-.12.17-.24.03-.14-.05-.28-.29-.69l-.97-1.64c-.18-.3-.25-.4-.34-.44-.07-.03-.18-.04-.31.02l-.05-.09c.19-.1.49-.26.65-.36.17-.1.45-.28.63-.4l.05.09c-.06.04-.15.12-.17.24"></path><path class="cls-1" d="m47.29,64.97c-.21.15-.52.34-.77.43l-.05-.07c-.16-.21-.27-.35-.38-.47l.09-.07c.12.12.25.2.39.2.19,0,.38-.1.54-.22.57-.43.3-.81.23-.9-.21-.29-.48-.26-.84-.23l-.37.03c-.47.04-.82,0-1.14-.42-.17-.22-.47-.86.45-1.55.4-.3.72-.46.72-.46,0,0,.06.11.17.25.19.25.25.31.25.31l-.09.07c-.09-.1-.2-.16-.31-.17-.2-.03-.42.09-.56.19-.46.34-.32.64-.2.8.17.23.39.24.73.21l.41-.04c.52-.05.88-.03,1.21.42.44.6.16,1.2-.49,1.68"></path><path class="cls-1" d="m50.64,62.13c-.81.81-1.78.8-2.57.01-.82-.82-.84-1.87-.03-2.69.81-.81,1.78-.8,2.57-.01.82.81.84,1.87.03,2.69m-2.45-2.49c-.53.53-.21,1.24.41,1.86.65.65,1.38.94,1.88.44.53-.53.21-1.24-.41-1.86-.65-.65-1.39-.94-1.88-.44"></path><path class="cls-1" d="m6.41,51.63c.09.23.1.36.1.36l-.1.04s-.02-.06-.04-.11c-.06-.15-.14-.25-.26-.32-.19-.11-.46-.11-.78.02-.74.3-.59.74-.48,1,.03.09.1.21.1.21l2.26-.92c.4-.16.56-.22.63-.34.07-.11.07-.24,0-.46l.09-.04c.07.2.24.66.31.84.07.18.19.47.3.68l-.09.04c-.03-.07-.1-.16-.22-.21-.13-.05-.28,0-.72.19l-1.77.72c-.32.13-.43.19-.49.28-.04.06-.07.17-.02.31l-.09.04c-.07-.2-.16-.44-.23-.62-.12-.29-.2-.46-.32-.77-.04-.1-.15-.38-.18-.6-.06-.41.02-.85.56-1.07.68-.28,1.2.12,1.45.74"></path><path class="cls-1" d="m6.9,47.62c.26,1.12-.27,1.94-1.35,2.19-1.12.26-2.03-.28-2.3-1.4-.26-1.12.27-1.94,1.35-2.19,1.12-.26,2.03.28,2.3,1.4m-3.41.76c.17.74.94.84,1.79.64.9-.21,1.53-.68,1.37-1.37-.17-.74-.93-.84-1.79-.63-.9.21-1.53.68-1.37,1.37"></path><path class="cls-1" d="m2.72,42c.11.09.27.08.74.06l2.71-.15.02.31-2.69,2.26c-.12.1-.2.15-.2.15l2.2-.12c.35-.02.47-.04.55-.1.06-.05.12-.14.12-.29h.1c0,.21,0,.32,0,.52,0,.19.02.32.05.55h-.1c0-.07-.04-.18-.14-.26-.11-.09-.27-.09-.74-.06l-1.9.1c-.35.02-.47.04-.55.1-.06.05-.12.14-.12.29h-.1c0-.21,0-.44-.01-.64,0-.08-.03-.33-.05-.48l2.05-1.72c.18-.15.26-.19.26-.19l-1.62.09c-.35.02-.47.04-.55.1-.06.05-.12.14-.12.29h-.1c0-.21,0-.35,0-.54-.01-.19-.02-.29-.05-.53h.1c0,.07.04.18.14.26"></path><path class="cls-1" d="m3.53,38.13c-.19-.01-.32.05-.39.15-.08.11-.1.22-.14.57l-.02.2,2.58.24c.35.03.47.03.55-.02.14-.07.17-.32.18-.38h.1c-.03.22-.08.66-.1.86-.02.19-.05.64-.06.86h-.1c0-.05,0-.29-.1-.4-.1-.1-.24-.12-.71-.17l-2.42-.23-.02.2c-.03.34-.03.45.03.58.05.11.17.2.36.22v.12c-.26-.05-.72-.08-.72-.08l.27-2.89s.46.05.71.05v.12h-.01Z"></path><path class="cls-1" d="m3.44,36c.08.11.23.15.7.25l1.87.39c.34.07.46.08.56.04.07-.03.15-.1.19-.25l.1.02c-.05.21-.13.54-.17.73-.04.19-.09.52-.13.73l-.1-.02c.01-.07.01-.19-.06-.29-.08-.11-.23-.15-.7-.25l-1.87-.38c-.34-.07-.46-.08-.56-.04-.07.03-.15.1-.19.25l-.1-.02c.05-.21.13-.54.17-.73.04-.19.1-.52.13-.73l.1.02c-.01.07-.01.19.06.29"></path><path class="cls-1" d="m4.94,32.62c-.18-.05-.33-.02-.42.06-.1.09-.15.2-.25.52l-.14.43,1.29.41.14-.44c.06-.19.1-.34.05-.46-.03-.09-.12-.18-.27-.24l.03-.11c.12.04.19.07.52.18.33.1.39.12.52.15l-.03.11c-.14-.03-.24-.02-.32.02-.13.08-.19.24-.25.43l-.14.43.94.3c.33.11.44.12.53.1.15-.04.24-.28.26-.33l.1.03c-.08.2-.23.61-.29.8-.09.3-.12.43-.2.73l-.09-.03c.02-.07.03-.19-.03-.3-.07-.12-.22-.17-.67-.32l-1.82-.58c-.33-.11-.45-.13-.55-.1-.07.02-.16.09-.22.23l-.09-.03c.11-.29.18-.51.28-.81l.48-1.51s.44.15.69.2l-.04.11h0Z"></path><path class="cls-1" d="m5.35,30.36c.06.13.2.2.63.39l1.74.77c.32.14.44.18.54.16.07-.02.17-.07.24-.2l.09.04c-.1.19-.24.5-.32.68-.08.18-.2.49-.28.69l-.09-.04c.03-.07.05-.18,0-.3-.06-.13-.2-.2-.63-.39l-1.74-.77c-.32-.14-.44-.18-.54-.16-.07.02-.17.07-.24.2l-.09-.04c.1-.19.24-.5.32-.68.08-.18.2-.49.28-.69l.09.04c-.03.07-.05.18,0,.3"></path><path class="cls-1" d="m7.8,26.94c-.12-.07-.25-.07-.35-.03-.22.07-.39.31-.47.45-.25.42-.54,1.12.76,1.89.8.47,1.51.53,1.99-.28.1-.17.21-.42.14-.63-.03-.1-.1-.2-.23-.27l.06-.1c.13.09.28.19.5.32l.08.05c-.05.26-.22.62-.37.87-.36.6-.82,1-1.37,1.08-.35.05-.75-.04-1.16-.28-.82-.49-1.07-1.26-.93-2.01.06-.29.22-.61.32-.79.22-.37.47-.68.5-.72.09.06.2.13.29.18.12.07.25.14.31.17l-.06.1h0Z"></path><path class="cls-1" d="m8.81,24.73c.03.14.15.24.53.53l1.52,1.16c.28.21.38.27.48.28.07,0,.18-.03.28-.14l.08.06c-.14.17-.35.43-.47.58-.12.15-.31.43-.43.6l-.08-.06c.04-.06.09-.17.07-.29-.03-.14-.15-.24-.53-.53l-1.52-1.16c-.28-.21-.38-.27-.48-.28-.08,0-.18.03-.28.14l-.08-.06c.14-.17.35-.43.47-.58.12-.15.31-.43.43-.6l.08.06c-.04.06-.09.17-.07.29"></path><path class="cls-1" d="m13.86,24.23c-.12.12-.39.42-.5.54l-.07-.07c.09-.1.13-.17.13-.23,0-.04-.02-.09-.05-.12-.05-.05-.13-.09-.28-.16l-.73-.34-.72.74.36.74c.07.15.11.23.16.28.04.03.07.05.11.05.09,0,.17-.08.23-.14l.07.07c-.14.13-.24.22-.38.36-.12.13-.23.25-.34.39l-.07-.07c.11-.11.09-.25.07-.31-.02-.08-.1-.27-.24-.62l-1.2-2.78.23-.34,2.71,1.25c.37.17.61.26.65.27.06.01.19.04.29-.08l.07.07c-.12.11-.39.37-.5.48m-2.45-.83c-.34-.16-.46-.24-.46-.24l.57,1.2.6-.62-.71-.33h0Z"></path><path class="cls-1" d="m16.69,17.86c-.02.14.06.27.32.67l.62.94c.23.35.36.58.41.8.15.69-.42,1.13-.79,1.38-.78.51-1.23.41-1.55.18-.24-.17-.43-.49-.59-.73l-.7-1.07c-.19-.29-.27-.39-.36-.42-.07-.03-.18-.03-.31.04l-.05-.08c.19-.11.47-.29.64-.39.16-.11.43-.3.61-.43l.05.08c-.06.04-.14.13-.16.25-.02.14.06.27.32.67l.81,1.23c.27.42.59.83,1.27.38.7-.46.39-.96.15-1.32l-.9-1.37c-.19-.29-.27-.39-.36-.42-.07-.03-.18-.03-.31.04l-.05-.08c.19-.11.35-.2.51-.31.16-.11.36-.25.54-.38l.05.08c-.06.04-.14.13-.16.25"></path><path class="cls-1" d="m20.99,15.84c-.04.13.01.28.2.72l1.08,2.49-.28.12-3.06-1.73c-.13-.07-.21-.14-.21-.14l.88,2.02c.14.32.2.43.29.48.06.04.17.06.31.01l.04.09c-.2.08-.31.11-.49.19-.18.08-.29.13-.5.24l-.04-.09c.07-.03.16-.1.2-.22.05-.13-.01-.28-.2-.72l-.76-1.75c-.14-.32-.2-.43-.29-.48-.06-.04-.17-.06-.31-.01l-.04-.09c.2-.08.42-.16.6-.24.08-.03.3-.14.43-.21l2.33,1.32c.2.12.27.18.27.18l-.64-1.49c-.14-.32-.2-.43-.29-.48-.06-.04-.17-.06-.31-.01l-.04-.09c.2-.08.33-.12.51-.2s.27-.12.48-.23l.04.09c-.07.03-.16.1-.2.22"></path><path class="cls-1" d="m23.41,15.11c-.06.13-.02.28.11.74l.53,1.83c.1.34.15.45.22.51.06.05.16.09.31.05l.03.1c-.21.05-.54.13-.72.19-.19.05-.5.16-.71.23l-.03-.1c.07-.02.17-.08.23-.19.06-.13.02-.28-.11-.74l-.53-1.83c-.1-.34-.15-.45-.22-.51-.06-.05-.16-.09-.31-.05l-.03-.1c.21-.05.54-.13.72-.19.19-.05.5-.16.71-.23l.03.1c-.07.02-.17.08-.23.19"></path><path class="cls-1" d="m27.76,14.29c-.03.07-.08.28-.17.64l-.68,2.95-.4.14-1.45-2.62c-.2-.35-.34-.57-.37-.61-.04-.04-.13-.14-.28-.11l-.02-.1c.16-.02.53-.06.69-.09.16-.03.57-.11.73-.14l.02.1c-.13.02-.21.06-.25.11-.03.03-.04.08-.03.13.01.07.05.15.13.3l.88,1.62c.17.31.23.47.23.47,0,0,.03-.19.1-.53l.35-1.82c.03-.16.05-.26.04-.33,0-.05-.03-.09-.06-.11-.07-.05-.18-.03-.26-.02l-.02-.1c.19-.02.33-.03.53-.07.17-.03.33-.06.51-.11l.02.1c-.15.02-.22.15-.24.2"></path><path class="cls-1" d="m31.29,17.55l-1.55.04c-.31,0-.61,0-.92.03v-.1c.07,0,.19-.03.27-.13.09-.11.09-.26.08-.74l-.05-1.91c0-.35-.03-.47-.08-.55-.05-.06-.14-.12-.29-.13v-.1c.3,0,.54,0,.85,0l1.59-.04s0,.46.03.72h-.12c0-.19-.09-.31-.2-.37-.12-.07-.24-.08-.58-.07h-.45s.03,1.37.03,1.37h.47c.2-.02.35-.03.45-.12.08-.06.13-.17.14-.33h.12c0,.12,0,.2,0,.55,0,.34.02.41.02.54h-.12c-.01-.14-.06-.23-.13-.29-.12-.1-.29-.1-.48-.1h-.45s.03,1.24.03,1.24c0,.25.05.28.35.27h.09c.31,0,.53-.03.66-.17.07-.07.12-.21.12-.37h.12c-.02.25,0,.77,0,.77"></path><path class="cls-1" d="m35.08,17.96c-.57-.07-.68-.32-.84-.58-.1-.17-.45-.75-.67-1.18l-.23-.03-.09.75c-.04.35-.04.47,0,.56.04.07.12.14.26.17v.1c-.23-.04-.54-.09-.73-.11-.19-.02-.52-.05-.73-.07v-.1c.08,0,.2,0,.3-.09.11-.09.13-.25.19-.72l.23-1.89c.04-.35.04-.47,0-.56-.04-.07-.12-.14-.26-.17v-.1c.23.04.41.07.6.09.4.05.49.04.84.09.13.02.41.05.62.13.63.25.65.75.62.97-.04.29-.2.79-.93.9,0,0,.52.78.8,1.2.23.34.39.57.62.61v.09s-.14,0-.61-.05m-1.27-3.65c-.12-.01-.24-.01-.24-.01l-.2,1.63s.12.03.26.04c.08,0,.15.01.22,0,.08-.01.45-.03.54-.78.1-.78-.36-.86-.58-.88"></path><path class="cls-1" d="m36.83,18.39c-.25-.07-.59-.2-.81-.34l.02-.09c.07-.25.11-.43.14-.59l.11.03c-.02.17,0,.32.08.44.11.16.31.24.5.29.69.19.82-.26.85-.37.09-.35-.1-.54-.34-.8l-.25-.27c-.32-.35-.51-.65-.37-1.16.07-.27.38-.9,1.5-.6.48.13.81.28.81.28,0,0-.05.11-.09.28-.08.3-.09.39-.09.39l-.11-.03c.03-.14,0-.25-.06-.36-.1-.18-.33-.27-.5-.32-.55-.15-.7.15-.75.33-.07.28.05.46.29.71l.29.3c.36.38.56.68.42,1.22-.19.72-.84.87-1.63.65"></path><path class="cls-1" d="m41.28,16.23c-.13.06-.19.21-.36.65l-.69,1.78c-.13.33-.16.45-.13.54.02.07.08.17.21.23l-.04.09c-.2-.09-.51-.22-.69-.29-.18-.07-.49-.18-.7-.25l.04-.09c.07.03.19.04.3-.01.13-.06.19-.21.36-.65l.69-1.78c.13-.33.16-.45.13-.54-.02-.07-.08-.17-.21-.23l.04-.09c.2.09.51.22.69.29s.49.18.7.25l-.04.09c-.07-.03-.19-.04-.3.01"></path><path class="cls-1" d="m42.95,20.78c-.17-.04-.46-.15-.84-.36-.25-.14-.42-.25-.64-.37-.17-.09-.38-.2-.57-.3l.05-.09c.06.03.18.07.3.02.13-.05.21-.18.44-.6l.92-1.67c.17-.31.21-.42.2-.52,0-.07-.05-.18-.18-.26l.05-.09s.18.12.53.31c.16.09.45.24.8.43.44.24,1.76,1.02.95,2.49-.63,1.14-1.49,1.12-2.01.99m.93-3.27c-.26-.14-.35-.18-.35-.18l-1.36,2.49c-.08.14-.1.22-.02.31.04.04.12.08.22.14.74.41,1.27.19,1.82-.82.68-1.24.1-1.71-.31-1.94"></path><path class="cls-1" d="m46.53,23.36c-.13-.1-.46-.34-.6-.43l.06-.08c.11.08.19.11.25.11.04,0,.08-.03.11-.07.04-.05.08-.14.13-.3l.26-.77-.82-.64-.7.44c-.14.09-.22.14-.26.2-.03.04-.05.08-.04.12.01.09.1.16.16.21l-.06.08c-.15-.13-.24-.22-.4-.34-.14-.11-.27-.2-.42-.3l.06-.08c.12.1.26.06.31.04.08-.03.26-.13.59-.31l2.62-1.5.36.19-.94,2.84c-.12.39-.19.64-.2.68,0,.06-.01.19.11.28l-.06.08c-.12-.11-.41-.34-.53-.44m.55-2.53c.12-.35.19-.49.19-.49l-1.12.7.68.53.25-.74h0Z"></path><path class="cls-1" d="m48.98,25.67c-.15-.09-.39-.29-.68-.6-.19-.21-.32-.37-.49-.55-.13-.14-.3-.31-.45-.46l.07-.07c.05.05.15.12.27.12.14,0,.26-.11.61-.43l1.39-1.3c.25-.24.33-.33.36-.43.01-.07,0-.18-.09-.3l.07-.07s.13.17.41.46c.12.13.36.37.63.66.34.36,1.35,1.51.13,2.66-.95.89-1.77.6-2.22.32m1.9-2.81c-.2-.21-.28-.28-.28-.28l-2.07,1.94c-.12.11-.17.18-.11.29.02.05.09.12.17.21.58.62,1.15.58,1.99-.21,1.03-.96.63-1.59.31-1.94"></path><path class="cls-1" d="m54.99,29.32c.12-.07.18-.18.2-.29.04-.22-.08-.49-.17-.64-.25-.42-.72-1.01-2.02-.25-.8.47-1.19,1.07-.72,1.88.1.17.26.39.49.43.1.02.22,0,.35-.07l.06.1c-.14.07-.3.15-.52.28l-.08.05c-.2-.17-.43-.5-.58-.75-.35-.6-.48-1.21-.28-1.72.13-.33.39-.64.81-.88.83-.49,1.62-.33,2.2.16.23.19.43.48.53.66.22.37.36.74.39.78-.1.04-.21.11-.3.17-.12.07-.24.15-.3.19l-.06-.1h0Z"></path><path class="cls-1" d="m53.78,33.84c-.06-.15-.23-.53-.3-.68l.09-.04c.05.12.11.19.16.22.04.02.09.02.13,0,.06-.03.14-.09.26-.2l.61-.53-.39-.96-.82.03c-.17,0-.26,0-.33.04-.05.02-.08.04-.09.08-.03.08.01.19.03.26l-.09.04c-.06-.18-.1-.31-.18-.5-.07-.16-.13-.31-.21-.47l.09-.04c.05.15.19.18.25.19.08.02.29.02.66.03l3.02.02.22.35-2.24,1.98c-.3.27-.49.45-.51.49-.03.05-.11.16-.05.3l-.09.04c-.05-.15-.18-.5-.24-.65m1.75-1.91c.28-.24.41-.33.41-.33l-1.32.04.32.8.59-.52h0Z"></path><path class="cls-1" d="m57.56,36.54c.18-.05.29-.16.32-.28.04-.14.02-.25-.06-.58l-.05-.2-2.51.65c-.34.09-.45.14-.51.21-.11.12-.05.36-.04.42l-.1.03c-.04-.21-.14-.64-.19-.83-.05-.19-.17-.62-.24-.83l.1-.03s.08.26.22.34c.12.07.27.03.73-.09l2.35-.61-.05-.2c-.09-.33-.12-.44-.23-.54-.08-.09-.23-.13-.41-.09l-.03-.11c.25-.04.7-.16.7-.16l.73,2.81s-.45.11-.69.2l-.03-.11h0Z"></path><path class="cls-1" d="m54.99,39.57c-.12-1.14.51-1.89,1.62-2,1.15-.12,1.98.53,2.1,1.68.12,1.14-.51,1.89-1.62,2-1.15.12-1.98-.53-2.1-1.68m3.47-.32c-.08-.75-.82-.95-1.7-.86-.92.09-1.6.48-1.53,1.18.08.75.82.95,1.7.86.92-.09,1.6-.48,1.53-1.18m.98.66l-.54-1.15.09-.08.84.7v.04s-.3.51-.3.51l-.09-.02h0Z"></path><path class="cls-1" d="m55.09,44.52l.08-1.52c.01-.31.04-.61.03-.92h.1c0,.08.02.19.11.28.1.1.26.11.73.14l1.91.09c.35.02.47,0,.56-.05.06-.04.13-.13.15-.28h.1c-.02.22-.05.62-.06.81,0,.19-.02.61-.02.82h-.1c0-.24-.04-.36-.14-.44-.11-.09-.28-.09-.71-.11l-2.12-.1c-.25-.01-.28.03-.3.33v.09c-.02.3-.02.49.11.64.07.07.2.14.36.15v.12c-.26-.03-.78-.06-.78-.06"></path><path class="cls-1" d="m58.18,46.92c-.09-.11-.24-.14-.71-.21l-1.88-.3c-.34-.06-.47-.06-.56-.02-.07.03-.15.11-.18.26l-.1-.02c.04-.21.11-.55.14-.74.03-.19.07-.52.1-.74h.1c-.01.09,0,.21.08.3.09.11.24.14.71.21l1.88.3c.34.05.47.06.56.02.07-.03.15-.11.18-.26l.1.02c-.04.21-.11.55-.14.74-.03.19-.07.52-.09.74l-.1-.02c.01-.07,0-.19-.08-.29"></path><path class="cls-1" d="m56.68,50.85c.14.04.26,0,.35-.06.19-.12.3-.4.34-.56.13-.47.24-1.22-1.22-1.63-.89-.25-1.6-.12-1.85.78-.05.19-.1.46.03.65.05.09.15.16.29.2l-.03.11c-.15-.05-.31-.11-.56-.18l-.09-.03c-.01-.26.06-.66.14-.94.19-.67.54-1.18,1.05-1.39.33-.14.73-.16,1.19-.02.92.26,1.36.95,1.41,1.7.02.3-.06.64-.11.84-.12.41-.28.77-.3.82-.1-.04-.22-.08-.33-.1-.14-.04-.27-.07-.34-.09l.03-.11h0Z"></path><path class="cls-1" d="m52.59,53.09c.07-.15.23-.53.28-.68l.09.04c-.05.12-.06.21-.05.26.01.04.05.08.09.1.06.03.16.04.32.05l.81.07.43-.95-.59-.58c-.12-.11-.19-.18-.25-.21-.04-.02-.09-.03-.12,0-.08.03-.13.14-.17.2l-.09-.04c.09-.17.15-.29.24-.47.07-.16.13-.31.19-.48l.09.04c-.07.14,0,.26.04.31.04.07.18.22.44.5l2.07,2.2-.1.4-2.98-.25c-.41-.03-.66-.04-.71-.03-.06.01-.19.03-.25.17l-.09-.04c.08-.14.24-.48.3-.62m2.59-.06c.37.03.52.07.52.07l-.94-.93-.35.79.78.07h0Z"></path><path class="cls-1" d="m32.47,28.82h.57c-.14-.14-.33-.37-.33-.6,0-.48.57-.8.57-1.42s-.43-.95-.43-1.52c0-.52.38-.88.38-1.31,0-.19-.09-.55-.24-.69h-.52c.09.14.24.5.24.69,0,.43-.38.7-.38,1.32,0,.57.48,1.04.48,1.52s-.57.84-.57,1.41c0,.24.09.46.24.6"></path><path class="cls-1" d="m32.75,32.62v.62h14.65v-.57h-3.81c1.39-.28,2.27-1.32,2.27-2.83,0-2.29-2.57-4.59-6.29-4.59-.9,0-1.68.12-2.35.32-.02-.09-.03-.19-.03-.28,0-.52.38-.88.38-1.31,0-.19-.1-.55-.24-.69h-.52c.1.14.24.5.24.69,0,.43-.38.7-.38,1.32,0,.15.04.3.09.44-.3.12-.57.26-.83.41-.11-.28-.27-.54-.27-.86,0-.52.38-.88.38-1.31,0-.19-.09-.55-.24-.69h-.52c.09.14.24.5.24.69,0,.43-.38.7-.38,1.32,0,.42.26.76.39,1.13-.7.53-1.18,1.17-1.48,1.82,0-.03,0-.07,0-.1,0-.38.57-.86.57-1.33,0-.62-.43-.95-.43-1.53,0-.52.38-.88.38-1.31,0-.19-.09-.55-.24-.69h-.52c.1.14.24.5.24.69,0,.43-.38.7-.38,1.32,0,.57.48,1.04.48,1.52s-.57.84-.57,1.41c0,.24.09.46.24.6h.52c.48-1.42,1.95-3.08,5.19-3.08,3.52,0,5.71,2.25,5.71,4.06,0,1.62-1.05,2.34-2.19,2.34-1.52,0-2.05-.95-2.05-1.76,0-.67.33-1.29,1.09-1.57-.38-.86-1.52-1.83-3.38-1.83-2.05,0-3.1,1.13-3.38,1.84h.57c.08-.14.3-.49.68-.74,0,.04-.01.08-.01.13,0,.24.09.47.24.61h.57c-.14-.14-.33-.37-.33-.6,0-.17.08-.32.17-.46.4-.15.89-.25,1.49-.25,1.52,0,2.29.67,2.62,1.1-.48.24-1,1.02-1,1.79,0,1.08.66,1.98,2.03,2.26h-5.22c0-1-1.29-.99-1.29-1.28s1.72-.86,1.72-1.99h-5.29c0,1.14,1.73,1.68,1.73,1.97s-1.27.35-1.27,1.26m.2-2.8h3.95c0,.71-1.52.97-1.52,1.54s1.14.45,1.14,1.3h-3.19c0-.85,1.14-.73,1.14-1.3s-1.52-.83-1.52-1.54"></path><path class="cls-1" d="m41.28,34.76c-.1-.1-.33-.19-.67-.19-.9,0-1.62.72-1.62,1.67,0,1.1,1.05,1.43,1.05,2.1,0,.38-.28.67-.52.81.14.14.43.24.76.24.95,0,1.62-.72,1.62-1.67s-1-1.38-1-2.05c0-.29.14-.62.38-.91m.14,3c0,.71-.52,1.19-1.14,1.19.14-.14.28-.48.28-.72,0-.81-1.05-1.19-1.05-2.05,0-.72.48-1.19,1.09-1.19-.14.19-.24.52-.24.81,0,.76,1.05,1.19,1.05,1.95"></path><path class="cls-1" d="m47.76,35.67c0-.29.14-.62.38-.91-.09-.1-.33-.19-.67-.19-.91,0-1.62.72-1.62,1.67,0,1.1,1.05,1.43,1.05,2.1,0,.38-.29.67-.52.81.14.14.43.24.76.24.95,0,1.62-.72,1.62-1.67s-1-1.38-1-2.05m-.62,3.29c.14-.14.29-.48.29-.72,0-.81-1.05-1.19-1.05-2.05,0-.72.48-1.19,1.09-1.19-.14.19-.24.52-.24.81,0,.76,1.05,1.19,1.05,1.95,0,.71-.52,1.19-1.14,1.19"></path><path class="cls-1" d="m44.71,34.76c-.09-.1-.33-.19-.67-.19-.91,0-1.62.72-1.62,1.67,0,1.1,1.05,1.43,1.05,2.1,0,.38-.29.67-.52.81.14.14.43.24.76.24.95,0,1.62-.72,1.62-1.67s-1-1.38-1-2.05c0-.29.14-.62.38-.91m.14,3c0,.71-.52,1.19-1.14,1.19.14-.14.28-.48.28-.72,0-.81-1.05-1.19-1.05-2.05,0-.72.48-1.19,1.09-1.19-.14.19-.24.52-.24.81,0,.76,1.05,1.19,1.05,1.95"></path><path class="cls-1" d="m23.77,29.31c0,.19.05.29.1.29s.14-.14.24-.19c0,.14.15.24.29.24.19,0,.29-.1.29-.29.14.05.19.19.29.19.05,0,.14-.05.14-.19,0-.29-.24-.39-.63-.39s-.67.24-.72.34m-.68,2.9c.05.1.15.19.34.19s.29-.1.34-.19c0-.05,0-.14-.05-.19-.05.05-.1.1-.29.1s-.24-.05-.29-.1c-.05.05-.05.14-.05.19m-.24-1.16c.29,0,.34.1.58.1s.29-.1.58-.1c0-.1-.05-.19-.1-.29-.39,0-.39.14-.48.14s-.1-.14-.48-.14c-.05.1-.1.19-.1.29m-.14.53l.05.24s.14-.05.24-.05c.14,0,.19.05.43.05s.29-.05.43-.05c.1,0,.19,0,.24.05l.05-.24s-.19-.1-.34-.1-.24.05-.39.05-.24-.05-.39-.05-.29.05-.34.1m-.96-2.22c0,.14.1.19.14.19.1,0,.14-.14.29-.19,0,.19.1.29.29.29.14,0,.29-.1.29-.24.1.05.19.19.24.19s.1-.1.1-.29c-.05-.1-.34-.34-.72-.34s-.63.1-.63.39m-1.35-.24c-.24.29-.05.53.24.53s.68-.14,1.06-.82c.24-.34.34-.58.77-.58.63,0,.58-.63.96-.63s.34.63.96.63c.43,0,.53.24.77.58.39.68.77.82,1.06.82s.48-.24.24-.53c-.05.1-.14.19-.29.19-.39,0-.53-.34-.82-.77.14.05.29.24.48.24.24,0,.29-.19.24-.34-.77,0-.58-.53-1.54-.53-.43,0-.58-.63-1.11-.63s-.68.63-1.11.63c-.96,0-.77.53-1.54.53-.05.14,0,.34.24.34.19,0,.34-.19.48-.24-.29.43-.43.77-.82.77-.15,0-.24-.1-.29-.19m-.92.77c0,.29.24.53.43.63-.05.05-.1.14-.1.34,0,.53.53.63.68.63-.1.1-.14.24-.14.39,0,.24.24.53.63.53.29,0,.48-.19.43-.43-.1.05-.19.1-.34.1-.19,0-.39-.1-.39-.29,0-.14.05-.24.1-.29.19-.05.29-.1.29-.34-.14.05-.29.05-.43.05-.24,0-.48-.14-.48-.39,0-.1.05-.19.1-.24.24.1.63.05.82-.1.19,1.11,1.06,2.85,2.36,2.8,1.3.05,2.17-1.69,2.36-2.8.19.14.58.19.82.1.05.05.1.14.1.24,0,.24-.24.39-.48.39-.14,0-.29,0-.43-.05,0,.24.1.29.29.34.05.05.1.14.1.29,0,.19-.19.29-.39.29-.14,0-.24-.05-.34-.1-.05.24.14.43.43.43.39,0,.63-.29.63-.53,0-.14-.05-.29-.14-.39.14,0,.67-.1.67-.63,0-.19-.05-.29-.1-.34.19-.1.43-.34.43-.63,0-.24-.14-.48-.53-.48.1.1.15.19.15.34,0,.29-.24.48-.63.48-.14,0-.43-.05-.53-.14.05-.24-.14-.39-.34-.48.05.29,0,.48-.05.63-.14.43-.77.53-.77.58,0,.14.14.19.24.19.19,0,.34-.1.48-.29-.19.82-.87,2.17-1.98,2.17s-1.78-1.35-1.98-2.17c.14.19.29.29.48.29.1,0,.24-.05.24-.19,0-.05-.63-.14-.77-.58-.05-.14-.1-.34-.05-.63-.19.1-.39.24-.34.48-.1.1-.39.14-.53.14-.39,0-.63-.19-.63-.48,0-.14.05-.24.14-.34-.39,0-.53.24-.53.48m-.67-4.54c0,.1.05.14.1.14h9.07s.1-.05.1-.14c0-.14-.1-.29-.39-.29h-8.49c-.29,0-.39.14-.39.29m-1.35,2.22c0,1.21,1.06,1.69,1.78,1.69.77,0,1.5-.58,1.5-1.4,0-.24-.1-.48-.19-.63.53.19,1.21.24,1.59.24.43,0,.72-.19.82-.34-1.83-.05-2.56-.48-3.38-.48-.63,0-1.01.43-1.01.92s.34.82.77.82c.39,0,.58-.24.58-.48,0-.14-.1-.24-.24-.24,0,.14-.1.24-.29.24s-.34-.14-.34-.34c0-.24.19-.43.53-.43.48,0,.72.29.72.72,0,.58-.39.97-1.11.97s-1.21-.53-1.21-1.26c0-1.06.82-1.4,1.49-1.4,1.11,0,1.83.29,3.96.29s2.85-.29,3.96-.29c.68,0,1.5.34,1.5,1.4,0,.72-.48,1.26-1.21,1.26s-1.11-.39-1.11-.97c0-.43.24-.72.72-.72.34,0,.53.19.53.43,0,.19-.14.34-.34.34s-.29-.1-.29-.24c-.14,0-.24.1-.24.24,0,.24.19.48.58.48.43,0,.77-.34.77-.82s-.39-.92-1.01-.92c-.82,0-1.54.43-3.38.48.1.14.39.34.82.34.38,0,1.06-.05,1.59-.24-.1.14-.19.39-.19.63,0,.82.72,1.4,1.49,1.4.72,0,1.79-.48,1.79-1.69,0-1.06-.68-1.83-2.03-1.83-1.16,0-1.93.34-3.96.34s-2.8-.34-3.96-.34c-1.35,0-2.03.77-2.03,1.83"></path><path class="cls-1" d="m21.27,39.67c-1.95,0-3.16.34-3.96.9h-.67c-.83-.56-2.01-.9-3.99-.9v-5.33c.1,0,.45.06.64.16v4.71c1.47,0,2.49.19,3.38.72h.57c.93-.53,1.98-.72,3.42-.72v-4.71c.19-.09.51-.16.61-.16v5.33h0Zm-1.09-5.89v5.02c-1.05,0-2.07.19-2.97.59v-4.89c.61-.56,1.92-.72,2.97-.72m-6.42,0c1.05,0,2.33.16,2.97.72v4.89c-.93-.4-1.92-.59-2.97-.59v-5.02h0Zm6.9.25v-.62c-1.44,0-2.68.09-3.7.72-1.09-.62-2.2-.72-3.67-.72v.62c-.29-.09-.67-.16-1.12-.16v6.36c2.39,0,3.54.34,4.37.81h.86c.8-.47,1.95-.81,4.34-.81v-6.36c-.42,0-.8.06-1.09.16"></path><path class="cls-1" d="m24.96,55.14c-1.85,0-1.88,1.67-3.62,1.67s-1.88-1.71-3.62-1.71c-.94,0-1.47.45-1.96.89.12.13.28.31.4.43.39-.36.81-.73,1.52-.73,1.5,0,1.78,1.67,3.66,1.67,2.02,0,2.02-1.67,3.62-1.67s1.74,1.74,3.62,1.67v-.56c-1.74,0-1.74-1.67-3.62-1.67"></path><path class="cls-1" d="m24.96,57.4c-1.85,0-1.88,1.67-3.62,1.67s-1.88-1.71-3.62-1.71c-.19,0-.37.03-.53.06.17.15.6.54.62.54,1.4.04,1.66,1.67,3.54,1.67,2.02,0,2.02-1.67,3.62-1.67s1.74,1.74,3.62,1.67v-.56c-1.74,0-1.74-1.67-3.62-1.67"></path><path class="cls-1" d="m24.99,59.65c-1.26,0-1.68.78-2.37,1.28.16.11.36.17.55.27.53-.46.92-.99,1.82-.99,1.6,0,1.74,1.74,3.62,1.67v-.56c-1.74,0-1.74-1.67-3.62-1.67"></path><path class="cls-1" d="m14.56,54.61l.35.41c1.1-.3,1.48-1.48,2.77-1.48,1.5,0,1.78,1.67,3.66,1.67,2.02,0,2.02-1.67,3.62-1.67s1.74,1.74,3.62,1.67v-.56c-1.74,0-1.74-1.67-3.62-1.67s-1.88,1.67-3.62,1.67-1.88-1.71-3.62-1.71c-1.6,0-2.04,1.28-3.15,1.66"></path><path class="cls-1" d="m17.1,53.17h.59v-1.25c.05.1.24.14.44.14.78,0,1.66-.81,1.66-1.71l1.52-1.58-.29-.23-1.47,1.43c-.1-.1-.24-.14-.49-.14.49-.33.68-.71.68-1.24l1.57-1.53-.29-.24-1.47,1.43c-.1-.09-.24-.14-.44-.14.29-.14.64-.67.68-1.19l1.52-1.57-.29-.28-1.42,1.48c-.1-.14-.24-.24-.49-.24-.34,0-.64.14-.88.33.1-.14.15-.33.15-.62,0-.57-.34-1.19-.73-1.38l-.05-1.71h-.39l-.05,1.71c-.39.19-.73.81-.73,1.38,0,.29.05.43.1.57-.24-.14-.54-.28-.88-.28-.24,0-.34.09-.44.19l-1.42-1.43-.29.28,1.47,1.53c0,.48.2.86.54,1.19-.15,0-.29.05-.39.14l-1.37-1.38-.29.24,1.47,1.53c0,.38.19.81.63,1.19-.19,0-.34.09-.39.14l-1.42-1.38-.29.23,1.52,1.53c0,.9.88,1.76,1.66,1.76.2,0,.39-.05.49-.14v1.25h0Zm.29-3.82c-.1-.38-.29-.62-.59-.81.29,0,.54-.05.59-.48.05.43.29.48.59.48-.29.19-.49.43-.59.81m.69,2.33c-.24,0-.34-.14-.34-.33,0-.43.49-1.14,1.17-1.14.24,0,.44.05.44.24,0,.57-.54,1.24-1.27,1.24m-1.42,0c-.68,0-1.27-.67-1.27-1.24,0-.19.15-.24.29-.24.73,0,1.37.62,1.37,1.14,0,.19-.15.33-.39.33m.73-.57c-.1-.43-.29-.62-.54-.81.29,0,.49-.09.54-.43.05.33.25.43.54.43-.24.19-.44.38-.54.81m.64-1.19c-.24,0-.29-.14-.29-.29,0-.43.49-1.09,1.17-1.09.24,0,.34.05.34.24,0,.57-.49,1.14-1.22,1.14m-2.44-1.43c.83,0,1.47.71,1.47,1.14,0,.19-.15.29-.34.29-.73,0-1.37-.62-1.37-1.19,0-.19.1-.24.24-.24m3.42-1.76c.2,0,.29.09.29.28,0,.48-.54,1.19-1.27,1.19-.19,0-.29-.1-.29-.29,0-.43.64-1.19,1.27-1.19m-3.28,0c.64,0,1.32.76,1.32,1.19,0,.19-.15.29-.39.29-.68,0-1.27-.71-1.27-1.19,0-.19.1-.28.34-.28m1.66-1.76c.2,0,.59.57.59,1.14,0,.67-.34,1.14-.59,1.14s-.59-.48-.59-1.14c0-.57.39-1.14.59-1.14"></path><path class="cls-1" d="m35.74,57.99c-.24-.12-.52-.15-.78-.06-.26.08-.47.27-.6.51s-.14.52-.06.78c.08.26.27.47.51.6.2.1.42.13.64.1.05,0,.1-.02.14-.04.26-.08.47-.27.6-.51.12-.24.15-.52.06-.78-.08-.26-.27-.47-.51-.6m.13,1.21c-.08.16-.22.27-.38.33-.17.06-.35.04-.5-.04-.16-.08-.27-.22-.33-.38s-.04-.35.04-.5.22-.27.38-.33c.17-.06.35-.04.5.04.16.08.27.22.33.38.06.17.04.35-.04.5"></path><path class="cls-1" d="m40.92,56.33c-.21-.11-.46-.13-.68-.05-.47.15-.73.66-.57,1.13.07.23.23.41.45.52.17.09.37.12.56.08.04,0,.09-.02.13-.03.23-.07.41-.23.52-.45.11-.21.13-.46.05-.68-.07-.23-.23-.41-.45-.52m.07,1.04c-.06.13-.17.22-.31.27-.14.04-.28.03-.41-.03-.13-.06-.22-.17-.26-.31-.09-.28.06-.58.34-.67.02,0,.05-.01.08-.02.11-.02.23,0,.33.05.13.06.22.17.26.31s.03.28-.03.4"></path><path class="cls-1" d="m43.39,57.22c-.27-.41-.82-.43-1.12-.42l-.14-.39c.23-.16.61-.49.68-.93l.02-.12-.77-.69-.13.05c-.51.2-.74.55-.84.78l-.39-.09c0-.3-.07-.85-.54-1.1l-.09-.05-.88.29-.04.09c-.22.48.04.96.22,1.21l-.26.3c-.22-.13-.6-.28-1.14-.14l-.14.04-.22,1.02.09.09c.07.07.14.12.22.17-.28,0-.54.13-.71.24l-.27-.31c.19-.22.48-.64.34-1.06l-.03-.09-.82-.41-.09.03c-.43.14-.6.6-.66.89l-.41-.04c-.01-.29-.09-.78-.49-.98l-.08-.04-.91.3-.04.08c-.2.4.02.83.18,1.08l-.31.27c-.22-.19-.63-.47-1.06-.33l-.09.03-.42.82.03.09c.14.42.61.59.9.66l-.04.4c-.3.02-.79.1-.99.5l-.04.08.29.89.08.04c.36.18.83-.03,1.08-.19l.28.32c-.2.22-.49.64-.35,1.05l.03.09.82.41.09-.03c.45-.15.62-.6.68-.89l.39.04c.02.27.11.73.48.98l.09.06.93-.3.04-.11c.15-.43-.04-.85-.19-1.08l.29-.26c.22.19.63.46,1.08.31l.09-.03.42-.82-.03-.09c-.13-.41-.61-.57-.9-.64l.04-.43c.17-.02.42-.07.63-.19-.02.07-.03.15-.02.23v.09s.7.66.7.66l.13-.04c.54-.18.78-.55.88-.79l.39.08c0,.3.05.84.51,1.11l.09.05.93-.3.04-.1c.21-.49-.06-.96-.24-1.2l.27-.3c.23.14.64.3,1.18.12l.13-.04.17-.94-.05-.08h0Zm-4.77.91l-.21-.66c.15.02.29.03.4.03l.12.4c-.09.06-.2.13-.3.23m-1.19.29h-.2s-.12,1.26-.12,1.26l.23.02c.18.02.56.11.7.29l-.23.45c-.33.03-.66-.35-.67-.36l-.15-.18-.95.85.15.17s.3.36.26.71l-.47.16c-.24-.26-.21-.72-.21-.73l.02-.22-1.27-.12-.02.24s-.04.51-.33.68l-.45-.23c0-.22.25-.52.39-.65l.17-.15-.85-.95-.17.13c-.18.14-.5.3-.7.28l-.16-.49c.17-.17.58-.19.73-.18l.22.02.12-1.26-.22-.02c-.15-.01-.55-.1-.7-.31l.23-.45c.25-.01.56.27.66.37l.15.17.96-.86-.15-.17c-.09-.11-.32-.43-.28-.67l.52-.17c.17.17.18.57.17.71l-.02.23,1.28.13.02-.23c.01-.14.1-.55.31-.69l.45.22c0,.25-.27.56-.38.66l-.17.15.83.95.17-.13c.12-.09.47-.3.71-.25l.14.42c-.15.14-.5.21-.73.22m5.43-.54c-.47.1-.77-.18-.78-.19l-.17-.17-.84.94.16.15s.39.39.31.77l-.51.17c-.29-.26-.2-.8-.2-.81l.04-.22-1-.21-.23-.05-.04.23s-.08.42-.52.62l-.35-.33c.05-.28.42-.51.57-.58l.18-.08-.33-1.12-.19.03s-.52.06-.82-.13l.1-.48c.48-.07.75.18.76.19l.17.18.82-.94-.14-.15s-.38-.41-.3-.78l.48-.16c.29.25.22.8.22.8l-.03.21.98.22.24.05.04-.24s.07-.38.5-.6l.36.33c-.11.28-.44.51-.58.59l-.17.09.39,1.1.19-.04c.15-.03.59-.06.8.14l-.09.47h0Z"></path><path class="cls-1" d="m47.25,47.95l-3.53,2.67v-2.38l-3.75,2.38v-1.73l-3.67,2.23v.68l3.2-1.94v1.69l3.74-2.38v2.38l4.75-3.49-.43-.54h1.48v1.69l-.58-.61-5.91,4.61v-2.45l-3.6,2.31v-1.51l-3.31,2.09v.68l2.84-1.84v1.51l3.6-2.31v2.56l6.37-5.04,1.08,1.15v-3.32h-3.02l.72.9h0Zm-5.37-3.5v1.91l3.46-2.02v2.02l3.17-2.2-.4-.54h1.48v1.59l-.61-.61-4.25,3.14v-2.13l-3.82,2.38v-1.66l-3.53,2.05v.69l3.06-1.8v1.69l3.78-2.38v2.12l4.75-3.49,1.08,1.15v-3.21h-2.95l.68.86-1.98,1.41v-2.02l-3.46,2.02v-1.91l-4,2.16v.68l3.53-1.91h0Z"></path><path class="cls-1" d="m30.14,47.32c.16.14.28.21.58.25.3-.05.42-.12.58-.25v-6.02h3.11v-1.22h-3.11v-2.79h-1.15v2.79h-3.11v1.22h3.11v6.02h0Zm1.64.37c-.23.16-.72.42-1.06.46-.35-.05-.83-.3-1.06-.46v-5.9h-3.16v-2.17h3.16v-2.86h2.13v2.86h3.16v2.17h-3.16v5.9h0Z"></path><polygon class="cls-1" points="30.6 50.42 30.6 50.68 29.58 50.68 29.58 49.41 30.56 49.41 30.56 49.67 29.87 49.67 29.87 49.94 30.47 49.94 30.47 50.17 29.87 50.17 29.87 50.42 30.6 50.42 30.6 50.42"></polygon><polygon class="cls-1" points="31.93 49.69 31.5 49.69 31.5 50.68 31.21 50.68 31.21 49.69 30.79 49.69 30.79 49.41 31.93 49.41 31.93 49.69 31.93 49.69"></polygon><polygon class="cls-1" points="33.9 49.21 34.09 49.41 33.41 50.07 32.52 49.14 32.73 48.94 33.43 49.66 33.9 49.21 33.9 49.21"></polygon><path class="cls-1" d="m34.97,48.24c-.13-.03-.24-.06-.35-.08l-.35.49c.06.09.12.19.19.3l-.17.25c-.48-.76-.72-1.2-.72-1.2l.2-.28s.5.08,1.37.27l-.17.25h0Zm-.61-.14c-.31-.07-.48-.1-.48-.1,0,0,.08.15.25.42l.23-.33h0Z"></path><path class="cls-1" d="m35.43,46.49c.23.1.27.3.15.57l-.29.66-1.17-.52.26-.59c.12-.26.29-.32.48-.24.13.06.17.17.16.23.07-.1.21-.19.4-.1m-.97.55l.25.11.13-.3c.05-.11.03-.17-.05-.21-.08-.04-.15,0-.2.1l-.13.29h0Zm.87-.06c.05-.12.04-.19-.04-.23-.08-.04-.15,0-.21.12l-.17.38.25.11.17-.38h0Z"></path><path class="cls-1" d="m34.78,45.34c.1-.41.38-.62.79-.52.41.1.57.41.48.82-.1.41-.38.62-.79.52-.41-.1-.57-.41-.48-.82m1.01.24c.05-.23-.02-.42-.28-.48-.25-.06-.41.08-.46.31-.05.23.03.42.28.48.25.06.41-.07.46-.31"></path><path class="cls-1" d="m36.29,43.75c-.13.05-.28.12-.39.18v.04s-.02.32-.02.32l.38.03-.02.28-1.28-.09.04-.6c.02-.33.19-.51.48-.49.18.01.31.1.37.24.11-.06.29-.15.46-.23l-.02.32h0Zm-.68.52l.02-.31c.01-.17-.04-.25-.17-.26-.13,0-.19.06-.2.23l-.02.31.37.02h0Z"></path><polygon class="cls-1" points="26.34 44.19 26.05 44.22 26.11 44.82 25.87 44.84 25.81 44.24 25.33 44.28 25.3 43.99 26.58 43.88 26.67 44.88 26.4 44.9 26.34 44.19 26.34 44.19"></polygon><polygon class="cls-1" points="26.79 45.41 25.54 45.67 25.48 45.39 26.73 45.13 26.79 45.41 26.79 45.41"></polygon><path class="cls-1" d="m27.05,46.29c.17.46.04.76-.34.9-.39.15-.68.01-.85-.45l-.18-.49,1.2-.45.18.49h0Zm-.92.37c.09.25.25.34.48.25.23-.09.28-.25.19-.5l-.09-.24-.66.25.09.24h0Z"></path><polygon class="cls-1" points="27.17 48.67 26.94 48.81 26.4 47.95 27.48 47.26 28 48.1 27.78 48.24 27.41 47.65 27.18 47.8 27.5 48.3 27.3 48.43 26.98 47.92 26.78 48.05 27.17 48.67 27.17 48.67"></polygon><path class="cls-1" d="m28.31,49.15s.04,0,.09-.05c.06-.05.08-.14-.05-.29-.13-.14-.22-.16-.3-.09-.2.18.51.65.15.97-.18.16-.39.12-.65-.16-.27-.31-.26-.52-.09-.68,0,0,.09.04.22.17-.11.1-.09.2.04.36.14.15.21.17.28.1.19-.17-.52-.64-.14-.98.17-.15.39-.13.64.16.29.32.24.5.12.61-.07.06-.13.07-.13.07l-.18-.2h0Z"></path></g></g></svg>