<svg xmlns="http://www.w3.org/2000/svg" id="Capa_1" data-name="Capa 1" viewBox="0 0 293.51 97.08"><defs><style>      .cls-1 {        fill: #fff;      }    </style></defs><path class="cls-1" d="M133.68,11.31c-2.64-3.83-6.93-6.18-11.58-6.34-9.23,0-15.32,8.97-15.32,22.61,0,17.52,7.72,29.1,19.45,29.1,4.83,0,8.96-1.79,15.17-6.2,.15-3.17,.28-5.51,.28-7.16,0-12.42-3.31-25.54-8-32.01m-31.71,85.76h-3.72v-4.55c11.99-.41,20.41-3.18,28.14-9.25,7.26-5.89,12.23-14.14,14.06-23.31,.13-.97,.41-2.35,.55-4.14-11.45,8.27-15.71,10.21-22.61,10.21-14.89,0-25.92-13.23-25.92-31.16C92.46,15.17,106.93,0,125.82,0s31.44,15.03,31.44,40c0,32.82-23.59,57.08-55.3,57.08"></path><path class="cls-1" d="M85.46,57.67c-3.22,0-3.75,.13-3.75,1.48v8.99l.13,5.36v5.89c0,3.35,.13,4.82,.8,5.36l.53,.53c.43,.42,.67,1,.67,1.61,0,1.06-.67,1.88-2.41,2.67-4.02,1.74-12.73,4.15-22.11,6.03-4.54,.93-9.16,1.38-13.8,1.34-27.71-.03-45.52-17.44-45.52-44.9C0,22.85,23.44,2.21,56.66,2.21c9.51,0,19.02,1.88,26.11,5.23l-1.61,9.25c-.53,3.09-.93,3.62-2.28,3.62s-2.01-.81-2.01-2.41c-.13-5.11-10.71-9.93-21.7-9.93-23.04,0-38.57,16.35-38.57,40.85s13.93,42.33,34.43,42.33c5.26,.03,10.47-1.07,15.27-3.22v-2.14c0-25.18-.53-28.12-5.23-28.12h-7.9v-4.68h36.97v4.68h-4.68Z"></path><g><path class="cls-1" d="M171.93,49.89h2.26v6.56c-.03,.55,.06,1.1,.27,1.61,.7,.97,2.05,1.19,3.02,.49,.19-.14,.36-.3,.49-.49,.21-.51,.3-1.06,.27-1.61v-6.56h2.26v6.56c.05,.91-.13,1.82-.53,2.64-.65,1.17-1.9,1.74-3.75,1.74s-3.1-.58-3.75-1.74c-.39-.82-.58-1.73-.53-2.64v-6.56Z"></path><path class="cls-1" d="M182.76,49.89h2.33l4.24,7.44v-7.44h2.08v10.68h-2.23l-4.34-7.58v7.58h-2.08v-10.68Z"></path><rect class="cls-1" x="193.6" y="49.89" width="2.21" height="10.68"></rect><path class="cls-1" d="M204.28,49.89h2.31l-3.65,10.68h-2.1l-3.61-10.68h2.39l2.3,8.09,2.35-8.09Z"></path><path class="cls-1" d="M215.89,51.78h-5.64v2.26h5.18v1.86h-5.18v2.75h5.91v1.9h-8.08v-10.66h7.81v1.89Z"></path><g><path class="cls-1" d="M220.2,51.75v2.87h2.39c.37,.02,.74-.04,1.08-.18,.44-.23,.69-.71,.63-1.2,.06-.51-.17-1.02-.61-1.3-.33-.14-.68-.21-1.03-.19h-2.47Zm4.61-1.58c.39,.16,.73,.42,1,.74,.22,.27,.4,.57,.53,.9,.14,.36,.2,.74,.19,1.12,0,.52-.14,1.03-.38,1.49-.27,.5-.72,.88-1.27,1.03,.43,.15,.8,.45,1.05,.84,.24,.52,.35,1.1,.31,1.67v.72c-.01,.33,0,.66,.06,.99,.04,.25,.19,.48,.41,.61v.27h-2.47c-.06-.19-.11-.38-.15-.58-.06-.3-.09-.61-.09-.92v-.99c.03-.48-.1-.96-.37-1.36-.37-.27-.82-.39-1.27-.34h-2.17v4.18h-2.19v-10.68h5.11c.58,0,1.15,.1,1.68,.3"></path><path class="cls-1" d="M230.3,57.26c.03,.4,.18,.77,.41,1.09,.5,.5,1.2,.74,1.9,.67,.44,.01,.89-.05,1.31-.18,.57-.14,.97-.65,.96-1.24,0-.34-.18-.65-.47-.81-.46-.24-.96-.41-1.48-.5l-1.15-.25c-.82-.13-1.61-.41-2.33-.81-.74-.53-1.14-1.4-1.08-2.3-.02-.91,.37-1.78,1.06-2.38,.88-.69,1.99-1.03,3.1-.94,1.04-.03,2.07,.28,2.91,.9,.81,.62,1.28,1.58,1.27,2.6h-2.14c0-.58-.34-1.11-.86-1.37-.42-.19-.87-.28-1.33-.27-.5-.02-.99,.1-1.42,.35-.34,.2-.54,.57-.53,.96,0,.36,.19,.7,.52,.86,.45,.2,.93,.35,1.42,.44l1.88,.44c.66,.13,1.29,.39,1.85,.78,.65,.53,1.01,1.34,.96,2.17,.02,.94-.4,1.84-1.14,2.42-.91,.7-2.04,1.05-3.19,.97-1.18,.06-2.36-.27-3.32-.96-.8-.63-1.25-1.6-1.21-2.61h2.1v-.03Z"></path></g><rect class="cls-1" x="238.71" y="49.89" width="2.21" height="10.68"></rect><path class="cls-1" d="M245.35,51.75v6.96h2.05c1,.04,1.9-.6,2.2-1.55,.24-.65,.35-1.35,.34-2.04,.05-.86-.13-1.73-.52-2.5-.47-.64-1.25-.97-2.04-.87h-2.03Zm4.09-1.62c.74,.24,1.38,.72,1.82,1.36,.36,.52,.62,1.11,.77,1.73,.13,.58,.2,1.18,.21,1.77,.04,1.26-.25,2.5-.86,3.6-.71,1.3-2.1,2.07-3.57,1.99h-4.59v-10.67h4.59c.55-.01,1.11,.06,1.64,.22"></path><path class="cls-1" d="M256.47,56.52h2.73l-1.34-4.19-1.39,4.19Zm.15-6.63h2.53l3.78,10.68h-2.42l-.71-2.2h-3.93l-.72,2.2h-2.33l3.81-10.68Z"></path><path class="cls-1" d="M266.53,51.75v6.96h2.05c1,.04,1.9-.6,2.2-1.55,.24-.65,.35-1.34,.34-2.04,.05-.86-.13-1.73-.52-2.5-.47-.64-1.25-.97-2.04-.87h-2.04Zm4.09-1.62c.74,.24,1.38,.72,1.82,1.36,.36,.52,.62,1.11,.75,1.73,.13,.58,.2,1.18,.21,1.77,.04,1.26-.25,2.5-.86,3.6-.71,1.3-2.1,2.07-3.57,1.99h-4.61v-10.67h4.61c.56-.01,1.12,.06,1.65,.22"></path><path class="cls-1" d="M283.12,51.78h-5.64v2.26h5.18v1.86h-5.18v2.75h5.91v1.9h-8.08v-10.66h7.81v1.89Z"></path><g><path class="cls-1" d="M286.79,57.26c.04,.39,.17,.77,.4,1.09,.5,.5,1.2,.74,1.9,.67,.44,.01,.89-.05,1.31-.18,.57-.14,.96-.66,.95-1.24,0-.34-.18-.65-.47-.81-.46-.24-.96-.41-1.48-.5l-1.15-.25c-.82-.13-1.62-.41-2.35-.81-.74-.53-1.14-1.4-1.08-2.3-.02-.91,.37-1.78,1.05-2.38,.88-.69,1.99-1.03,3.1-.94,1.04-.03,2.07,.28,2.91,.9,.81,.62,1.28,1.58,1.27,2.6h-2.14c0-.58-.34-1.11-.86-1.37-.42-.19-.87-.28-1.33-.27-.5-.02-.99,.1-1.42,.35-.34,.2-.54,.57-.53,.96,0,.36,.19,.7,.52,.86,.45,.2,.93,.35,1.42,.44l1.88,.44c.66,.13,1.29,.39,1.85,.78,.65,.53,1.01,1.34,.96,2.17,.02,.94-.4,1.83-1.14,2.42-.91,.7-2.04,1.05-3.19,.97-1.18,.07-2.35-.27-3.31-.96-.8-.63-1.25-1.6-1.21-2.61h2.14v-.04Z"></path><path class="cls-1" d="M177.38,69.89c-.34-.25-.76-.38-1.18-.35h-2.01v3.15h2.01c.43,.02,.85-.11,1.18-.38,.31-.32,.46-.76,.43-1.21,.05-.44-.11-.89-.43-1.2m1.71,3.84c-.77,.57-1.72,.85-2.67,.78h-2.21v3.84h-2.22v-10.66h4.58c.92-.05,1.82,.25,2.53,.83,.68,.67,1.03,1.61,.94,2.56,.09,.98-.25,1.96-.94,2.66"></path><path class="cls-1" d="M188.46,64.66l-2.2,2.17h-1.49l1.39-2.17h2.3Zm-6.75,3.01h2.26v6.56c-.03,.55,.06,1.1,.27,1.61,.34,.64,1.04,1,1.76,.9,.71,.1,1.41-.26,1.74-.9,.21-.51,.3-1.06,.27-1.61v-6.56h2.27v6.56c.05,.91-.13,1.82-.53,2.64-.65,1.15-1.9,1.74-3.75,1.74s-3.1-.58-3.77-1.74c-.39-.82-.58-1.73-.53-2.64v-6.56h.01Z"></path><path class="cls-1" d="M194.69,73.65v2.85h2.59c.37,.02,.74-.05,1.08-.19,.48-.26,.76-.79,.69-1.33,.03-.48-.24-.94-.68-1.14-.34-.13-.7-.19-1.06-.18h-2.61v-.02Zm0-4.12v2.35h2.59c.4,.02,.79-.08,1.14-.27,.3-.21,.46-.57,.43-.93,.05-.42-.19-.82-.58-.99-.41-.12-.83-.17-1.26-.16h-2.32Zm5.8-.72c.33,.48,.5,1.05,.49,1.62,.03,.57-.15,1.12-.5,1.57-.23,.26-.5,.46-.81,.61,.51,.17,.94,.5,1.24,.94,.29,.47,.43,1.01,.41,1.57,0,.6-.16,1.19-.47,1.7-.2,.32-.46,.6-.75,.84-.35,.27-.77,.46-1.21,.53-.5,.1-1,.15-1.51,.15h-4.81v-10.67h5.15c1.05-.08,2.08,.34,2.78,1.14"></path></g><path class="cls-1" d="M203.3,67.67h2.23v8.76h5.33v1.92h-7.56v-10.68Z"></path><rect class="cls-1" x="212.3" y="67.67" width="2.21" height="10.66"></rect><path class="cls-1" d="M217.82,68.79c.86-.88,2.05-1.36,3.28-1.31,1.52-.12,2.99,.55,3.9,1.77,.42,.58,.68,1.27,.74,1.99h-2.23c-.1-.42-.29-.81-.55-1.15-.46-.48-1.11-.74-1.77-.69-.75-.02-1.46,.35-1.88,.97-.51,.83-.75,1.8-.69,2.78-.07,.95,.19,1.9,.72,2.69,.44,.57,1.13,.9,1.85,.89,.68,.04,1.33-.24,1.76-.77,.26-.37,.45-.8,.55-1.24h2.21c-.15,1.08-.67,2.09-1.46,2.84-.82,.74-1.9,1.13-3.01,1.09-1.35,.07-2.67-.47-3.57-1.48-.92-1.15-1.38-2.59-1.3-4.06-.12-1.58,.41-3.13,1.46-4.31"></path><path class="cls-1" d="M230.14,74.32h2.73l-1.34-4.19-1.39,4.19Zm.15-6.65h2.53l3.78,10.66h-2.42l-.71-2.19h-3.92l-.72,2.19h-2.34l3.81-10.66Z"></path><path class="cls-1" d="M239.5,75.06c.03,.4,.18,.77,.41,1.09,.5,.5,1.2,.74,1.9,.67,.45,.01,.89-.05,1.32-.18,.57-.14,.97-.65,.96-1.24,0-.34-.18-.65-.47-.81-.46-.24-.96-.41-1.48-.5l-1.15-.25c-.82-.13-1.61-.41-2.33-.81-.74-.52-1.15-1.4-1.08-2.3-.02-.91,.37-1.78,1.05-2.38,.88-.69,1.99-1.03,3.1-.94,1.04-.03,2.06,.28,2.91,.89,.81,.62,1.28,1.58,1.27,2.6h-2.14c0-.58-.34-1.11-.86-1.37-.42-.19-.87-.28-1.33-.27-.49-.02-.97,.1-1.4,.34-.34,.21-.54,.58-.53,.97,0,.36,.19,.7,.52,.86,.45,.2,.93,.35,1.42,.44l1.88,.44c.66,.13,1.29,.39,1.85,.78,.65,.53,1.01,1.34,.96,2.17,.02,.94-.4,1.83-1.14,2.42-.91,.7-2.04,1.05-3.19,.97-1.18,.07-2.35-.27-3.31-.96-.8-.63-1.25-1.6-1.21-2.61h2.08v-.02Z"></path><path class="cls-1" d="M171.89,85.47h2.35l4.22,7.44v-7.44h2.08v10.66h-2.23l-4.34-7.56v7.56h-2.08v-10.66Z"></path><path class="cls-1" d="M189.64,93.56c.57-.81,.84-1.79,.78-2.78,.07-.99-.21-1.97-.78-2.78-.97-1.17-2.7-1.32-3.87-.35-.12,.1-.24,.22-.34,.34-1.06,1.7-1.06,3.85,0,5.55,.99,1.17,2.74,1.31,3.91,.31,.11-.09,.21-.19,.3-.3m1.39,1.62c-2.04,1.65-4.96,1.65-7,0-1.14-1.17-1.73-2.77-1.62-4.4-.12-1.63,.47-3.24,1.62-4.4,2.04-1.65,4.96-1.65,7,0,1.15,1.17,1.73,2.77,1.61,4.4,.11,1.63-.47,3.23-1.61,4.4"></path><path class="cls-1" d="M206.35,87.36h-5.64v2.26h5.18v1.86h-5.18v2.73h5.91v1.92h-8.08v-10.66h7.81v1.89Z"></path><path class="cls-1" d="M210.02,92.84c.03,.4,.18,.77,.41,1.09,.5,.5,1.2,.74,1.9,.67,.44,.01,.89-.05,1.31-.18,.57-.14,.97-.65,.96-1.24,0-.34-.18-.65-.47-.81-.46-.24-.96-.41-1.48-.5l-1.15-.25c-.82-.14-1.61-.41-2.33-.81-.74-.52-1.15-1.4-1.08-2.3-.02-.91,.37-1.78,1.06-2.38,.88-.69,1.99-1.03,3.1-.94,1.04-.03,2.06,.28,2.91,.89,.81,.62,1.28,1.58,1.27,2.6h-2.14c0-.58-.34-1.11-.86-1.36-.42-.19-.87-.28-1.33-.27-.49-.02-.98,.09-1.4,.34-.34,.21-.54,.58-.53,.97,0,.36,.19,.7,.52,.86,.45,.2,.93,.35,1.42,.44l1.88,.44c.66,.13,1.29,.39,1.85,.78,.65,.53,1.01,1.34,.96,2.17,.02,.94-.4,1.83-1.14,2.42-.91,.7-2.05,1.04-3.19,.96-1.18,.07-2.34-.26-3.31-.94-.8-.62-1.26-1.6-1.21-2.61h2.07v-.04Z"></path><path class="cls-1" d="M226.23,85.47v1.89h-3.19v8.77h-2.24v-8.77h-3.2v-1.89h8.63Z"></path><path class="cls-1" d="M229.45,92.1h2.73l-1.34-4.19-1.39,4.19Zm.15-6.63h2.53l3.78,10.66h-2.42l-.71-2.19h-3.93l-.72,2.19h-2.33l3.81-10.66Z"></path><path class="cls-1" d="M244.05,85.47v1.89h-3.19v8.77h-2.24v-8.77h-3.21v-1.89h8.64Z"></path><path class="cls-1" d="M247.27,92.1h2.73l-1.34-4.19-1.39,4.19Zm.15-6.63h2.53l3.78,10.66h-2.42l-.71-2.19h-3.92l-.72,2.19h-2.34l3.81-10.66Z"></path><path class="cls-1" d="M255.17,85.47h2.23v8.74h5.33v1.92h-7.56v-10.66Z"></path><path class="cls-1" d="M272.12,87.36h-5.64v2.26h5.18v1.86h-5.18v2.73h5.91v1.92h-8.09v-10.66h7.83v1.89Z"></path><path class="cls-1" d="M275.79,92.84c.03,.4,.18,.77,.41,1.09,.5,.5,1.2,.74,1.9,.67,.44,.01,.89-.05,1.31-.18,.57-.14,.96-.66,.95-1.24,0-.34-.18-.65-.47-.81-.46-.24-.96-.41-1.48-.5l-1.15-.25c-.82-.14-1.61-.41-2.33-.81-.74-.52-1.15-1.4-1.08-2.3-.02-.91,.37-1.78,1.06-2.38,.88-.69,1.98-1.03,3.1-.94,1.04-.03,2.06,.28,2.91,.89,.81,.62,1.28,1.58,1.27,2.6h-2.14c0-.58-.34-1.11-.86-1.36-.42-.19-.87-.28-1.33-.27-.49-.02-.98,.09-1.4,.34-.34,.21-.54,.58-.53,.97,0,.36,.19,.7,.52,.86,.45,.2,.93,.35,1.42,.44l1.88,.44c.66,.13,1.29,.39,1.85,.78,.65,.53,1.01,1.34,.96,2.17,.02,.94-.4,1.84-1.14,2.42-.91,.7-2.05,1.04-3.19,.96-1.18,.07-2.34-.26-3.31-.94-.8-.62-1.26-1.6-1.21-2.61h2.08v-.04Z"></path></g></svg>