<svg xmlns="http://www.w3.org/2000/svg" viewBox="0 0 71.68 54.76"><defs><style>.cls-1{fill:#fff;}</style></defs><title>Recurso 1pucv</title><g id="Capa_2" data-name="Capa 2"><g id="Capa_1-2" data-name="Capa 1"><path class="cls-1" d="M22.35,54.47a3.42,3.42,0,0,1-.36.14l-.48.11a3.31,3.31,0,0,1-.55,0,3.45,3.45,0,0,1-1.14-.18,2.44,2.44,0,0,1-.91-.56,2.85,2.85,0,0,1-.59-.93,3.77,3.77,0,0,1,0-2.48,2.76,2.76,0,0,1,.6-.93,2.59,2.59,0,0,1,.93-.57,3.44,3.44,0,0,1,1.18-.2,3.81,3.81,0,0,1,1.69.38,1.41,1.41,0,0,0-.1.31q0,.19-.06.33l0,0a2.28,2.28,0,0,0-.22-.23L22,49.48a2.68,2.68,0,0,0-.42-.19,1.72,1.72,0,0,0-.52-.08,2.18,2.18,0,0,0-.85.16,1.8,1.8,0,0,0-.69.48,2.39,2.39,0,0,0-.45.82A4.18,4.18,0,0,0,19,53a2.39,2.39,0,0,0,.45.82,1.91,1.91,0,0,0,.69.48,2.37,2.37,0,0,0,.85.15,1.72,1.72,0,0,0,.52-.07,3.68,3.68,0,0,0,.44-.17,3.17,3.17,0,0,0,.36-.23l.27-.21,0,0-.07.48a1,1,0,0,1-.23.15"></path><path class="cls-1" d="M26.23,52.53c-.68-.77-1.35-1.53-2-2.28,0,.15,0,.36,0,.61v1.48c0,.17,0,.35,0,.54s0,.37,0,.56,0,.37,0,.54,0,.3,0,.43a1.29,1.29,0,0,0,0,.25l-.28,0-.29,0a2.7,2.7,0,0,0,0-.31c0-.14,0-.32,0-.52s0-.43,0-.68l0-.72c0-.24,0-.47,0-.7s0-.44,0-.62V49.76c0-.38,0-.66,0-.85H24c.32.36.65.75,1,1.16L26,51.29l1,1.15.84.91V52.24c0-.58,0-1.14,0-1.68s0-1.06-.05-1.54a1,1,0,0,0,.27,0,.91.91,0,0,0,.25,0c0,.12,0,.3,0,.54s0,.5,0,.77,0,.54,0,.81,0,.47,0,.63v.49c0,.19,0,.38,0,.58s0,.41,0,.62V54c0,.18,0,.33,0,.46v.27h-.11c-.6-.72-1.24-1.47-1.91-2.23"></path><path class="cls-1" d="M30.52,52.1H31.8l.44,0L31.37,50ZM34,54.66l-.21,0h-.41l-.21,0A3.44,3.44,0,0,0,33,54.2c-.06-.18-.13-.36-.2-.56s-.15-.39-.23-.59l-.22-.57h-2c-.17.43-.32.83-.46,1.22s-.23.71-.3,1l-.29,0-.29,0c.42-1,.84-1.91,1.23-2.86s.81-1.91,1.21-2.89h.15l.41,1c.14.37.29.74.44,1.12l.45,1.13c.16.37.3.72.43,1s.25.6.36.85a5.1,5.1,0,0,0,.26.58"></path><rect class="cls-1" x="34.44" y="52.49" width="1.94" height="0.51"></rect><path class="cls-1" d="M41.28,54.47a3.42,3.42,0,0,1-.36.14l-.48.11a3.36,3.36,0,0,1-.56,0,3.39,3.39,0,0,1-1.13-.18,2.44,2.44,0,0,1-.91-.56,2.69,2.69,0,0,1-.59-.93,3.77,3.77,0,0,1,0-2.48,2.47,2.47,0,0,1,1.53-1.5,3.4,3.4,0,0,1,1.18-.2,3.81,3.81,0,0,1,1.69.38,1.41,1.41,0,0,0-.1.31q0,.19-.06.33l-.05,0a1.15,1.15,0,0,0-.22-.23,3,3,0,0,0-.32-.24,2.68,2.68,0,0,0-.42-.19,1.72,1.72,0,0,0-.52-.08,2.15,2.15,0,0,0-.85.16,1.8,1.8,0,0,0-.69.48,2.23,2.23,0,0,0-.45.82A4.18,4.18,0,0,0,38,53a2.23,2.23,0,0,0,.45.82,1.91,1.91,0,0,0,.69.48,2.34,2.34,0,0,0,.85.15,1.72,1.72,0,0,0,.52-.07,4.49,4.49,0,0,0,.44-.17,3.17,3.17,0,0,0,.36-.23l.26-.21,0,0-.07.48a1.31,1.31,0,0,1-.23.15"></path><path class="cls-1" d="M42.56,50.22c0-.22,0-.43,0-.65s0-.41,0-.61,0-.36,0-.49a1.6,1.6,0,0,0,.71,0c0,.13,0,.3,0,.49s0,.39,0,.6,0,.43,0,.64,0,.41,0,.59v.63h0a1.62,1.62,0,0,1,.52-.55,1.35,1.35,0,0,1,.73-.2,1.68,1.68,0,0,1,.44.07.9.9,0,0,1,.4.23,1.07,1.07,0,0,1,.3.43,2,2,0,0,1,.11.7c0,.24,0,.48,0,.73s0,.51,0,.79v.54a2.26,2.26,0,0,0,0,.26,1.93,1.93,0,0,0,0,.24l-.33,0-.33,0c0-.29,0-.58,0-.88s0-.61,0-.93v-.5a1.59,1.59,0,0,0-.23-.93.73.73,0,0,0-.62-.32.92.92,0,0,0-.8.35,1.7,1.7,0,0,0-.26,1c0,.15,0,.33,0,.53s0,.41,0,.62,0,.4,0,.59,0,.35,0,.47l-.36,0-.35,0c0-.13,0-.29,0-.48s0-.39,0-.61,0-.43,0-.64,0-.43,0-.61V50.83c0-.18,0-.39,0-.61"></path><path class="cls-1" d="M47,51.52c0-.27,0-.53-.05-.76a3.12,3.12,0,0,0,.35,0,2.88,2.88,0,0,0,.35,0c0,.23,0,.49,0,.76s0,.53,0,.77v.86c0,.24,0,.5,0,.77s0,.52,0,.74l-.35,0-.35,0c0-.22,0-.47.05-.74s0-.53,0-.77v-.86c0-.24,0-.5,0-.77m0-2.49a.38.38,0,0,1,.28-.12.36.36,0,0,1,.28.12.42.42,0,0,1,.12.3.4.4,0,0,1-.12.29.34.34,0,0,1-.28.13.35.35,0,0,1-.28-.13.39.39,0,0,1-.11-.29.41.41,0,0,1,.11-.3"></path><path class="cls-1" d="M49.21,50.22c0-.22,0-.43,0-.65s0-.41,0-.61,0-.36,0-.49a1.7,1.7,0,0,0,.35,0,1.77,1.77,0,0,0,.35,0c0,.13,0,.3,0,.49s0,.4,0,.61,0,.43,0,.65v2.71c0,.21,0,.43,0,.64s0,.42,0,.61,0,.35,0,.48l-.35,0-.35,0q0-.19,0-.48c0-.19,0-.39,0-.61s0-.43,0-.64V50.22"></path><path class="cls-1" d="M52.17,51.08a1.07,1.07,0,0,0-.32.35,1.46,1.46,0,0,0-.2.46,2.72,2.72,0,0,0-.08.47l.5,0h1l.52,0a2.56,2.56,0,0,0,0-.47,1.45,1.45,0,0,0-.14-.46.9.9,0,0,0-.29-.35.75.75,0,0,0-.49-.14.81.81,0,0,0-.49.14m-.86.17a1.62,1.62,0,0,1,1.33-.58,1.74,1.74,0,0,1,.72.14,1.53,1.53,0,0,1,.5.36,1.33,1.33,0,0,1,.3.53,2,2,0,0,1,.1.65.86.86,0,0,1,0,.16.86.86,0,0,1,0,.16H51.55s0,.07,0,.12v.11a2,2,0,0,0,.09.6,1.25,1.25,0,0,0,.69.8,1.26,1.26,0,0,0,.57.12,1.75,1.75,0,0,0,.32,0l.32-.13a1.41,1.41,0,0,0,.29-.18,1.32,1.32,0,0,0,.24-.23l0,0-.05.4a1.89,1.89,0,0,1-.58.34,2,2,0,0,1-.72.14,2.39,2.39,0,0,1-.77-.13,1.91,1.91,0,0,1-.6-.4A2.12,2.12,0,0,1,51,53.6a2.15,2.15,0,0,1-.13-.77,2.5,2.5,0,0,1,.45-1.58"></path><path class="cls-1" d="M5,37.3a3.07,3.07,0,0,1-1.82.57C1.35,37.87,0,36.55,0,34.24S1.35,30.6,3.28,30.6a4,4,0,0,1,1.89.47,4,4,0,0,0-.18.79l0,0A2.22,2.22,0,0,0,3.28,31C1.91,31,.86,32,.86,34.24s1,3.26,2.42,3.26a2.74,2.74,0,0,0,1.77-.84l0,0Z"></path><path class="cls-1" d="M7.89,37.52c1,0,1.36-1.07,1.36-2.2s-.33-2.21-1.36-2.21-1.35,1.07-1.35,2.21.32,2.2,1.35,2.2m0-4.73c1,0,2.13.68,2.13,2.53S8.9,37.84,7.89,37.84s-2.12-.68-2.12-2.52,1.11-2.53,2.12-2.53"></path><path class="cls-1" d="M11,34.79c0-.61,0-1.32-.07-1.9a1.83,1.83,0,0,0,.4,0,1.93,1.93,0,0,0,.35,0q0,.4,0,.81h0a1.42,1.42,0,0,1,1.3-.92,1.32,1.32,0,0,1,1.27,1h0a1.51,1.51,0,0,1,1.4-1c.76,0,1.34.46,1.34,1.61,0,.47,0,1,0,2.25,0,.36,0,.68,0,1.11a1.15,1.15,0,0,0-.37-.06,1.27,1.27,0,0,0-.39.06c0-.38.09-1.4.09-3.22,0-.68-.23-1.22-.91-1.22a1,1,0,0,0-.87.48c-.18.31-.21.41-.21,2.34,0,.59,0,1,0,1.62a1.31,1.31,0,0,0-.38-.06,1.32,1.32,0,0,0-.39.06c.06-.77.08-1.57.08-2.31,0-1.26,0-1.34-.16-1.66a.87.87,0,0,0-.72-.47c-.75,0-1.12.61-1.12,1.67v.86c0,.61,0,1.33.07,1.91a1.32,1.32,0,0,0-.39-.06,1.39,1.39,0,0,0-.4.06c.06-.58.07-1.3.07-1.91Z"></path><path class="cls-1" d="M18.49,34.79c0-.61,0-1.32-.07-1.9a1.9,1.9,0,0,0,.4,0,1.74,1.74,0,0,0,.39,0c-.05.58-.07,1.29-.07,1.9v1.05c0,.61,0,1.32.07,1.9a1.74,1.74,0,0,0-.39-.05,1.9,1.9,0,0,0-.4.05c.06-.58.07-1.29.07-1.9Zm.33-4.19a.53.53,0,1,1-.45.52.49.49,0,0,1,.45-.52"></path><path class="cls-1" d="M20.65,36.77a1.22,1.22,0,0,0,1,.7.85.85,0,0,0,.85-.91c0-1.26-2.06-.52-2.06-2.24a1.4,1.4,0,0,1,1.45-1.53,2.53,2.53,0,0,1,1,.28,2.5,2.5,0,0,0-.21.72h-.11a.83.83,0,0,0-.77-.63A.77.77,0,0,0,21,34c0,1.32,2.06.5,2.06,2.22a1.59,1.59,0,0,1-1.57,1.6,2,2,0,0,1-1.13-.33,2.58,2.58,0,0,0,.17-.74Z"></path><path class="cls-1" d="M24.32,34.79c0-.61,0-1.32-.07-1.9a1.83,1.83,0,0,0,.4,0,1.74,1.74,0,0,0,.39,0c-.05.58-.07,1.29-.07,1.9v1.05c0,.61,0,1.32.07,1.9a1.74,1.74,0,0,0-.39-.05,1.83,1.83,0,0,0-.4.05c.05-.58.07-1.29.07-1.9Zm.33-4.19a.53.53,0,1,1-.45.52.49.49,0,0,1,.45-.52"></path><path class="cls-1" d="M29,30.5a.58.58,0,0,1,.39-.24.31.31,0,0,1,.29.32.58.58,0,0,1-.31.48L28.06,32H27.7Zm-.69,7c1,0,1.36-1.07,1.36-2.2s-.33-2.21-1.36-2.21-1.35,1.07-1.35,2.21.32,2.2,1.35,2.2m0-4.73c1,0,2.12.68,2.12,2.53s-1.11,2.52-2.12,2.52-2.12-.68-2.12-2.52,1.11-2.53,2.12-2.53"></path><path class="cls-1" d="M33.28,33.31c-.81,0-1.18.61-1.18,1.67v.86c0,.61,0,1.33.07,1.91a1.3,1.3,0,0,0-.78,0c.05-.58.07-1.3.07-1.91V34.79c0-.61,0-1.32-.07-1.9a1.39,1.39,0,0,0,.74,0q0,.4,0,.81h0a1.54,1.54,0,0,1,1.4-.91c.64,0,1.4.36,1.4,1.76,0,.58,0,1.19,0,1.88,0,.45,0,.88,0,1.32a1.24,1.24,0,0,0-.37-.06,1.13,1.13,0,0,0-.36.06c0-.75.06-1.49.06-2.27v-.62c0-1-.37-1.55-.95-1.55"></path><path class="cls-1" d="M43.79,37.88c-1.33-1.82-2.92-3.77-4.42-5.62,0,.37,0,1,0,2.06,0,.88,0,3,.08,3.42a1.06,1.06,0,0,0-.31-.05,1.25,1.25,0,0,0-.32.05c.07-.47.18-3.08.18-4.42s0-2.26,0-2.72h.13c1.43,1.8,3.36,4.25,4.43,5.5,0-1.82,0-3.8-.07-5.37a1,1,0,0,0,.29.05.87.87,0,0,0,.28-.05c-.05.6-.14,2.61-.14,3.41,0,1,0,3.28,0,3.74Z"></path><path class="cls-1" d="M47.72,35.18c-.6.24-1.83.17-1.83,1.27,0,.64.38,1,.76,1a1.28,1.28,0,0,0,1-.71Zm-2.16-1.8A2,2,0,0,1,47,32.79a1.37,1.37,0,0,1,1.41,1.5c0,.76,0,1.51,0,2.37,0,.33,0,.75.34.75a.31.31,0,0,0,.18,0v.22a1.31,1.31,0,0,1-.56.14c-.37,0-.56-.28-.6-.63a1.67,1.67,0,0,1-1.37.74,1.19,1.19,0,0,1-1.16-1.25,1.33,1.33,0,0,1,1.23-1.39c1.27-.23,1.31-.31,1.31-.71,0-.68-.26-1.28-1-1.28a1.21,1.21,0,0,0-1.1.69h-.1Z"></path><path class="cls-1" d="M51.78,32.79a2.11,2.11,0,0,1,1.4.44,3.47,3.47,0,0,0-.19.67h-.07a1.35,1.35,0,0,0-1.12-.79c-1.06,0-1.48,1-1.48,2.2s.54,2.11,1.51,2.11a1.84,1.84,0,0,0,1.31-.72l0,0c0,.16,0,.33,0,.5a2.33,2.33,0,0,1-1.46.61c-1,0-2.12-.7-2.12-2.52a2.25,2.25,0,0,1,2.23-2.53"></path><path class="cls-1" d="M54.44,34.79c0-.61,0-1.32-.07-1.9a1.59,1.59,0,0,0,.79,0c-.06.58-.07,1.29-.07,1.9v1.05c0,.61,0,1.32.07,1.9a1.59,1.59,0,0,0-.79,0c.05-.58.07-1.29.07-1.9Zm.32-4.19a.53.53,0,1,1-.44.52.49.49,0,0,1,.44-.52"></path><path class="cls-1" d="M58.41,37.52c1,0,1.35-1.07,1.35-2.2s-.32-2.21-1.35-2.21-1.35,1.07-1.35,2.21.32,2.2,1.35,2.2m0-4.73c1,0,2.12.68,2.12,2.53s-1.11,2.52-2.12,2.52-2.12-.68-2.12-2.52,1.11-2.53,2.12-2.53"></path><path class="cls-1" d="M63.4,33.31c-.81,0-1.18.61-1.18,1.67v.86c0,.61,0,1.33.07,1.91a1.32,1.32,0,0,0-.39-.06,1.44,1.44,0,0,0-.4.06c.06-.58.07-1.3.07-1.91V34.79c0-.61,0-1.32-.07-1.9a1.9,1.9,0,0,0,.4,0,1.82,1.82,0,0,0,.35,0q0,.4,0,.81h0a1.54,1.54,0,0,1,1.39-.91c.65,0,1.4.36,1.4,1.76,0,.58,0,1.19,0,1.88,0,.45,0,.88,0,1.32a1.24,1.24,0,0,0-.37-.06,1.13,1.13,0,0,0-.36.06c0-.75.06-1.49.06-2.27v-.62c0-1-.37-1.55-.95-1.55"></path><path class="cls-1" d="M68.61,35.18c-.6.24-1.83.17-1.83,1.27,0,.64.38,1,.76,1a1.25,1.25,0,0,0,1-.71Zm-2.16-1.8a2,2,0,0,1,1.41-.59,1.37,1.37,0,0,1,1.41,1.5c0,.76,0,1.51,0,2.37,0,.33,0,.75.34.75a.31.31,0,0,0,.18,0v.22a1.31,1.31,0,0,1-.56.14c-.37,0-.56-.28-.6-.63a1.67,1.67,0,0,1-1.37.74,1.18,1.18,0,0,1-1.16-1.25A1.33,1.33,0,0,1,67.3,35.2c1.26-.23,1.31-.31,1.31-.71,0-.68-.26-1.28-1-1.28a1.2,1.2,0,0,0-1.1.69h-.1Z"></path><path class="cls-1" d="M71,33c0-.94,0-2.25-.07-2.93a1.74,1.74,0,0,0,.39.05,1.9,1.9,0,0,0,.4-.05c-.06.68-.07,2-.07,2.93v1.84c0,.93,0,2.24.07,2.92a1.9,1.9,0,0,0-.4-.05,1.74,1.74,0,0,0-.39.05c0-.68.07-2,.07-2.92Z"></path><path class="cls-1" d="M8.7,46.33c.9,0,1.3-1.15,1.3-2.26,0-1.28-.45-2-1.28-2s-1.23,1-1.23,2.2c0,1.62.64,2.06,1.21,2.06M10,45.61h0A1.62,1.62,0,0,1,8.5,46.7c-.89,0-1.78-.75-1.78-2.49s1-2.57,1.88-2.57a1.37,1.37,0,0,1,1.34,1h0c0-1.28,0-2.88,0-3.75a3,3,0,0,0,.39.05,3,3,0,0,0,.39-.05c-.07.85-.1,3.51-.1,5.25,0,.93,0,1.63,0,2.44a2.45,2.45,0,0,0-.35-.05,2.42,2.42,0,0,0-.33.05Z"></path><path class="cls-1" d="M12.31,43.73l1.14,0c.39,0,.8,0,1.16,0,0-.73-.16-1.76-1.07-1.76s-1.18,1-1.23,1.76m1.21-2.09a1.84,1.84,0,0,1,1.81,2.08c0,.13,0,.26,0,.39l-1.87,0-1.14,0c0,.1,0,.2,0,.29,0,1.05.54,1.88,1.51,1.88a1.82,1.82,0,0,0,1.31-.73l0,0-.05.49a2.29,2.29,0,0,1-1.46.62,2.18,2.18,0,0,1-2.12-2.38c0-1.65.72-2.68,2-2.68"></path><path class="cls-1" d="M20.45,40.83l-.95,2.58.94,0,1,0Zm.29-1.37c.86,2.36,2.17,6,2.63,7.14a2.19,2.19,0,0,0-.93,0c-.16-.7-.58-1.82-.9-2.72l-1.14,0-1.07,0c-.36,1-.7,2.08-.84,2.72a1.32,1.32,0,0,0-.33-.05,1.25,1.25,0,0,0-.32.05c.93-2.38,1.84-4.74,2.73-7.14Z"></path><path class="cls-1" d="M26.11,41.64a2.12,2.12,0,0,1,1.41.45,3.28,3.28,0,0,0-.19.67h-.07A1.35,1.35,0,0,0,26.14,42c-1.06,0-1.48.94-1.48,2.2s.54,2.11,1.51,2.11a1.82,1.82,0,0,0,1.31-.73l0,0c0,.16,0,.33-.05.49A2.29,2.29,0,0,1,26,46.7c-1,0-2.12-.71-2.12-2.53a2.25,2.25,0,0,1,2.22-2.53"></path><path class="cls-1" d="M30.56,42.58a.63.63,0,0,0-.43-.16c-.56,0-.89.61-.89,1.41,0,1.77,0,2.3,0,2.77a1.34,1.34,0,0,0-.35-.05,1.72,1.72,0,0,0-.37.05c0-.5,0-1.29,0-2.43v-.32c0-.53,0-1.23,0-2.1a1.72,1.72,0,0,0,.37,0,1.34,1.34,0,0,0,.35,0c0,.48,0,.73,0,1h0c.33-.73.75-1.1,1.15-1.1a.62.62,0,0,1,.28.06,3.39,3.39,0,0,0-.06.83Z"></path><path class="cls-1" d="M31.9,43.73l1.14,0,1.16,0C34.2,43,34,42,33.13,42S32,43,31.9,43.73m1.21-2.09a1.84,1.84,0,0,1,1.81,2.08c0,.13,0,.26,0,.39l-1.87,0-1.15,0c0,.1,0,.2,0,.29,0,1.05.55,1.88,1.52,1.88a1.82,1.82,0,0,0,1.31-.73l0,0-.05.49a2.29,2.29,0,0,1-1.46.62,2.18,2.18,0,0,1-2.12-2.38c0-1.65.71-2.68,2-2.68"></path><path class="cls-1" d="M37.51,46.33c.91,0,1.3-1.15,1.3-2.26,0-1.28-.44-2-1.27-2s-1.23,1-1.23,2.2c0,1.62.63,2.06,1.2,2.06m1.3-.72h0a1.64,1.64,0,0,1-1.48,1.09c-.88,0-1.77-.75-1.77-2.49s1-2.57,1.88-2.57a1.37,1.37,0,0,1,1.34,1h0c0-1.28,0-2.88,0-3.75a2.6,2.6,0,0,0,.39.05,3.21,3.21,0,0,0,.39-.05c-.08.85-.1,3.51-.1,5.25,0,.93,0,1.63,0,2.44a2.33,2.33,0,0,0-.34-.05,2.21,2.21,0,0,0-.33.05Z"></path><path class="cls-1" d="M40.92,43.64c0-.6,0-1.32-.07-1.9a1.32,1.32,0,0,0,.39.06,1.34,1.34,0,0,0,.4-.06c-.06.58-.07,1.3-.07,1.9V44.7c0,.61,0,1.32.07,1.9a1.59,1.59,0,0,0-.79,0c0-.58.07-1.29.07-1.9Zm.32-4.18a.49.49,0,0,1,.45.52.45.45,0,1,1-.89,0,.49.49,0,0,1,.44-.52"></path><path class="cls-1" d="M43.88,40.38h0c0,.51-.05,1-.07,1.51l.93,0a2.21,2.21,0,0,0,0,.42c-.31,0-.72,0-.93,0,0,.11-.06,1.7-.06,2.58s0,1.54.71,1.54a1.46,1.46,0,0,0,.39-.07v.24a2,2,0,0,1-.67.15c-.73,0-1.08-.47-1.08-1.27s0-1.65.06-3.17c-.17,0-.36,0-.59,0a1.79,1.79,0,0,0,0-.23,1.36,1.36,0,0,0,0-.2l.58,0c0-.27,0-.71,0-1.14Z"></path><path class="cls-1" d="M47.8,44c-.6.23-1.83.16-1.83,1.27,0,.64.38,1,.76,1a1.25,1.25,0,0,0,1-.71Zm-2.16-1.81a2,2,0,0,1,1.41-.59,1.38,1.38,0,0,1,1.41,1.51c0,.76,0,1.51,0,2.36,0,.34,0,.75.34.75a.4.4,0,0,0,.18,0v.22a1.31,1.31,0,0,1-.56.14c-.37,0-.56-.28-.6-.63a1.67,1.67,0,0,1-1.37.74,1.18,1.18,0,0,1-1.16-1.25,1.32,1.32,0,0,1,1.23-1.39c1.27-.23,1.31-.31,1.31-.71,0-.68-.26-1.28-1-1.28a1.19,1.19,0,0,0-1.1.69h-.1Z"></path><path class="cls-1" d="M51.85,41.64a2.12,2.12,0,0,1,1.41.45,3.28,3.28,0,0,0-.19.67H53A1.35,1.35,0,0,0,51.88,42c-1.06,0-1.49.94-1.49,2.2s.55,2.11,1.52,2.11a1.82,1.82,0,0,0,1.31-.73l0,0c0,.16,0,.33,0,.49a2.29,2.29,0,0,1-1.46.62c-1,0-2.12-.71-2.12-2.53a2.25,2.25,0,0,1,2.22-2.53"></path><path class="cls-1" d="M54.52,43.64c0-.6,0-1.32-.07-1.9a1.32,1.32,0,0,0,.39.06,1.39,1.39,0,0,0,.4-.06c-.06.58-.07,1.3-.07,1.9V44.7c0,.61,0,1.32.07,1.9a1.83,1.83,0,0,0-.4-.05,1.74,1.74,0,0,0-.39.05c0-.58.07-1.29.07-1.9Zm.32-4.18a.49.49,0,0,1,.45.52.45.45,0,1,1-.89,0,.49.49,0,0,1,.44-.52"></path><path class="cls-1" d="M59.18,39.36a.6.6,0,0,1,.39-.25.33.33,0,0,1,.29.33.64.64,0,0,1-.31.48l-1.29.95h-.37Zm-.69,7c1,0,1.35-1.07,1.35-2.21S59.52,42,58.49,42s-1.36,1.06-1.36,2.2.33,2.21,1.36,2.21m0-4.74c1,0,2.12.68,2.12,2.53S59.5,46.7,58.49,46.7s-2.12-.68-2.12-2.53,1.11-2.53,2.12-2.53"></path><path class="cls-1" d="M63.48,42.17c-.81,0-1.18.61-1.18,1.67v.86c0,.61,0,1.32.07,1.9a1.59,1.59,0,0,0-.79,0c.06-.58.07-1.29.07-1.9V43.64c0-.6,0-1.32-.07-1.89a1.39,1.39,0,0,0,.74,0c0,.27,0,.53,0,.81h0a1.54,1.54,0,0,1,1.39-.92c.65,0,1.4.37,1.4,1.77,0,.58,0,1.19,0,1.88,0,.45,0,.87,0,1.31a1.56,1.56,0,0,0-.36-.05,1.49,1.49,0,0,0-.36.05c0-.74.06-1.48.06-2.26v-.62c0-1-.37-1.55-1-1.55"></path><polygon class="cls-1" points="42.7 21.82 35.87 27.28 44.92 27.28 42.7 21.82"></polygon><path class="cls-1" d="M26.6,27.28H20.17L31.81.17A.3.3,0,0,1,32.08,0h7.8a.3.3,0,0,1,.27.17L48,17.62l-5.26,4.2L36,6.84l-8.58,19.9a.93.93,0,0,1-.84.54"></path><path class="cls-1" d="M52.14,27,48,17.62l13.8-11L52.87,27a.39.39,0,0,1-.73,0"></path></g></g></svg>