<svg xmlns="http://www.w3.org/2000/svg" viewBox="0 0 791.04 288.54"><defs><style>.cls-1{fill:#fff;}</style></defs><title>Recurso 1pucv_AC</title><g id="Capa_2" data-name="Capa 2"><g id="Capa_1-2" data-name="Capa 1"><path class="cls-1" d="M401.41,44.59Q355,98.89,338.1,145.86T313.82,259.22l-2.77,29.32H253.18L256,259.22q6.74-63.63,28.94-116.83a360.22,360.22,0,0,1,60.84-97.8H244.06l-2.18,28.54H197.49V0H401.41Z"></path><path class="cls-1" d="M59.38,219.38a13.94,13.94,0,0,1-1.47.67c-.61.14-1.21.35-1.92.47a12.45,12.45,0,0,1-2.27.2,12.19,12.19,0,0,1-4.56-.81,10.17,10.17,0,0,1-3.66-2.52,13.54,13.54,0,0,1-2.38-4.14,18.37,18.37,0,0,1-.88-5.6,17.86,17.86,0,0,1,.88-5.62,12.19,12.19,0,0,1,2.43-4.16,10.5,10.5,0,0,1,3.71-2.62,13,13,0,0,1,4.81-.87,13.66,13.66,0,0,1,3.81.5,14,14,0,0,1,3,1.21,4,4,0,0,0-.46,1.36c-.05.58-.19,1.11-.19,1.48l-.19.07c-.21-.25-.51-.6-.88-1s-.82-.72-1.31-1.09a17,17,0,0,0-1.71-.85,6.75,6.75,0,0,0-2.1-.33,9.05,9.05,0,0,0-3.47.67,7,7,0,0,0-2.74,2.2A9.64,9.64,0,0,0,46,202.29a18.68,18.68,0,0,0-.67,5.36A18.36,18.36,0,0,0,46,212.9a9.89,9.89,0,0,0,1.85,3.73,7.28,7.28,0,0,0,2.74,2.17,8.52,8.52,0,0,0,3.47.67,8.68,8.68,0,0,0,2.1-.27c.62-.3,1.21-.49,1.74-.81a10.67,10.67,0,0,0,1.44-1c.44-.35.77-.65,1.1-1l.09.16-.28,2.22a4.41,4.41,0,0,1-.88.58"></path><path class="cls-1" d="M63.66,207.26a8,8,0,0,1,1.85-2.85,6.8,6.8,0,0,1,2.42-1.59,8.93,8.93,0,0,1,2.72-.51,8.73,8.73,0,0,1,2.75.51,7.25,7.25,0,0,1,2.44,1.59,7,7,0,0,1,1.75,2.85,13.08,13.08,0,0,1,0,8.56,7.51,7.51,0,0,1-1.75,2.85,6.11,6.11,0,0,1-2.44,1.5,8.69,8.69,0,0,1-2.75.48,8.86,8.86,0,0,1-2.72-.48,5.78,5.78,0,0,1-2.42-1.5,8.68,8.68,0,0,1-1.85-2.85,15.32,15.32,0,0,1,0-8.56M66,214.55a12.92,12.92,0,0,0,.79,2.57,4.92,4.92,0,0,0,1.5,1.78,4.29,4.29,0,0,0,2.34.67A3.63,3.63,0,0,0,73,218.9a4.22,4.22,0,0,0,1.52-1.78,9.57,9.57,0,0,0,.83-2.57,22.64,22.64,0,0,0,.21-3,21,21,0,0,0-.21-2.94,9.16,9.16,0,0,0-.83-2.62,4.75,4.75,0,0,0-1.52-1.8,3.63,3.63,0,0,0-2.31-.65,4.28,4.28,0,0,0-2.34.65,5.66,5.66,0,0,0-1.5,1.8,12.11,12.11,0,0,0-.79,2.62,16.23,16.23,0,0,0-.23,2.94,17.48,17.48,0,0,0,.23,3"></path><path class="cls-1" d="M81.85,206.13c-.11-1.25-.13-2.41-.2-3.43a6.82,6.82,0,0,0,1.38.17,1.91,1.91,0,0,0,.53-.05l.73-.12a29.39,29.39,0,0,0-.11,3h.09c1.07-2.22,2.69-3.35,4.69-3.35a3.78,3.78,0,0,1,1.49.3,5.82,5.82,0,0,1,1.37.74,5.47,5.47,0,0,1,1.08,1.18,5,5,0,0,1,.62,1.43h0a6.46,6.46,0,0,1,2.06-2.7,4.87,4.87,0,0,1,3-.95,6.45,6.45,0,0,1,2,.32,3.71,3.71,0,0,1,1.5,1.09,4.09,4.09,0,0,1,1,1.78,8.51,8.51,0,0,1,.34,2.66v1.34c0,.54-.09,1.12-.09,1.74s-.07,1.43-.07,2.24-.06,1.79-.06,2.85v1.94c.06.63.06,1.3.13,2a2.89,2.89,0,0,0-.63-.07h-1.43a2.85,2.85,0,0,0-.64.07c.07-.58.13-1.83.2-3.73s.14-4.46.14-7.81a11.9,11.9,0,0,0-.21-1.72,4.17,4.17,0,0,0-.58-1.43,2.61,2.61,0,0,0-1-1,3.23,3.23,0,0,0-1.57-.35,3.4,3.4,0,0,0-1.92.51,3.7,3.7,0,0,0-1.25,1.2,3.19,3.19,0,0,0-.39.88,5.71,5.71,0,0,0-.23,1.21c0,.58,0,1.36-.13,2.29v7a25.75,25.75,0,0,1,.13,2.85,11.14,11.14,0,0,0-1.31-.07,13.58,13.58,0,0,0-1.41.07c.09-1.34.17-2.73.21-4.1s0-2.8,0-4.18v-2.71c0-.62,0-1.16-.07-1.55a2.71,2.71,0,0,0-.17-.9,3.63,3.63,0,0,0-.29-.86,2.54,2.54,0,0,0-1.1-1.18,2.51,2.51,0,0,0-1.5-.51,3.42,3.42,0,0,0-3,1.58,9.08,9.08,0,0,0-1,4.48v3.13c0,1.13,0,2.29.09,3.51s.06,2.32.17,3.29a13.31,13.31,0,0,0-1.41-.07,12.75,12.75,0,0,0-1.38.07c.07-1,.09-2.08.2-3.29V206.13"></path><path class="cls-1" d="M108.84,194.91a1.56,1.56,0,0,1,1.12-.53,1.41,1.41,0,0,1,1.14.53,1.91,1.91,0,0,1,.46,1.39,1.84,1.84,0,0,1-.46,1.31,1.37,1.37,0,0,1-1.14.54,1.5,1.5,0,0,1-1.12-.54,2.22,2.22,0,0,1-.51-1.31,2.25,2.25,0,0,1,.51-1.39m-.08,11.22c-.06-1.25-.08-2.41-.22-3.43a8.27,8.27,0,0,0,1.42.17,7.16,7.16,0,0,0,1.43-.17,29.63,29.63,0,0,0-.19,3.43c0,1.22-.1,2.38-.1,3.44v3.87c0,1.13.06,2.29.1,3.51a27,27,0,0,0,.19,3.29,13.17,13.17,0,0,0-1.43-.07c-.4,0-1,0-1.42.07.14-1,.16-2.08.22-3.29s.08-2.38.08-3.51v-3.87c0-1.06,0-2.22-.08-3.44"></path><path class="cls-1" d="M117.08,217.62c.26.31.51.63.73.86a8.94,8.94,0,0,0,1.09.65,3.08,3.08,0,0,0,1.22.23,2.83,2.83,0,0,0,1.14-.21,2.21,2.21,0,0,0,1-.62,2.28,2.28,0,0,0,.67-1,3.48,3.48,0,0,0,.31-1.44,2.51,2.51,0,0,0-.58-1.75,5.1,5.1,0,0,0-1.39-1,15,15,0,0,0-1.78-.7,8.21,8.21,0,0,1-1.82-.83,3.88,3.88,0,0,1-1.28-1.43,4.15,4.15,0,0,1-.64-2.43,5.76,5.76,0,0,1,.39-2.25,5.33,5.33,0,0,1,1-1.71,4.21,4.21,0,0,1,1.68-1.2,4.68,4.68,0,0,1,2.22-.44,4,4,0,0,1,1.91.39,9.69,9.69,0,0,0,1.61.65,4.65,4.65,0,0,0-.52,1.39,4.06,4.06,0,0,0-.26,1.22h-.39a3.12,3.12,0,0,0-1-1.57,2.46,2.46,0,0,0-1.74-.67,2,2,0,0,0-1,.16,2.77,2.77,0,0,0-.84.53,3.9,3.9,0,0,0-.6,1,3.64,3.64,0,0,0-.33,1.39,2.62,2.62,0,0,0,.61,1.83,3.23,3.23,0,0,0,1.41,1,9.05,9.05,0,0,0,1.73.67,8.69,8.69,0,0,1,1.81.79,4.3,4.3,0,0,1,1.36,1.39,4.54,4.54,0,0,1,.6,2.45A6.66,6.66,0,0,1,125,217a9.16,9.16,0,0,1-1.17,1.88,4.93,4.93,0,0,1-1.8,1.27,5.65,5.65,0,0,1-2.32.48,7.71,7.71,0,0,1-2.43-.34,6,6,0,0,1-1.62-.79c.11-.3.21-.72.36-1.27a6.16,6.16,0,0,0,.18-1.44h.41a3.36,3.36,0,0,0,.5.81"></path><path class="cls-1" d="M129.82,194.91a1.46,1.46,0,0,1,2.25,0,2.14,2.14,0,0,1,.51,1.39,2.09,2.09,0,0,1-.51,1.31,1.44,1.44,0,0,1-2.25,0,1.93,1.93,0,0,1-.46-1.31,2,2,0,0,1,.46-1.39m0,11.22c-.1-1.25-.17-2.41-.23-3.43a6.81,6.81,0,0,0,1.37.17,7.94,7.94,0,0,0,1.46-.17c-.09,1-.18,2.18-.28,3.43V217c.1,1.21.19,2.32.28,3.29a14.13,14.13,0,0,0-1.46-.07,12.83,12.83,0,0,0-1.37.07c.06-1,.13-2.08.23-3.29V206.13"></path><path class="cls-1" d="M137.1,207.26a7.72,7.72,0,0,1,1.79-2.85,7.37,7.37,0,0,1,2.47-1.59,7.91,7.91,0,0,1,2.7-.51,8.16,8.16,0,0,1,2.77.51,9,9,0,0,1,2.46,1.59,8.86,8.86,0,0,1,1.76,2.85,14.21,14.21,0,0,1,0,8.56,9.2,9.2,0,0,1-1.76,2.85,7.32,7.32,0,0,1-2.46,1.5,8.92,8.92,0,0,1-2.77.48,8.64,8.64,0,0,1-2.7-.48,6.21,6.21,0,0,1-2.47-1.5,8,8,0,0,1-1.79-2.85,14.42,14.42,0,0,1,0-8.56m2.34,7.29a9.2,9.2,0,0,0,.79,2.57,4,4,0,0,0,1.54,1.78,3.71,3.71,0,0,0,2.29.67,4.09,4.09,0,0,0,2.37-.67,5,5,0,0,0,1.48-1.78,10.75,10.75,0,0,0,.81-2.57,21.16,21.16,0,0,0,.19-3,19.63,19.63,0,0,0-.19-2.94,10,10,0,0,0-.81-2.62,5.74,5.74,0,0,0-1.48-1.8,4.08,4.08,0,0,0-2.37-.65,3.7,3.7,0,0,0-2.29.65,4.47,4.47,0,0,0-1.54,1.8,8.68,8.68,0,0,0-.79,2.62,18.23,18.23,0,0,0-.24,2.94,19.68,19.68,0,0,0,.24,3M148,193.13a1,1,0,0,1,.65.27,1.07,1.07,0,0,1,.4.88,1.44,1.44,0,0,1-.4,1.07,5.2,5.2,0,0,1-.78.69l-4.6,3.45h-1.32l4.62-5.49c.57-.6,1-.87,1.43-.87"></path><path class="cls-1" d="M164.55,205.66a2.89,2.89,0,0,0-2.55-1.41,3.55,3.55,0,0,0-3.19,1.58,8.35,8.35,0,0,0-1,4.48v3.13c0,1.13,0,2.29.07,3.51a25.16,25.16,0,0,0,.19,3.29c-.47-.05-1-.07-1.43-.07a12.57,12.57,0,0,0-1.37.07c.05-1,.09-2.08.17-3.29s0-2.38,0-3.51v-3.87c0-1.06,0-2.22,0-3.44s-.12-2.41-.17-3.43a6.5,6.5,0,0,0,1.37.17,2.69,2.69,0,0,0,.59-.05l.66-.12c0,1-.08,2-.08,3h.07a7.32,7.32,0,0,1,2.11-2.49,5,5,0,0,1,2.93-.86,6,6,0,0,1,1.78.3,4.21,4.21,0,0,1,1.63,1,5.21,5.21,0,0,1,1.14,2,8.1,8.1,0,0,1,.5,3.15c0,1.09,0,2.18-.07,3.31s0,2.29,0,3.51v3.59c0,.42,0,.76,0,1.09a11.42,11.42,0,0,0-1.34-.07,11.93,11.93,0,0,0-1.32.07c.1-1.25.1-2.57.15-3.94s.1-2.72.1-4.18v-2.25a8,8,0,0,0-.92-4.21"></path><path class="cls-1" d="M56.7,242.75c-2.78-3.47-5.54-6.87-8.2-10.27,0,.76-.08,1.57-.08,2.77s0,2.71,0,4.74v1.9c0,.76,0,1.57,0,2.41s.08,1.71.08,2.56.06,1.69.06,2.39,0,1.41,0,2a2.89,2.89,0,0,0,.13,1.11c-.41,0-.78,0-1.14,0s-.82,0-1.12,0c0-.25,0-.71.1-1.36s.11-1.44.17-2.36.08-1.94.1-3,.1-2.2.1-3.26.12-2.17.12-3.17v-8.88c0-1.71,0-3,0-3.84h.47c1.32,1.59,2.66,3.4,4.14,5.25s2.87,3.7,4.29,5.48,2.88,3.56,4.11,5.16,2.38,3,3.38,4.14v-5c0-2.62,0-5.11-.07-7.54s-.06-4.81-.17-7a4.26,4.26,0,0,0,1.05.19,4.53,4.53,0,0,0,1-.19c-.07.56-.13,1.37-.17,2.48s-.11,2.22-.17,3.42-.1,2.48-.14,3.66-.07,2.13-.07,2.82v2.22c0,.81,0,1.78,0,2.64v2.75c0,1,0,1.81,0,2.61s0,1.48,0,2.09v1.2h-.44c-2.41-3.26-5-6.64-7.66-10.06"></path><path class="cls-1" d="M73.34,234.86a6.5,6.5,0,0,1,2.44-.46,5.09,5.09,0,0,1,2.1.39,3.25,3.25,0,0,1,1.56,1.11,4.47,4.47,0,0,1,1.1,1.78,6,6,0,0,1,.32,2.22c0,1.41,0,2.75,0,4.19s0,2.87,0,4.46v.91a3.4,3.4,0,0,0,.09.85,2.38,2.38,0,0,0,.44.65c.11.23.35.25.68.25h.34a.59.59,0,0,0,.34-.14v.84a4.46,4.46,0,0,1-.87.25,3.1,3.1,0,0,1-1.13.16,2,2,0,0,1-1.57-.64,2.94,2.94,0,0,1-.72-1.58,8.37,8.37,0,0,1-2.21,2,5.26,5.26,0,0,1-2.68.65,4.61,4.61,0,0,1-1.52-.28,3.38,3.38,0,0,1-1.34-.83,5.18,5.18,0,0,1-.93-1.44,4.9,4.9,0,0,1-.31-1.92,4.82,4.82,0,0,1,1.1-3.42,6.19,6.19,0,0,1,3.29-1.64c1.09-.24,2-.44,2.63-.56a7.28,7.28,0,0,0,1.45-.53,1.26,1.26,0,0,0,.52-.58c0-.21.07-.55.07-1a11.4,11.4,0,0,0-.16-1.76,5.66,5.66,0,0,0-.64-1.48,3.25,3.25,0,0,0-1.06-1,2.38,2.38,0,0,0-1.55-.4,4,4,0,0,0-2.36.7,3.92,3.92,0,0,0-1.63,1.83h-.35v-1.9a8.17,8.17,0,0,1,2.62-1.71m3.9,8.65c-.46.09-.9.21-1.4.28a5.75,5.75,0,0,0-1.4.46,3.45,3.45,0,0,0-1.3.65,4,4,0,0,0-.92,1.16,5,5,0,0,0-.27,1.71,3.53,3.53,0,0,0,.82,2.56,2.56,2.56,0,0,0,1.84.95,3.45,3.45,0,0,0,2.22-.81,6.65,6.65,0,0,0,1.51-1.8l.13-5.53a10.44,10.44,0,0,1-1.23.37"></path><path class="cls-1" d="M85.78,239.46a9.16,9.16,0,0,1,1.8-2.87,7.88,7.88,0,0,1,2.56-1.66,8.45,8.45,0,0,1,3-.53,9.38,9.38,0,0,1,3.1.48,5.17,5.17,0,0,1,2,1.13,12.23,12.23,0,0,0-.4,1.16,8.71,8.71,0,0,0-.3,1.3h-.26a3,3,0,0,0-.59-1,4.55,4.55,0,0,0-.88-.93,7.28,7.28,0,0,0-1.09-.72,4.33,4.33,0,0,0-1.44-.25,5.37,5.37,0,0,0-2.42.55,5.06,5.06,0,0,0-1.69,1.72,7.38,7.38,0,0,0-.91,2.56,13,13,0,0,0-.34,3.13,10.18,10.18,0,0,0,1.38,5.8,4.62,4.62,0,0,0,4.08,1.92,5.8,5.8,0,0,0,1.34-.21,5.26,5.26,0,0,0,1.26-.6,4.72,4.72,0,0,0,1.14-.81,5.39,5.39,0,0,0,1-1l.14.07a9.4,9.4,0,0,0-.14,1.87,10.87,10.87,0,0,1-2.41,1.46,7.12,7.12,0,0,1-2.91.65,7.37,7.37,0,0,1-2.69-.51,5.77,5.77,0,0,1-2.53-1.55,9,9,0,0,1-1.72-2.78,11.35,11.35,0,0,1-.67-4.28,11.7,11.7,0,0,1,.67-4.14"></path><path class="cls-1" d="M102.71,227a1.66,1.66,0,0,1,1.13-.55A1.69,1.69,0,0,1,105,227a2.23,2.23,0,0,1,.44,1.35,2,2,0,0,1-.44,1.31,1.73,1.73,0,0,1-1.18.61,1.71,1.71,0,0,1-1.13-.61,2,2,0,0,1-.46-1.31,2.31,2.31,0,0,1,.46-1.35m0,11.2c-.08-1.25-.14-2.34-.25-3.42a8.41,8.41,0,0,0,1.38.2,9.45,9.45,0,0,0,1.44-.2c-.09,1.08-.21,2.17-.21,3.42s0,2.38,0,3.49v3.84c0,1.14,0,2.29,0,3.5s.12,2.33.21,3.3c-.51,0-.94,0-1.44,0s-.87,0-1.38,0c.11-1,.17-2.06.25-3.3V238.19"></path><path class="cls-1" d="M110,239.32a8.56,8.56,0,0,1,1.75-2.84,7.21,7.21,0,0,1,2.53-1.6,7.76,7.76,0,0,1,2.7-.48,8.55,8.55,0,0,1,2.73.48,7.94,7.94,0,0,1,2.46,1.6,8.12,8.12,0,0,1,1.76,2.84,13.15,13.15,0,0,1,.68,4.28,12.93,12.93,0,0,1-.68,4.28,7.9,7.9,0,0,1-1.76,2.85,6.84,6.84,0,0,1-2.46,1.55,9.7,9.7,0,0,1-2.73.44,8.78,8.78,0,0,1-2.7-.44,6.33,6.33,0,0,1-2.53-1.55,8.31,8.31,0,0,1-1.75-2.85,11.74,11.74,0,0,1-.69-4.28,11.93,11.93,0,0,1,.69-4.28m2.31,7.29a8.62,8.62,0,0,0,.84,2.54,5.24,5.24,0,0,0,1.5,1.81,3.63,3.63,0,0,0,2.33.65,3.67,3.67,0,0,0,2.3-.65,5.13,5.13,0,0,0,1.5-1.81,8.91,8.91,0,0,0,.81-2.54,17.67,17.67,0,0,0,0-6,9.81,9.81,0,0,0-.81-2.54,4.23,4.23,0,0,0-1.5-1.74,3.52,3.52,0,0,0-2.3-.69,3.48,3.48,0,0,0-2.33.69,4.3,4.3,0,0,0-1.5,1.74,9.48,9.48,0,0,0-.84,2.54,22.9,22.9,0,0,0,0,6"></path><path class="cls-1" d="M137.46,237.73a2.85,2.85,0,0,0-2.54-1.41,3.45,3.45,0,0,0-3.15,1.59,7.74,7.74,0,0,0-1,4.49v3.12c0,1.14,0,2.29,0,3.5s.13,2.33.18,3.3c-.47,0-.91,0-1.37,0s-1,0-1.43,0c.07-1,.14-2.06.19-3.3s.05-2.36.05-3.5v-3.84c0-1.11,0-2.29-.05-3.49s-.12-2.34-.19-3.42a8.74,8.74,0,0,0,1.43.2,2.93,2.93,0,0,0,.55-.09,5.25,5.25,0,0,0,.69-.11c-.05,1-.06,1.94-.06,2.93h0a7,7,0,0,1,2.1-2.4,5,5,0,0,1,3-.9,5.68,5.68,0,0,1,1.82.3,4.57,4.57,0,0,1,1.58,1,5,5,0,0,1,1.17,2,8.25,8.25,0,0,1,.48,3.15c0,1,0,2.1-.06,3.24v8.23c-.44,0-.86,0-1.35,0s-.87,0-1.31,0c0-1.25.13-2.59.14-3.93s.1-2.77.1-4.19v-2.26a7.61,7.61,0,0,0-.91-4.21"></path><path class="cls-1" d="M148.47,234.86a7.1,7.1,0,0,1,2.5-.46,4.83,4.83,0,0,1,2.07.39,4.56,4.56,0,0,1,1.63,1.11,6.22,6.22,0,0,1,1,1.78,6.14,6.14,0,0,1,.4,2.22c0,1.41-.05,2.75-.05,4.19s-.1,2.87-.1,4.46v.91a3,3,0,0,0,.2.85,1.08,1.08,0,0,0,.31.65c.17.23.39.25.76.25h.27a.52.52,0,0,0,.38-.14v.84a8.47,8.47,0,0,1-.88.25,3.06,3.06,0,0,1-1.14.16,2.26,2.26,0,0,1-1.6-.64,2.32,2.32,0,0,1-.59-1.58,10,10,0,0,1-2.28,2,5.12,5.12,0,0,1-2.65.65,5,5,0,0,1-1.52-.28,3.36,3.36,0,0,1-1.39-.83,3.77,3.77,0,0,1-.89-1.44,4.9,4.9,0,0,1-.31-1.92,4.61,4.61,0,0,1,1.11-3.42,5.81,5.81,0,0,1,3.29-1.64c1.06-.24,2-.44,2.6-.56a6.1,6.1,0,0,0,1.42-.53.94.94,0,0,0,.55-.58,3.55,3.55,0,0,0,.07-1,9.38,9.38,0,0,0-.18-1.76,4,4,0,0,0-.63-1.48,2.75,2.75,0,0,0-1.06-1,2.49,2.49,0,0,0-1.6-.4,4.09,4.09,0,0,0-2.35.7,3.72,3.72,0,0,0-1.58,1.83h-.33v-1.9a7.57,7.57,0,0,1,2.55-1.71m3.95,8.65c-.48.09-.93.21-1.39.28a6.82,6.82,0,0,0-1.45.46,4.19,4.19,0,0,0-1.26.65,4.47,4.47,0,0,0-.89,1.16,3.56,3.56,0,0,0-.33,1.71,3.63,3.63,0,0,0,.86,2.56,2.43,2.43,0,0,0,1.87.95,3.2,3.2,0,0,0,2.16-.81,5.42,5.42,0,0,0,1.53-1.8l.13-5.53a11,11,0,0,1-1.23.37"></path><path class="cls-1" d="M162.15,232.38c0-1-.06-2-.06-2.94s-.09-1.85-.09-2.77-.06-1.62-.11-2.24a5.61,5.61,0,0,0,1.45.2,4.9,4.9,0,0,0,1.34-.2c0,.62,0,1.34-.06,2.24s-.07,1.78-.09,2.77-.05,1.9-.05,2.94,0,1.9,0,2.71v6.71c0,.83,0,1.76,0,2.77s.05,1.92.05,2.87.06,1.92.09,2.76.06,1.57.06,2.12c-.47,0-.9,0-1.34,0s-1,0-1.45,0c.05-.55.05-1.25.11-2.12s.06-1.76.09-2.76.06-1.92.06-2.87V232.38"></path><path class="cls-1" d="M11.75,280.89a13.41,13.41,0,0,1-.7,1.23,4.9,4.9,0,0,1-1,1.32,6.2,6.2,0,0,1-1.54,1,5.89,5.89,0,0,1-2.08.35,5.69,5.69,0,0,1-2.34-.47,5.72,5.72,0,0,1-2-1.57,9.88,9.88,0,0,1-1.45-2.8A13.88,13.88,0,0,1,0,275.76a12.21,12.21,0,0,1,.64-4.1,7.18,7.18,0,0,1,1.6-2.87,5.31,5.31,0,0,1,2.1-1.73,5.71,5.71,0,0,1,2.42-.58c2.37,0,4,1.25,4.9,3.7h.05v-6.47c-.05-1-.05-1.83-.05-2.69v-2.5c0-.74,0-1.43-.05-2a2.18,2.18,0,0,0,.71.14,3.62,3.62,0,0,0,.67.07,4.13,4.13,0,0,0,.67-.07,3,3,0,0,0,.74-.14c-.06.81-.1,1.92-.17,3.42s-.05,3.17-.1,4.93,0,3.65-.07,5.57v9.84c0,1.34,0,2.77.07,4.16a7.61,7.61,0,0,0-1.22-.07,7.08,7.08,0,0,0-1.2.07l.12-3.52Zm-8.54-1.18a6.84,6.84,0,0,0,1,2.29,3.09,3.09,0,0,0,1.45,1.23,3.67,3.67,0,0,0,1.54.25,3.09,3.09,0,0,0,2.09-.71,6.62,6.62,0,0,0,1.46-1.83,9.46,9.46,0,0,0,.84-2.68,16.25,16.25,0,0,0,.26-2.92,10.28,10.28,0,0,0-1.17-5.46A3.68,3.68,0,0,0,7.23,268a3.17,3.17,0,0,0-1.91.6,3.41,3.41,0,0,0-1.41,1.71,8.92,8.92,0,0,0-.83,2.57,17.15,17.15,0,0,0-.3,3.1,14.35,14.35,0,0,0,.43,3.72"></path><path class="cls-1" d="M19.15,269.07a6,6,0,0,1,5.37-2.63,5.42,5.42,0,0,1,2.82.67,5.13,5.13,0,0,1,2,1.59,6.28,6.28,0,0,1,1.31,2.43A10.59,10.59,0,0,1,31,274c0,.28,0,.49,0,.74s0,.46,0,.74c-1.12-.07-2.26-.07-3.33-.12s-2.29,0-3.4,0c-.67,0-1.39,0-2.06,0s-1.36.05-2.06.12c0,.14,0,.28,0,.51v.51a10.17,10.17,0,0,0,.37,2.7,6.25,6.25,0,0,0,1,2.16,6.07,6.07,0,0,0,1.73,1.41,4.45,4.45,0,0,0,2.27.53,6.12,6.12,0,0,0,1.31-.14,11.93,11.93,0,0,0,1.35-.58,6.92,6.92,0,0,0,1.16-.81,7.7,7.7,0,0,0,.9-1.08l.19.11-.19,1.85a8.14,8.14,0,0,1-2.29,1.51,7.21,7.21,0,0,1-3,.6,7.06,7.06,0,0,1-3.08-.58,6.38,6.38,0,0,1-2.42-1.78,8.47,8.47,0,0,1-1.54-2.76,9.49,9.49,0,0,1-.58-3.44c0-3.06.59-5.42,1.85-7.13m3.46-.81a5.07,5.07,0,0,0-1.35,1.6,6.25,6.25,0,0,0-.74,2.08,8.8,8.8,0,0,0-.36,2.11,18.72,18.72,0,0,0,2,.07c.72,0,1.43,0,2.08,0s1.39,0,2.13,0a20,20,0,0,0,2.06-.07c0-.72-.08-1.37-.14-2.11a8.19,8.19,0,0,0-.61-2.06,3.26,3.26,0,0,0-1.17-1.62,3.15,3.15,0,0,0-2-.62,3.38,3.38,0,0,0-1.95.62"></path><path class="cls-1" d="M60,284.41a3.82,3.82,0,0,0-.87-.07H57.44a3.61,3.61,0,0,0-.86.07,12.58,12.58,0,0,0-.59-2c-.22-.83-.52-1.68-.84-2.54s-.58-1.74-.89-2.66-.62-1.76-.89-2.59c-.7,0-1.36,0-2-.07s-1.42,0-2.12,0-1.32,0-1.89,0-1.3.07-2,.07c-.64,2-1.27,3.81-1.77,5.5s-1,3.17-1.28,4.33a6,6,0,0,0-1.16-.07,6.91,6.91,0,0,0-1.19.07c1.76-4.33,3.42-8.63,5-12.84s3.27-8.7,4.86-13.07h.62l1.6,4.63c.57,1.69,1.22,3.35,1.79,5.06s1.21,3.43,1.84,5.09,1.13,3.22,1.71,4.65,1,2.73,1.46,3.86A16.82,16.82,0,0,0,60,284.41M46,272.89c.53,0,1.14,0,1.69.05h3.46c.64,0,1.18,0,1.77-.05l-3.51-9.42Z"></path><path class="cls-1" d="M62.48,271.57a8.75,8.75,0,0,1,1.8-2.89A7,7,0,0,1,66.86,267a9.41,9.41,0,0,1,3-.51,11,11,0,0,1,3.06.44,5,5,0,0,1,2,1.18,9,9,0,0,0-.41,1.18,11,11,0,0,0-.27,1.25h-.28a5.71,5.71,0,0,0-.59-1,5.55,5.55,0,0,0-.93-.95,3.7,3.7,0,0,0-1.15-.69,2.91,2.91,0,0,0-1.34-.28,4.56,4.56,0,0,0-2.44.62A5.06,5.06,0,0,0,65.79,270a9.89,9.89,0,0,0-.92,2.55,16.48,16.48,0,0,0-.29,3.12A9.84,9.84,0,0,0,66,281.4a4.56,4.56,0,0,0,4,1.9,3.88,3.88,0,0,0,1.25-.19,4.18,4.18,0,0,0,1.31-.53,10.38,10.38,0,0,0,1.23-.81,14.09,14.09,0,0,0,.92-1.08l.17.11c-.09.6-.17,1.25-.2,1.85a8.2,8.2,0,0,1-2.35,1.51,6.82,6.82,0,0,1-2.92.6,7.28,7.28,0,0,1-2.67-.47,5.94,5.94,0,0,1-2.47-1.52,8.26,8.26,0,0,1-1.84-2.85,12.14,12.14,0,0,1-.7-4.25,10.76,10.76,0,0,1,.74-4.1"></path><path class="cls-1" d="M85.18,269.44a2.86,2.86,0,0,0-.91-.16,2.23,2.23,0,0,0-1.38.42,2.67,2.67,0,0,0-1,1.06,5.14,5.14,0,0,0-.65,1.62,10.61,10.61,0,0,0-.24,2v7.87c0,.9.11,1.59.14,2.17a6,6,0,0,0-1.28-.09,6.56,6.56,0,0,0-1.32.09,27.1,27.1,0,0,0,.13-3.42c0-1.46,0-3.22,0-5.34v-1.18c0-.95,0-2.06,0-3.36s0-2.66-.13-4.35a2.53,2.53,0,0,0,.65.14,2.13,2.13,0,0,0,.67.09,1.57,1.57,0,0,0,.58-.09,2,2,0,0,0,.7-.14c-.06,1-.14,1.64-.14,2.15v1.48l0,.07c1.24-2.68,2.63-4,4.17-4,.14,0,.29,0,.48,0a2.55,2.55,0,0,1,.51.23,4.33,4.33,0,0,0-.21,1.34c0,.56,0,1.14,0,1.65l-.24.18a1.28,1.28,0,0,0-.6-.44"></path><path class="cls-1" d="M89.62,269.07A6.07,6.07,0,0,1,95,266.44a5.41,5.41,0,0,1,2.81.67,6,6,0,0,1,2.09,1.59,8,8,0,0,1,1.21,2.43,11,11,0,0,1,.41,2.87,3,3,0,0,1-.06.74v.74c-1.18-.07-2.3-.07-3.41-.12s-2.2,0-3.34,0c-.73,0-1.33,0-2.12,0-.62.05-1.34.05-2,.12a2,2,0,0,0-.08.51v.51a8.25,8.25,0,0,0,.43,2.7,4.9,4.9,0,0,0,1,2.16,4.3,4.3,0,0,0,1.7,1.41,4.35,4.35,0,0,0,2.3.53,6.8,6.8,0,0,0,1.31-.14,6.62,6.62,0,0,0,1.26-.58,6.55,6.55,0,0,0,1.21-.81,11,11,0,0,0,.95-1.08l.13.11-.13,1.85a9.41,9.41,0,0,1-2.34,1.51,7.25,7.25,0,0,1-3,.6,7.07,7.07,0,0,1-3-.58,6.67,6.67,0,0,1-2.46-1.78,9.55,9.55,0,0,1-1.56-2.76,11.91,11.91,0,0,1-.54-3.44c0-3.06.6-5.42,1.84-7.13m3.42-.81a5.29,5.29,0,0,0-1.27,1.6,6.32,6.32,0,0,0-.81,2.08c-.16.74-.24,1.39-.35,2.11a20.35,20.35,0,0,0,2.07.07c.71,0,1.36,0,2,0s1.45,0,2.09,0a20.85,20.85,0,0,0,2.11-.07c0-.72-.07-1.37-.12-2.11a8.21,8.21,0,0,0-.62-2.06A4.24,4.24,0,0,0,97,268.26a3.39,3.39,0,0,0-2-.62,3.68,3.68,0,0,0-2,.62"></path><path class="cls-1" d="M115.42,280.89a9,9,0,0,1-.63,1.23,6,6,0,0,1-1.1,1.32,4.15,4.15,0,0,1-1.56,1,5.42,5.42,0,0,1-2,.35,5.7,5.7,0,0,1-2.35-.47,5.27,5.27,0,0,1-2-1.57,7.13,7.13,0,0,1-1.45-2.8,15,15,0,0,1-.54-4.16,12.77,12.77,0,0,1,.61-4.1,9.32,9.32,0,0,1,1.54-2.87,6.13,6.13,0,0,1,2.14-1.73,5.76,5.76,0,0,1,2.51-.58c2.3,0,3.89,1.25,4.8,3.7h.07v-6.47c0-1-.07-1.83-.07-2.69s0-1.71,0-2.5,0-1.43,0-2a2.49,2.49,0,0,0,.72.14,3.65,3.65,0,0,0,.72.07,4.77,4.77,0,0,0,.67-.07,2.82,2.82,0,0,0,.69-.14c0,.81,0,1.92-.11,3.42s-.15,3.17-.15,4.93,0,3.65,0,5.57,0,3.64,0,5.21,0,3.24,0,4.63,0,2.77,0,4.16a7.19,7.19,0,0,0-1.23-.07,7,7,0,0,0-1.18.07l.1-3.52Zm-8.51-1.18a6.47,6.47,0,0,0,1,2.29,2.77,2.77,0,0,0,1.36,1.23,4.16,4.16,0,0,0,1.6.25,2.91,2.91,0,0,0,2-.71,5.48,5.48,0,0,0,1.48-1.83,9.48,9.48,0,0,0,.88-2.68,19.46,19.46,0,0,0,.23-2.92,10.43,10.43,0,0,0-1.11-5.46,4,4,0,0,0-5.5-1.27,5.46,5.46,0,0,0-1.31,1.71,10.34,10.34,0,0,0-.85,2.57,21.86,21.86,0,0,0-.25,3.1,13.53,13.53,0,0,0,.43,3.72"></path><path class="cls-1" d="M123.12,259a1.61,1.61,0,0,1,1.15-.53,1.75,1.75,0,0,1,1.15.53,2.44,2.44,0,0,1,.45,1.37,2.23,2.23,0,0,1-.45,1.32,1.5,1.5,0,0,1-1.15.55,1.4,1.4,0,0,1-1.15-.55,2.48,2.48,0,0,1-.47-1.32,2.71,2.71,0,0,1,.47-1.37m-.05,11.25c-.07-1.28-.15-2.39-.19-3.5a4.25,4.25,0,0,0,2.76,0c-.12,1.11-.12,2.22-.17,3.5s0,2.4,0,3.47v3.86c0,1.11,0,2.24,0,3.49s0,2.34.17,3.31a8.73,8.73,0,0,0-1.37-.07,9.31,9.31,0,0,0-1.39.07c0-1,.12-2.11.19-3.31V270.28"></path><path class="cls-1" d="M133.86,261.88c0,1,0,1.85-.1,2.77s-.07,1.76-.13,2.71h1.29a19.91,19.91,0,0,1,2-.12,1.6,1.6,0,0,0,0,.4v.81a2.12,2.12,0,0,0,0,.39,3.11,3.11,0,0,0-.86-.07h-2.46c0,.07,0,.42,0,1.16s-.06,1.46-.06,2.43-.09,2-.09,3v2.8a15.1,15.1,0,0,0,.09,2,6.06,6.06,0,0,0,.23,1.81,3.11,3.11,0,0,0,.77,1.27,2,2,0,0,0,1.4.44c.21,0,.41,0,.67,0a7.68,7.68,0,0,0,.77-.21v.9a12,12,0,0,0-1.18.3,6,6,0,0,1-1.27.12,3.47,3.47,0,0,1-2.86-1.11,5.22,5.22,0,0,1-1-3.38c0-.67,0-1.41,0-2.18s.06-1.62.08-2.54.09-2,.09-3.05v-3.73h-1.5a1.57,1.57,0,0,0-.59.07v-.46c0-.14,0-.28,0-.46s0-.19,0-.35v-.37c.92,0,1.6,0,2,0,0-.46,0-1.06,0-1.75s0-1.55-.08-2.32l2.61-1.29Z"></path><path class="cls-1" d="M142.66,266.9a6.87,6.87,0,0,1,2.45-.46,6.55,6.55,0,0,1,2.09.39,6.45,6.45,0,0,1,1.62,1.11,6.36,6.36,0,0,1,1,1.8,6.58,6.58,0,0,1,.38,2.2c0,1.39,0,2.8-.06,4.23s-.09,2.83-.09,4.4c0,.28.08.58.08,1a2.23,2.23,0,0,0,.13.86,1.2,1.2,0,0,0,.37.64c.12.19.36.26.7.26a1.37,1.37,0,0,0,.28,0,.86.86,0,0,0,.34-.12v.76a2.59,2.59,0,0,1-.85.37,8.11,8.11,0,0,1-1.12.07,2,2,0,0,1-1.6-.6,2.5,2.5,0,0,1-.63-1.59,9.24,9.24,0,0,1-2.24,2,5.33,5.33,0,0,1-2.73.6,5.43,5.43,0,0,1-1.46-.24,3.08,3.08,0,0,1-1.36-.85,5,5,0,0,1-.92-1.43,4.79,4.79,0,0,1-.41-1.86,4.87,4.87,0,0,1,1.17-3.47,6.29,6.29,0,0,1,3.28-1.62c1.13-.25,2-.43,2.64-.55s1.11-.37,1.44-.51a1.17,1.17,0,0,0,.51-.65,2.94,2.94,0,0,0,.08-.9,9.62,9.62,0,0,0-.11-1.8,6.09,6.09,0,0,0-.65-1.46,2.53,2.53,0,0,0-1.11-1,2.82,2.82,0,0,0-1.59-.41,4.36,4.36,0,0,0-2.3.67,4.53,4.53,0,0,0-1.66,1.85h-.29v-1.94a8.33,8.33,0,0,1,2.58-1.69m3.91,8.72a8,8,0,0,0-1.41.25,8.3,8.3,0,0,0-1.42.44,3.5,3.5,0,0,0-1.24.72,3.42,3.42,0,0,0-.91,1.11,4,4,0,0,0-.27,1.69,3.39,3.39,0,0,0,.83,2.59,2.34,2.34,0,0,0,1.85.88,3.59,3.59,0,0,0,2.16-.72,5.69,5.69,0,0,0,1.52-1.85l.11-5.53a10,10,0,0,1-1.22.42"></path><path class="cls-1" d="M155.12,271.57a8.14,8.14,0,0,1,1.8-2.89A6.58,6.58,0,0,1,159.5,267a9,9,0,0,1,2.94-.51,11.61,11.61,0,0,1,3.08.44,5.06,5.06,0,0,1,2,1.18,6.79,6.79,0,0,0-.4,1.18c-.09.37-.24.83-.31,1.25h-.26a2.53,2.53,0,0,0-.58-1,11.5,11.5,0,0,0-.88-.95,5.28,5.28,0,0,0-1.2-.69,2.9,2.9,0,0,0-1.29-.28,4.92,4.92,0,0,0-2.51.62,4.83,4.83,0,0,0-1.64,1.69,7.65,7.65,0,0,0-1,2.55,15,15,0,0,0-.27,3.12c0,2.57.43,4.46,1.39,5.78a4.64,4.64,0,0,0,4,1.9,3.58,3.58,0,0,0,1.24-.19,5.35,5.35,0,0,0,1.34-.53,5.74,5.74,0,0,0,1.14-.81,3.59,3.59,0,0,0,1-1.08l.18.11c-.1.6-.18,1.25-.23,1.85a7.37,7.37,0,0,1-5.22,2.11,7.39,7.39,0,0,1-2.72-.47,7.19,7.19,0,0,1-2.5-1.52,8.4,8.4,0,0,1-1.73-2.85,11.88,11.88,0,0,1-.72-4.25,11.17,11.17,0,0,1,.73-4.1"></path><path class="cls-1" d="M172.08,259a1.58,1.58,0,0,1,1.12-.53,1.55,1.55,0,0,1,1.13.53,2.33,2.33,0,0,1,.41,1.37,2.14,2.14,0,0,1-.41,1.32,1.35,1.35,0,0,1-1.13.55,1.37,1.37,0,0,1-1.12-.55,1.93,1.93,0,0,1-.49-1.32,2.09,2.09,0,0,1,.49-1.37M172,270.28a19.51,19.51,0,0,0-.22-3.5,6.75,6.75,0,0,0,1.45.23,6.35,6.35,0,0,0,1.41-.23c-.12,1.11-.17,2.22-.21,3.5s0,2.4,0,3.47v3.86c0,1.11,0,2.24,0,3.49s.09,2.34.21,3.31a9.45,9.45,0,0,0-1.41-.07,10.34,10.34,0,0,0-1.45.07,17.08,17.08,0,0,0,.22-3.31c0-1.25.08-2.38.08-3.49v-3.86c0-1.07-.05-2.27-.08-3.47"></path><path class="cls-1" d="M179.38,271.39a7.35,7.35,0,0,1,1.78-2.85,7.13,7.13,0,0,1,2.4-1.62,10.89,10.89,0,0,1,2.78-.48,10.74,10.74,0,0,1,2.73.48,6.79,6.79,0,0,1,2.41,1.62,8.32,8.32,0,0,1,1.8,2.85,13.78,13.78,0,0,1,0,8.55,7.3,7.3,0,0,1-1.8,2.83,5.67,5.67,0,0,1-2.41,1.57,8.81,8.81,0,0,1-2.73.42,9,9,0,0,1-2.78-.42,5.89,5.89,0,0,1-2.4-1.57,6.55,6.55,0,0,1-1.78-2.83,14.38,14.38,0,0,1,0-8.55m2.28,7.28a10.31,10.31,0,0,0,.81,2.55A5.14,5.14,0,0,0,184,283a4.15,4.15,0,0,0,2.34.63,4,4,0,0,0,2.29-.63,4.62,4.62,0,0,0,1.54-1.82,8,8,0,0,0,.77-2.55,15,15,0,0,0,0-6,7.48,7.48,0,0,0-.77-2.56,4.45,4.45,0,0,0-1.54-1.81,3.66,3.66,0,0,0-2.29-.69,3.75,3.75,0,0,0-2.34.69,4.94,4.94,0,0,0-1.53,1.81,9.4,9.4,0,0,0-.81,2.56,19.48,19.48,0,0,0,0,6m8.56-21.44a1.59,1.59,0,0,1,.69.3,1.24,1.24,0,0,1,.33.88,1.49,1.49,0,0,1-.35,1.06,6.39,6.39,0,0,1-.79.7l-4.56,3.49h-1.35l4.65-5.51a1.82,1.82,0,0,1,1.38-.92"></path><path class="cls-1" d="M206.82,269.84a3,3,0,0,0-2.53-1.46,3.42,3.42,0,0,0-3.22,1.59,8,8,0,0,0-1,4.47v3.17c0,1.11,0,2.24.06,3.49s.08,2.34.17,3.31a8.86,8.86,0,0,0-1.37-.07,11.8,11.8,0,0,0-1.52.07,19.42,19.42,0,0,0,.29-3.31c0-1.25,0-2.38,0-3.49v-3.86c0-1.07,0-2.27,0-3.47a22.42,22.42,0,0,0-.29-3.5,9,9,0,0,0,1.52.23,1.77,1.77,0,0,0,.54-.09,2.12,2.12,0,0,0,.69-.14c0,1-.09,2.06-.09,3h.09a7.33,7.33,0,0,1,2-2.43,5.22,5.22,0,0,1,3-.92,4.73,4.73,0,0,1,1.78.34,3.87,3.87,0,0,1,1.67,1,6.49,6.49,0,0,1,1.13,2,9.1,9.1,0,0,1,.49,3.15c0,1.06,0,2.15-.06,3.31s0,2.26,0,3.51v3.59c0,.37,0,.79,0,1.11a8.23,8.23,0,0,0-1.35-.07,8.47,8.47,0,0,0-1.33.07c0-1.25.1-2.62.12-4s.14-2.71.14-4.12V274a8.14,8.14,0,0,0-.89-4.16"></path><polygon class="cls-1" points="118.7 86.02 146.77 148.59 127.39 162.82 103.27 108.88 72.45 180.38 71.25 181.63 68.78 182.53 46.88 182.53 46.27 182.28 87.88 85.42 89.13 84.17 90.64 84.17 117.53 84.17 118.03 84.72 118.7 86.02"></polygon><polygon class="cls-1" points="127.51 163.26 102.71 183.13 135.6 183.13 127.51 163.26"></polygon><polygon class="cls-1" points="127.51 163.26 102.71 183.13 135.6 183.13 127.51 163.26"></polygon><polygon class="cls-1" points="147.1 148.97 196.45 108.34 164.04 182.85 163.54 182.85 162.5 182.85 161.78 182.09 147.1 148.97"></polygon><polygon class="cls-1" points="147.1 148.97 196.45 108.34 164.04 182.85 163.54 182.85 162.5 182.85 161.78 182.09 147.1 148.97"></polygon><path class="cls-1" d="M398.75,82.91h6a18.72,18.72,0,0,1,4.2.45A9.31,9.31,0,0,1,412,85a10.79,10.79,0,0,1,2.82,3.79,11.36,11.36,0,0,1,1,4.72,11.69,11.69,0,0,1-1.12,5.14,9.45,9.45,0,0,1-3.16,3.81,8.6,8.6,0,0,1-2.9,1.33,18.94,18.94,0,0,1-4.8.43h-5.1Zm2,2.06v17.22h4.33c2.75,0,4.85-.76,6.29-2.3a8.86,8.86,0,0,0,2.19-6.44,9.24,9.24,0,0,0-.76-3.86,8.39,8.39,0,0,0-2.12-3,6.94,6.94,0,0,0-2.32-1.24,13.46,13.46,0,0,0-3.74-.38Z"></path><path class="cls-1" d="M417.61,93.43a10.56,10.56,0,0,1,.84-4.27,10.31,10.31,0,0,1,2.46-3.55,10.49,10.49,0,0,1,3.49-2.32,9.92,9.92,0,0,1,4.06-.81,10.23,10.23,0,0,1,4.14.81,10.88,10.88,0,0,1,3.48,2.32,9.81,9.81,0,0,1,2.46,3.55,11.5,11.5,0,0,1,.81,4.27,11.71,11.71,0,0,1-.72,4.15,10.7,10.7,0,0,1-2,3.48,12.34,12.34,0,0,1-3.73,2.66,10.84,10.84,0,0,1-4.46.91,10.35,10.35,0,0,1-7.67-3.21,11.06,11.06,0,0,1-3.12-8m2.19,0a9,9,0,0,0,2.53,6.51,8.52,8.52,0,0,0,12.39,0,9.3,9.3,0,0,0,2.5-6.57,8.55,8.55,0,0,0-2.59-6.27,8.42,8.42,0,0,0-6.23-2.62,8.14,8.14,0,0,0-2.83.53A9.36,9.36,0,0,0,423,86.5a10.79,10.79,0,0,0-2.37,3.13,9,9,0,0,0-.86,3.82"></path><path class="cls-1" d="M459.27,88.42a9.34,9.34,0,0,0-3.21-2.92,8.42,8.42,0,0,0-4.05-.91A8,8,0,0,0,446,87.2a8.6,8.6,0,0,0-2.53,6.25,9,9,0,0,0,2.52,6.51,8,8,0,0,0,6.07,2.67,8.8,8.8,0,0,0,4-.95A8.42,8.42,0,0,0,459.07,99h2.52a10.9,10.9,0,0,1-3.94,4.19,10.42,10.42,0,0,1-5.5,1.48,10.77,10.77,0,0,1-7.85-3.2,11,11,0,0,1-3.14-8,10.37,10.37,0,0,1,.88-4.27,10.77,10.77,0,0,1,2.47-3.55,9.87,9.87,0,0,1,3.4-2.32,10.41,10.41,0,0,1,4.12-.81A10.67,10.67,0,0,1,457.76,84a11,11,0,0,1,4,4.38Z"></path><polygon class="cls-1" points="466.9 92.45 475.83 92.45 475.83 94.5 466.9 94.5 466.9 102.13 475.83 102.13 475.83 104.21 464.79 104.21 464.79 82.91 475.83 82.91 475.83 84.99 466.9 84.99 466.9 92.45"></polygon><polygon class="cls-1" points="493.96 101.66 493.71 82.91 495.79 82.91 495.79 104.21 493.28 104.21 481.58 85.42 481.78 104.21 479.77 104.21 479.77 82.91 482.28 82.91 493.96 101.66"></polygon><path class="cls-1" d="M516.77,88.42a9.26,9.26,0,0,0-3.21-2.92,8.7,8.7,0,0,0-10.09,1.7A8.66,8.66,0,0,0,501,93.45a9.05,9.05,0,0,0,2.51,6.51,8.1,8.1,0,0,0,6.09,2.67A8.54,8.54,0,0,0,516.64,99h2.53a11.34,11.34,0,0,1-4,4.19,10.54,10.54,0,0,1-5.52,1.48,10.68,10.68,0,0,1-7.84-3.2,11.74,11.74,0,0,1-2.29-12.27,10.56,10.56,0,0,1,2.5-3.55,9.36,9.36,0,0,1,3.43-2.32,10.17,10.17,0,0,1,4.07-.81A10.77,10.77,0,0,1,515.31,84a11.46,11.46,0,0,1,4,4.38Z"></path><rect class="cls-1" x="522.3" y="82.91" width="2.1" height="21.3"></rect><path class="cls-1" d="M527.84,104.21h-2.19l8.2-21.3h2.6l8.2,21.3H542.4l-2.51-6.66h-9.5Zm11.27-8.61-4-10.69-4,10.69Z"></path><path class="cls-1" d="M554.71,82.91h6a18.67,18.67,0,0,1,4.18.45A9.53,9.53,0,0,1,568,85a10.66,10.66,0,0,1,2.86,3.79,11.67,11.67,0,0,1,1,4.72,12.12,12.12,0,0,1-1.09,5.14,10.14,10.14,0,0,1-3.16,3.81,9.27,9.27,0,0,1-2.88,1.33,19.53,19.53,0,0,1-4.86.43h-5.1Zm2,2.06v17.22h4.37a8.23,8.23,0,0,0,6.26-2.3c1.48-1.48,2.2-3.67,2.2-6.44a9.56,9.56,0,0,0-.72-3.86,8.32,8.32,0,0,0-2.19-3,6.1,6.1,0,0,0-2.32-1.24,13.36,13.36,0,0,0-3.75-.38Z"></path><polygon class="cls-1" points="576.79 92.45 585.76 92.45 585.76 94.5 576.79 94.5 576.79 102.13 585.76 102.13 585.76 104.21 574.71 104.21 574.71 82.91 585.76 82.91 585.76 84.99 576.79 84.99 576.79 92.45"></polygon><path class="cls-1" d="M597.94,82.91h4.49a17.83,17.83,0,0,1,3.14.21,4.61,4.61,0,0,1,1.92.68A5.61,5.61,0,0,1,609.67,86a6.51,6.51,0,0,1,.77,3.06,6.36,6.36,0,0,1-.68,2.94,5.17,5.17,0,0,1-1.92,2.18,6.26,6.26,0,0,1-2,.85,16.48,16.48,0,0,1-3,.24H600v9h-2.06ZM600,85v8.15h3.11a6.19,6.19,0,0,0,3.8-1,3.6,3.6,0,0,0,1.23-3A3.69,3.69,0,0,0,606.91,86a6.42,6.42,0,0,0-4-1Z"></path><path class="cls-1" d="M615.06,85v19.22H613V82.91h5.71a12.27,12.27,0,0,1,3,.28,5.82,5.82,0,0,1,4.09,3.33,6.67,6.67,0,0,1,.78,3.17A6.58,6.58,0,0,1,625.08,94a4.92,4.92,0,0,1-3.65,1.9l5.17,8.35h-2.51L617.78,94h2a4.52,4.52,0,0,0,3.29-1.23,3.94,3.94,0,0,0,1.26-3,5,5,0,0,0-.36-2,4.57,4.57,0,0,0-1.16-1.59,3.71,3.71,0,0,0-1.52-.83,16.08,16.08,0,0,0-3.18-.24Z"></path><polygon class="cls-1" points="632.06 92.45 640.99 92.45 640.99 94.5 632.06 94.5 632.06 102.13 640.99 102.13 640.99 104.21 629.92 104.21 629.92 82.91 640.99 82.91 640.99 84.99 632.06 84.99 632.06 92.45"></polygon><path class="cls-1" d="M652.4,94h13.28a11.23,11.23,0,0,1-3.38,7.65,10.46,10.46,0,0,1-7.58,3A10.35,10.35,0,0,1,647,101.4a11.15,11.15,0,0,1-3.12-8,10.36,10.36,0,0,1,.87-4.27,10.51,10.51,0,0,1,2.48-3.55,10.09,10.09,0,0,1,3.54-2.36,10.62,10.62,0,0,1,4.22-.77A10.51,10.51,0,0,1,660.58,84a11,11,0,0,1,3.93,4.26h-2.59a10.45,10.45,0,0,0-3.22-2.81,8,8,0,0,0-3.85-.94,8.36,8.36,0,0,0-6.2,2.62,9,9,0,0,0-2.5,6.33,9.21,9.21,0,0,0,2.5,6.55,8.4,8.4,0,0,0,6.26,2.63,8.14,8.14,0,0,0,5.25-1.89,8.6,8.6,0,0,0,3-4.88H652.4Z"></path><path class="cls-1" d="M670.35,85v19.22h-2V82.91H674a12.53,12.53,0,0,1,3,.28,6.2,6.2,0,0,1,2.08.93,6.69,6.69,0,0,1,2,2.4,7.4,7.4,0,0,1,.72,3.17A6.54,6.54,0,0,1,680.37,94a5.06,5.06,0,0,1-3.67,1.9l5.14,8.35h-2.45L673,94h2a4.59,4.59,0,0,0,3.33-1.23,3.86,3.86,0,0,0,1.25-3,5.15,5.15,0,0,0-.39-2,4.34,4.34,0,0,0-1.12-1.59,3.65,3.65,0,0,0-1.52-.83,15.9,15.9,0,0,0-3.14-.24Z"></path><path class="cls-1" d="M684.69,104.21H682.5l8.26-21.3h2.52l8.24,21.3h-2.26l-2.54-6.66h-9.47ZM696,95.6l-4-10.69L688,95.6Z"></path><path class="cls-1" d="M703.1,82.91h6.06a18.82,18.82,0,0,1,4.21.45,9.32,9.32,0,0,1,3,1.63,11.27,11.27,0,0,1,2.86,3.79,11.82,11.82,0,0,1,1,4.72,12,12,0,0,1-1.07,5.14,10.14,10.14,0,0,1-3.16,3.81,9.32,9.32,0,0,1-2.91,1.33,19.37,19.37,0,0,1-4.86.43h-5.1ZM705.19,85v17.22h4.33a8.11,8.11,0,0,0,6.23-2.3A8.72,8.72,0,0,0,718,93.45a10.49,10.49,0,0,0-.74-3.86,8.37,8.37,0,0,0-2.16-3,6.94,6.94,0,0,0-2.32-1.24A13.56,13.56,0,0,0,709,85Z"></path><path class="cls-1" d="M722,93.43a10.74,10.74,0,0,1,.85-4.27,10,10,0,0,1,2.46-3.55,10.58,10.58,0,0,1,3.46-2.32,10,10,0,0,1,4.07-.81,11.12,11.12,0,0,1,10.07,6.68,11,11,0,0,1,.85,4.27,11.72,11.72,0,0,1-.75,4.15,9.84,9.84,0,0,1-2.08,3.48,12.05,12.05,0,0,1-3.69,2.66,10.92,10.92,0,0,1-4.44.91,10.58,10.58,0,0,1-7.73-3.21,11.32,11.32,0,0,1-3.07-8m2.19,0a9,9,0,0,0,2.52,6.51,8.27,8.27,0,0,0,6.29,2.67,8.15,8.15,0,0,0,6.1-2.67,9.34,9.34,0,0,0,2.49-6.57A8.71,8.71,0,0,0,739,87.12a8.44,8.44,0,0,0-6.2-2.62A7.74,7.74,0,0,0,730,85a9,9,0,0,0-2.52,1.47,9.18,9.18,0,0,0-2.38,3.13,8.72,8.72,0,0,0-.87,3.82"></path><path class="cls-1" d="M407.22,129.93H420.5a11.21,11.21,0,0,1-3.38,7.63,10.92,10.92,0,0,1-15.29-.21,11.12,11.12,0,0,1-3.08-8,10.41,10.41,0,0,1,.84-4.23,10.75,10.75,0,0,1,2.48-3.66,11.88,11.88,0,0,1,3.49-2.32,12.25,12.25,0,0,1,4.24-.78,11,11,0,0,1,5.6,1.53,11.38,11.38,0,0,1,3.94,4.27h-2.57a10.18,10.18,0,0,0-3.23-2.81,8,8,0,0,0-3.83-.89,8.37,8.37,0,0,0-6.24,2.61,8.67,8.67,0,0,0-2.5,6.28,9,9,0,0,0,2.5,6.57,8.29,8.29,0,0,0,6.25,2.59,8.05,8.05,0,0,0,5.24-1.89,8.2,8.2,0,0,0,3-4.81H407.22Z"></path><polygon class="cls-1" points="425.48 128.42 434.41 128.42 434.41 130.52 425.48 130.52 425.48 138.09 434.41 138.09 434.41 140.17 423.43 140.17 423.43 118.83 434.41 118.83 434.41 120.92 425.48 120.92 425.48 128.42"></polygon><path class="cls-1" d="M437.29,134.05h2a4.77,4.77,0,0,0,1.15,3.13,3.49,3.49,0,0,0,2.81,1.19,3.62,3.62,0,0,0,2.9-1.17,4.38,4.38,0,0,0,1.1-3.15c0-1.89-1.47-3.36-4.48-4.36a5.14,5.14,0,0,0-.51-.19,7.14,7.14,0,0,1-3.36-2,4.72,4.72,0,0,1-1-3.21,5.41,5.41,0,0,1,5.65-5.8,5.28,5.28,0,0,1,3.84,1.45,6.49,6.49,0,0,1,1.55,4.18h-2a4.46,4.46,0,0,0-1-2.72,3.1,3.1,0,0,0-2.39-.89,3.4,3.4,0,0,0-2.55,1,3.67,3.67,0,0,0-1,2.61,3.32,3.32,0,0,0,.33,1.47,3.44,3.44,0,0,0,.93,1.11,11.08,11.08,0,0,0,2.58,1.06c.75.28,1.29.43,1.65.6a6.13,6.13,0,0,1,3,2.06,5.33,5.33,0,0,1,.92,3.29,7.36,7.36,0,0,1-1.67,5,5.85,5.85,0,0,1-4.54,1.91,5.52,5.52,0,0,1-4.2-1.79,6.84,6.84,0,0,1-1.66-4.74"></path><polygon class="cls-1" points="456.89 140.17 454.81 140.17 454.81 120.92 450.56 120.92 450.56 118.83 461.12 118.83 461.12 120.92 456.89 120.92 456.89 140.17"></polygon><rect class="cls-1" x="463.29" y="118.83" width="2.1" height="21.34"></rect><path class="cls-1" d="M468.25,129.38a10.06,10.06,0,0,1,.88-4.23,10.84,10.84,0,0,1,5.91-6,11.17,11.17,0,0,1,4.08-.76,11.36,11.36,0,0,1,4.13.76,11.12,11.12,0,0,1,3.51,2.34,10.57,10.57,0,0,1,2.42,3.57,10.78,10.78,0,0,1,.82,4.28,11.65,11.65,0,0,1-.7,4.14,10.23,10.23,0,0,1-2.08,3.44,11.53,11.53,0,0,1-3.67,2.7,11,11,0,0,1-4.46.92,10.32,10.32,0,0,1-7.7-3.23,11,11,0,0,1-3.14-8m2.24,0a9.13,9.13,0,0,0,2.46,6.54,8.33,8.33,0,0,0,6.27,2.62,8.19,8.19,0,0,0,6.15-2.64,9.38,9.38,0,0,0,2.48-6.55,8.6,8.6,0,0,0-2.58-6.25,8.29,8.29,0,0,0-6.18-2.61,8,8,0,0,0-2.84.49,8.87,8.87,0,0,0-2.52,1.49,9.34,9.34,0,0,0-2.41,3.12,9,9,0,0,0-.83,3.79m8.2-12.55h-1.33l3-5.18h2.25Z"></path><polygon class="cls-1" points="507.08 137.58 506.85 118.83 508.9 118.83 508.9 140.17 506.38 140.17 494.7 121.38 494.93 140.17 492.88 140.17 492.88 118.83 495.39 118.83 507.08 137.58"></polygon><rect class="cls-1" x="521.31" y="118.83" width="2.11" height="21.34"></rect><polygon class="cls-1" points="541.54 137.58 541.26 118.83 543.34 118.83 543.34 140.17 540.85 140.17 529.15 121.38 529.36 140.17 527.34 140.17 527.34 118.83 529.85 118.83 541.54 137.58"></polygon><path class="cls-1" d="M546.21,134.05h2a4.32,4.32,0,0,0,1.11,3.13,3.41,3.41,0,0,0,2.77,1.19,3.81,3.81,0,0,0,3-1.17,4.5,4.5,0,0,0,1.08-3.15c0-1.89-1.51-3.36-4.49-4.36a3.49,3.49,0,0,1-.48-.19,7.22,7.22,0,0,1-3.42-2,4.77,4.77,0,0,1-1-3.21,5.84,5.84,0,0,1,1.62-4.2,5.64,5.64,0,0,1,4.11-1.6,5.2,5.2,0,0,1,3.8,1.45,6.39,6.39,0,0,1,1.56,4.18h-2a4.58,4.58,0,0,0-1-2.72,3,3,0,0,0-2.34-.89,3.36,3.36,0,0,0-2.56,1,3.44,3.44,0,0,0-1,2.61,3.19,3.19,0,0,0,.3,1.47,3.4,3.4,0,0,0,.95,1.11,10.84,10.84,0,0,0,2.53,1.06c.78.28,1.32.43,1.68.6a5.92,5.92,0,0,1,3,2.06,5.2,5.2,0,0,1,.93,3.29,7.21,7.21,0,0,1-1.67,5,5.78,5.78,0,0,1-4.49,1.91,5.38,5.38,0,0,1-4.23-1.79,7,7,0,0,1-1.68-4.74"></path><polygon class="cls-1" points="565.83 140.17 563.71 140.17 563.71 120.92 559.5 120.92 559.5 118.83 570.08 118.83 570.08 120.92 565.83 120.92 565.83 140.17"></polygon><rect class="cls-1" x="572.23" y="118.83" width="2.1" height="21.34"></rect><polygon class="cls-1" points="582.83 140.17 580.76 140.17 580.76 120.92 576.49 120.92 576.49 118.83 587.09 118.83 587.09 120.92 582.83 120.92 582.83 140.17"></polygon><path class="cls-1" d="M588.92,118.83H591v13.48a22.3,22.3,0,0,0,.09,2.36,5.91,5.91,0,0,0,.4,1.36,4.7,4.7,0,0,0,1.7,1.87,4.31,4.31,0,0,0,2.49.72,4.09,4.09,0,0,0,3.59-1.63,9.2,9.2,0,0,0,1.16-5.11v-13h2V132.4c0,2.74-.53,4.8-1.63,6.14a6,6,0,0,1-5,2c-2.38,0-4.13-.64-5.23-2s-1.72-3.4-1.72-6.22Z"></path><path class="cls-1" d="M623.16,124.36a9.63,9.63,0,0,0-3.19-2.89,8.19,8.19,0,0,0-4.06-1,8.08,8.08,0,0,0-6.09,2.66,8.67,8.67,0,0,0-2.53,6.23,9.07,9.07,0,0,0,2.51,6.52,8.13,8.13,0,0,0,6.11,2.64,8.35,8.35,0,0,0,4-.9,9,9,0,0,0,3.15-2.78h2.43a10.46,10.46,0,0,1-3.93,4.21,10.14,10.14,0,0,1-5.49,1.51,10.54,10.54,0,0,1-7.82-3.23,10.83,10.83,0,0,1-3.2-8,10.5,10.5,0,0,1,.88-4.23,11.61,11.61,0,0,1,2.51-3.66,10.44,10.44,0,0,1,3.4-2.3,11.44,11.44,0,0,1,4.13-.76,10.84,10.84,0,0,1,5.67,1.53,11,11,0,0,1,4,4.4Z"></path><rect class="cls-1" x="628.68" y="118.83" width="2.07" height="21.34"></rect><path class="cls-1" d="M633.64,129.38a11.31,11.31,0,0,1,3.35-7.89,11,11,0,0,1,3.42-2.3,11,11,0,0,1,8.22,0,10.27,10.27,0,0,1,3.48,2.34,11.15,11.15,0,0,1,2.51,3.57,12.38,12.38,0,0,1,.78,4.28,11.23,11.23,0,0,1-.73,4.14,10.07,10.07,0,0,1-2.08,3.44,11.28,11.28,0,0,1-3.66,2.7,11.08,11.08,0,0,1-4.48.92,10.31,10.31,0,0,1-7.69-3.23,11.11,11.11,0,0,1-3.12-8m2.21,0a9.14,9.14,0,0,0,2.48,6.54,8.3,8.3,0,0,0,6.3,2.62,8,8,0,0,0,6.1-2.64,9.22,9.22,0,0,0,2.55-6.55,8.66,8.66,0,0,0-2.6-6.25,8.49,8.49,0,0,0-6.23-2.61,7.84,7.84,0,0,0-2.81.49,8.57,8.57,0,0,0-2.54,1.47,9,9,0,0,0-2.4,3.14,8.57,8.57,0,0,0-.85,3.79"></path><polygon class="cls-1" points="672.45 137.58 672.18 118.83 674.27 118.83 674.27 140.17 671.77 140.17 660.08 121.38 660.35 140.17 658.22 140.17 658.22 118.83 660.75 118.83 672.45 137.58"></polygon><path class="cls-1" d="M677.75,140.17h-2.16l8.2-21.34h2.55l8.26,21.34h-2.27l-2.53-6.71h-9.49Zm11.34-8.63L685,120.85l-4,10.69Z"></path><polygon class="cls-1" points="705.77 140.17 696.18 140.17 696.18 118.83 698.31 118.83 698.31 138.09 705.77 138.09 705.77 140.17"></polygon><path class="cls-1" d="M398.75,154.8h6a15.42,15.42,0,0,1,4.19.47,8.65,8.65,0,0,1,3,1.59,10.93,10.93,0,0,1,2.79,3.76,10.49,10.49,0,0,1,1.06,4.79,12.24,12.24,0,0,1-1.13,5.16,10.18,10.18,0,0,1-3.14,3.78,9,9,0,0,1-2.93,1.32,19.42,19.42,0,0,1-4.86.41h-5Zm2,2v17.3h4.33a8.24,8.24,0,0,0,6.28-2.3,8.87,8.87,0,0,0,2.19-6.44,9.88,9.88,0,0,0-.77-3.91,7.48,7.48,0,0,0-2.1-2.95,6.93,6.93,0,0,0-2.34-1.3,13.87,13.87,0,0,0-3.74-.4Z"></path><path class="cls-1" d="M417.59,165.3a10.54,10.54,0,0,1,.86-4.21,12.15,12.15,0,0,1,2.48-3.63,11.56,11.56,0,0,1,3.46-2.32,10,10,0,0,1,4.07-.75,10.61,10.61,0,0,1,4.19.75,11.31,11.31,0,0,1,5.91,6,10.53,10.53,0,0,1,.8,4.21,12.69,12.69,0,0,1-.69,4.21,10.8,10.8,0,0,1-2.13,3.4,9.71,9.71,0,0,1-3.7,2.66,9.85,9.85,0,0,1-4.4,1,10.1,10.1,0,0,1-7.72-3.27,10.84,10.84,0,0,1-3.13-7.95m2.19,0a9.1,9.1,0,0,0,2.56,6.53,8.42,8.42,0,0,0,6.26,2.63,8,8,0,0,0,6.08-2.63,9.21,9.21,0,0,0,2.49-6.59,8.81,8.81,0,0,0-2.53-6.25,8.39,8.39,0,0,0-6.2-2.64,8.73,8.73,0,0,0-2.84.51,7.34,7.34,0,0,0-2.53,1.51,9.9,9.9,0,0,0-2.41,3.15,8.9,8.9,0,0,0-.88,3.78"></path><path class="cls-1" d="M459.28,160.3a10,10,0,0,0-3.21-2.93,8.87,8.87,0,0,0-4-.93,8.09,8.09,0,0,0-6.11,2.61,8.93,8.93,0,0,0-2.49,6.33,9.18,9.18,0,0,0,2.49,6.49A8.12,8.12,0,0,0,452,174.5a8.7,8.7,0,0,0,4-.93,8.86,8.86,0,0,0,3.1-2.76h2.52a11.12,11.12,0,0,1-4,4.24,11.19,11.19,0,0,1-13.37-1.72,11.1,11.1,0,0,1-3.11-8,12.54,12.54,0,0,1,.81-4.21,13.45,13.45,0,0,1,2.5-3.66,11.88,11.88,0,0,1,3.41-2.29,10.4,10.4,0,0,1,4.12-.75,10.64,10.64,0,0,1,9.75,5.91Z"></path><polygon class="cls-1" points="466.91 164.36 475.86 164.36 475.86 166.47 466.91 166.47 466.91 174.03 475.86 174.03 475.86 176.08 464.82 176.08 464.82 154.8 475.86 154.8 475.86 156.86 466.91 156.86 466.91 164.36"></polygon><polygon class="cls-1" points="494 173.55 493.73 154.8 495.79 154.8 495.79 176.08 493.32 176.08 481.6 157.28 481.85 176.08 479.77 176.08 479.77 154.8 482.28 154.8 494 173.55"></polygon><path class="cls-1" d="M516.8,160.3a9.86,9.86,0,0,0-3.2-2.93,9,9,0,0,0-4-.93,8,8,0,0,0-6.1,2.61,8.83,8.83,0,0,0-2.51,6.33,9.35,9.35,0,0,0,2.43,6.49,8.37,8.37,0,0,0,6.18,2.63,8.65,8.65,0,0,0,4-.93,8.77,8.77,0,0,0,3.1-2.76h2.47a10.86,10.86,0,0,1-17.25,2.52,11,11,0,0,1-3.15-8,10.39,10.39,0,0,1,.88-4.21,12.09,12.09,0,0,1,2.46-3.66,11,11,0,0,1,3.41-2.29,10.3,10.3,0,0,1,4.12-.75,10.89,10.89,0,0,1,5.72,1.53,10.48,10.48,0,0,1,4,4.38Z"></path><rect class="cls-1" x="522.34" y="154.8" width="2.05" height="21.28"></rect><path class="cls-1" d="M527.87,176.08h-2.23l8.28-21.28h2.5l8.25,21.28h-2.26l-2.53-6.68H530.4Zm11.25-8.57-4-10.71-4,10.71Z"></path><path class="cls-1" d="M554.7,154.8h6a15.25,15.25,0,0,1,4.2.47,9.15,9.15,0,0,1,3,1.59,10.63,10.63,0,0,1,2.77,3.76,11,11,0,0,1,1,4.79,12.06,12.06,0,0,1-1.09,5.16,10,10,0,0,1-3.16,3.78,8.27,8.27,0,0,1-2.91,1.32,19.2,19.2,0,0,1-4.83.41H554.7Zm2,2v17.3h4.35a8.19,8.19,0,0,0,6.26-2.3c1.49-1.51,2.2-3.67,2.2-6.44a10.22,10.22,0,0,0-.71-3.91,8.07,8.07,0,0,0-2.17-2.95,7,7,0,0,0-2.3-1.3,14.36,14.36,0,0,0-3.78-.4Z"></path><polygon class="cls-1" points="576.83 164.36 585.71 164.36 585.71 166.47 576.83 166.47 576.83 174.03 585.71 174.03 585.71 176.08 574.69 176.08 574.69 154.8 585.71 154.8 585.71 156.86 576.83 156.86 576.83 164.36"></polygon><path class="cls-1" d="M597.93,154.8h4.52a20.23,20.23,0,0,1,3.13.21,4.91,4.91,0,0,1,1.92.68,5.24,5.24,0,0,1,2.16,2.19,6,6,0,0,1,.79,3,6.57,6.57,0,0,1-.69,3,5.75,5.75,0,0,1-1.92,2.21,6,6,0,0,1-2,.83,16.52,16.52,0,0,1-3,.24H600v8.93h-2.08Zm2.08,2.06V165h3.09a6,6,0,0,0,3.8-1,4.37,4.37,0,0,0,0-6.16,6.25,6.25,0,0,0-3.93-1Z"></path><path class="cls-1" d="M612.21,165.3a10.69,10.69,0,0,1,.84-4.21,12.21,12.21,0,0,1,2.5-3.63,10.56,10.56,0,0,1,3.44-2.32,10,10,0,0,1,4.08-.75,10.66,10.66,0,0,1,4.18.75,11.74,11.74,0,0,1,3.44,2.34,10.9,10.9,0,0,1,2.48,3.61,11.08,11.08,0,0,1,.82,4.21,13.22,13.22,0,0,1-.7,4.21,11.81,11.81,0,0,1-2.14,3.4,11.06,11.06,0,0,1-8.1,3.61,10,10,0,0,1-7.69-3.27,10.74,10.74,0,0,1-3.15-7.95m2.22,0a9,9,0,0,0,2.49,6.53,8.37,8.37,0,0,0,6.26,2.63,8.14,8.14,0,0,0,6.14-2.63,9.38,9.38,0,0,0,2.48-6.59,8.61,8.61,0,0,0-2.54-6.25,8.44,8.44,0,0,0-6.21-2.64,8.66,8.66,0,0,0-2.86.51,8.17,8.17,0,0,0-2.56,1.51,9.41,9.41,0,0,0-2.33,3.15,8.6,8.6,0,0,0-.87,3.78"></path><path class="cls-1" d="M635.74,170h2a4.73,4.73,0,0,0,1.09,3.16,3.77,3.77,0,0,0,2.78,1.17,4.13,4.13,0,0,0,3-1.16,4.58,4.58,0,0,0,1.1-3.17c0-2-1.5-3.4-4.5-4.4l-.48-.15a7.75,7.75,0,0,1-3.41-2.06,4.81,4.81,0,0,1-1-3.21,5.68,5.68,0,0,1,1.59-4.17,5.4,5.4,0,0,1,4.1-1.61,5.06,5.06,0,0,1,3.81,1.46,6.45,6.45,0,0,1,1.57,4.13h-2a4,4,0,0,0-1-2.66,3.25,3.25,0,0,0-2.37-1,3.6,3.6,0,0,0-2.61,1,3.64,3.64,0,0,0-1,2.6,3.41,3.41,0,0,0,.36,1.49,2.77,2.77,0,0,0,.95,1.08,8.44,8.44,0,0,0,2.57,1.1c.71.26,1.28.45,1.69.62a6.39,6.39,0,0,1,3,2,5.5,5.5,0,0,1,.94,3.3,7.17,7.17,0,0,1-1.7,5,5.74,5.74,0,0,1-4.49,1.91,5.6,5.6,0,0,1-4.25-1.78,7.12,7.12,0,0,1-1.64-4.72"></path><polygon class="cls-1" points="655.36 176.08 653.3 176.08 653.3 156.86 649.01 156.86 649.01 154.8 659.6 154.8 659.6 156.86 655.36 156.86 655.36 176.08"></polygon><path class="cls-1" d="M669.23,165.89h13.2a10.93,10.93,0,0,1-3.35,7.63,10.53,10.53,0,0,1-7.55,3,10.13,10.13,0,0,1-7.7-3.21,11,11,0,0,1-3.15-8,10.72,10.72,0,0,1,.87-4.21,11.17,11.17,0,0,1,2.44-3.63,10.5,10.5,0,0,1,3.54-2.34,11,11,0,0,1,4.23-.73,10.39,10.39,0,0,1,5.57,1.49,10.68,10.68,0,0,1,4,4.28h-2.58a11.59,11.59,0,0,0-3.25-2.88,8.82,8.82,0,0,0-3.84-.89,8.26,8.26,0,0,0-6.17,2.64,8.74,8.74,0,0,0-2.55,6.31,9,9,0,0,0,2.55,6.55,8.31,8.31,0,0,0,6.22,2.61,8.19,8.19,0,0,0,5.24-1.89,8.57,8.57,0,0,0,3-4.85H669.23Z"></path><path class="cls-1" d="M687.11,156.86v19.22H685V154.8h5.75a14.94,14.94,0,0,1,3,.25,6.37,6.37,0,0,1,2.14,1,5.88,5.88,0,0,1,2,2.38,6.71,6.71,0,0,1,.75,3.17,6.27,6.27,0,0,1-1.49,4.25,5.12,5.12,0,0,1-3.64,1.93l5.13,8.32h-2.49l-6.3-10.25h2a4.68,4.68,0,0,0,3.28-1.17,4.05,4.05,0,0,0,1.21-3,5.54,5.54,0,0,0-.36-2.08,4,4,0,0,0-1.14-1.6,3.73,3.73,0,0,0-1.51-.8,14.36,14.36,0,0,0-3.2-.28Z"></path><path class="cls-1" d="M701.49,176.08h-2.2l8.26-21.28h2.5l8.26,21.28H716l-2.49-6.68H704Zm11.33-8.57-4.07-10.71-4,10.71Z"></path><path class="cls-1" d="M719.9,154.8h6a15.72,15.72,0,0,1,4.21.47,9.05,9.05,0,0,1,3,1.59,11.47,11.47,0,0,1,2.84,3.76,12.26,12.26,0,0,1-.11,9.95,10,10,0,0,1-3.16,3.78,8.39,8.39,0,0,1-2.9,1.32,19.65,19.65,0,0,1-4.84.41h-5.1Zm2.09,2v17.3h4.27a8.32,8.32,0,0,0,6.31-2.3,8.91,8.91,0,0,0,2.2-6.44,10.63,10.63,0,0,0-.74-3.91,7.93,7.93,0,0,0-2.16-2.95,6.33,6.33,0,0,0-2.34-1.3,13.92,13.92,0,0,0-3.74-.4Z"></path><path class="cls-1" d="M738.81,165.3a11,11,0,0,1,.82-4.21,11.93,11.93,0,0,1,2.47-3.63,11.51,11.51,0,0,1,3.48-2.32,9.81,9.81,0,0,1,4.07-.75,10.33,10.33,0,0,1,4.14.75,11.49,11.49,0,0,1,3.5,2.34,11,11,0,0,1,3.29,7.82,12,12,0,0,1-.75,4.21,10,10,0,0,1-2.1,3.4,10.94,10.94,0,0,1-3.68,2.66,10.77,10.77,0,0,1-12.15-2.32,10.73,10.73,0,0,1-3.09-7.95m2.16,0a8.93,8.93,0,0,0,2.55,6.53,8.34,8.34,0,0,0,6.24,2.63,8.16,8.16,0,0,0,6.11-2.63,9.26,9.26,0,0,0,2.5-6.59,8.5,8.5,0,0,0-2.58-6.25,8.26,8.26,0,0,0-6.15-2.64,8.65,8.65,0,0,0-2.89.51,7.45,7.45,0,0,0-2.51,1.51,9.49,9.49,0,0,0-3.27,6.93"></path><rect class="cls-1" x="398.75" y="190.72" width="2.05" height="21.32"></rect><polygon class="cls-1" points="418.92 209.51 418.68 190.72 420.75 190.72 420.75 212.04 418.23 212.04 406.56 193.27 406.78 212.04 404.73 212.04 404.73 190.72 407.25 190.72 418.92 209.51"></polygon><polygon class="cls-1" points="422.17 190.72 424.31 190.72 431.03 208.92 437.75 190.72 439.9 190.72 431.87 212.04 430.21 212.04 422.17 190.72"></polygon><polygon class="cls-1" points="443.53 200.27 452.48 200.27 452.48 202.43 443.53 202.43 443.53 209.98 452.48 209.98 452.48 212.04 441.43 212.04 441.43 190.72 452.48 190.72 452.48 192.85 443.53 192.85 443.53 200.27"></polygon><path class="cls-1" d="M455.31,205.94h2a4.53,4.53,0,0,0,1.15,3.17,3.44,3.44,0,0,0,2.78,1.13,3.71,3.71,0,0,0,2.94-1.13,4.6,4.6,0,0,0,1.1-3.17c0-1.91-1.48-3.4-4.48-4.36l-.51-.17a7.38,7.38,0,0,1-3.4-2.06,4.69,4.69,0,0,1-1-3.23,5.68,5.68,0,0,1,1.6-4.14,5.48,5.48,0,0,1,4.1-1.62,5,5,0,0,1,3.81,1.47A6.59,6.59,0,0,1,467,196h-2a4.58,4.58,0,0,0-1-2.68,3,3,0,0,0-2.38-.93,3.5,3.5,0,0,0-2.59,1,3.66,3.66,0,0,0-1,2.61,3,3,0,0,0,.32,1.45,2.46,2.46,0,0,0,.95,1.1,10.48,10.48,0,0,0,2.56,1.15c.72.21,1.31.41,1.69.55a5.88,5.88,0,0,1,3,2.06,5.47,5.47,0,0,1,.95,3.3,7.23,7.23,0,0,1-1.7,5,5.71,5.71,0,0,1-4.49,1.88,5.26,5.26,0,0,1-4.21-1.79,6.56,6.56,0,0,1-1.69-4.72"></path><polygon class="cls-1" points="474.93 212.04 472.82 212.04 472.82 192.85 468.57 192.85 468.57 190.72 479.19 190.72 479.19 192.85 474.93 192.85 474.93 212.04"></polygon><rect class="cls-1" x="481.34" y="190.72" width="2.07" height="21.32"></rect><path class="cls-1" d="M494.8,201.84h13.25a11.23,11.23,0,0,1-3.35,7.63,10.52,10.52,0,0,1-7.58,3,10.33,10.33,0,0,1-7.72-3.21,10.94,10.94,0,0,1-3.09-8,11.2,11.2,0,0,1,.83-4.27,10.29,10.29,0,0,1,2.47-3.59,10.7,10.7,0,0,1,3.54-2.32,10.83,10.83,0,0,1,4.26-.74,10.22,10.22,0,0,1,5.53,1.49,10.66,10.66,0,0,1,3.94,4.23H504.3a10.77,10.77,0,0,0-3.17-2.79A8.77,8.77,0,0,0,491,195a8.77,8.77,0,0,0-2.56,6.29,9.14,9.14,0,0,0,2.56,6.57,8.36,8.36,0,0,0,6.23,2.58,8.13,8.13,0,0,0,5.27-1.87,8.44,8.44,0,0,0,3-4.87H494.8Z"></path><path class="cls-1" d="M510.48,212h-2.23l8.23-21.32H519L527.24,212H525l-2.54-6.71H513Zm11.25-8.63-4-10.67-4,10.67Z"></path><path class="cls-1" d="M545.83,196.25a9,9,0,0,0-3.2-2.87,7.8,7.8,0,0,0-4-1,8.29,8.29,0,0,0-6.06,2.61,8.72,8.72,0,0,0-2.54,6.27,9,9,0,0,0,2.49,6.49,8,8,0,0,0,6.11,2.66,8.09,8.09,0,0,0,7.08-3.64h2.5a10.58,10.58,0,0,1-9.43,5.66,10.38,10.38,0,0,1-7.82-3.19,10.87,10.87,0,0,1-3.12-8,11.18,11.18,0,0,1,.81-4.27,11,11,0,0,1,2.48-3.59,10.41,10.41,0,0,1,3.43-2.3,11.48,11.48,0,0,1,4.1-.76,10.67,10.67,0,0,1,5.7,1.53,10.93,10.93,0,0,1,4.05,4.38Z"></path><rect class="cls-1" x="551.34" y="190.72" width="2.11" height="21.32"></rect><path class="cls-1" d="M556.29,201.26a11.05,11.05,0,0,1,.87-4.27,11.32,11.32,0,0,1,2.47-3.59,11,11,0,0,1,3.46-2.3,9.89,9.89,0,0,1,4.06-.76,11.94,11.94,0,0,1,4.2.76,10.94,10.94,0,0,1,3.44,2.32,11,11,0,0,1,3.3,7.84,11.23,11.23,0,0,1-.76,4.15,11,11,0,0,1-2.05,3.46,11.59,11.59,0,0,1-3.71,2.73,11.45,11.45,0,0,1-4.45.85,10.35,10.35,0,0,1-7.71-3.24,10.94,10.94,0,0,1-3.12-8m2.21,0a9.18,9.18,0,0,0,2.55,6.53,8.16,8.16,0,0,0,6.23,2.62,8.06,8.06,0,0,0,6.14-2.66,9.19,9.19,0,0,0,2.45-6.55,8.63,8.63,0,0,0-2.53-6.23,8.27,8.27,0,0,0-6.22-2.61,8,8,0,0,0-2.83.47,8.24,8.24,0,0,0-2.52,1.48,9.38,9.38,0,0,0-2.39,3.15,8.47,8.47,0,0,0-.88,3.8m8.25-12.6h-1.38l3.09-5.1h2.22Z"></path><polygon class="cls-1" points="595.09 209.51 594.87 190.72 596.92 190.72 596.92 212.04 594.43 212.04 582.74 193.27 583.01 212.04 580.89 212.04 580.89 190.72 583.48 190.72 595.09 209.51"></polygon><polygon class="cls-1" points="398.75 226.67 400.83 226.67 407.61 244.84 414.36 226.67 416.42 226.67 408.43 248.01 406.79 248.01 398.75 226.67"></polygon><rect class="cls-1" x="417.94" y="226.67" width="2.08" height="21.34"></rect><polygon class="cls-1" points="438.13 245.43 437.9 226.67 439.97 226.67 439.97 248.01 437.45 248.01 425.76 229.22 425.98 248.01 423.95 248.01 423.95 226.67 426.44 226.67 438.13 245.43"></polygon><path class="cls-1" d="M461,232.23a9.17,9.17,0,0,0-3.21-2.95,8.5,8.5,0,0,0-4-.94,8.15,8.15,0,0,0-6.07,2.64,8.59,8.59,0,0,0-2.55,6.29,8.9,8.9,0,0,0,2.55,6.46,8,8,0,0,0,6.07,2.66,9.05,9.05,0,0,0,4-.89,9.59,9.59,0,0,0,3.06-2.79h2.52a11,11,0,0,1-3.95,4.26A11.3,11.3,0,0,1,446,245.2,11.42,11.42,0,0,1,443.75,233a11.28,11.28,0,0,1,5.94-5.93,10.41,10.41,0,0,1,4.05-.79,10.65,10.65,0,0,1,5.75,1.59,10.3,10.3,0,0,1,4,4.4Z"></path><path class="cls-1" d="M466.21,226.67h2v13.49a9.18,9.18,0,0,0,.19,2.34,4,4,0,0,0,.38,1.42,4.47,4.47,0,0,0,1.66,1.86,4.88,4.88,0,0,0,2.51.7,4,4,0,0,0,3.57-1.66,9.2,9.2,0,0,0,1.11-5.08V226.67h2.12v13.58c0,2.74-.57,4.8-1.64,6.14a6.05,6.05,0,0,1-5,2c-2.42,0-4.17-.64-5.31-2s-1.64-3.39-1.64-6.21Z"></path><polygon class="cls-1" points="493.01 248.01 483.42 248.01 483.42 226.67 485.57 226.67 485.57 245.94 493.01 245.94 493.01 248.01"></polygon><path class="cls-1" d="M495.26,248h-2.2l8.29-21.34h2.46L512.08,248h-2.25l-2.53-6.72h-9.52Zm11.3-8.63-4-10.69-4,10.69Z"></path><path class="cls-1" d="M530.62,232.23a9.47,9.47,0,0,0-3.19-2.95,8.39,8.39,0,0,0-4-.94,8.08,8.08,0,0,0-6.07,2.64,8.67,8.67,0,0,0-2.55,6.29,9,9,0,0,0,2.55,6.46,8,8,0,0,0,6.07,2.66,8.07,8.07,0,0,0,7.09-3.68H533a11.18,11.18,0,0,1-3.9,4.26,10.86,10.86,0,0,1-5.52,1.42,10.46,10.46,0,0,1-7.83-3.19,10.9,10.9,0,0,1-3.17-8,10.52,10.52,0,0,1,.87-4.27,10.74,10.74,0,0,1,2.49-3.6A11.44,11.44,0,0,1,519.3,227a11.24,11.24,0,0,1,4.13-.79,10.74,10.74,0,0,1,9.73,6Z"></path><rect class="cls-1" x="536.16" y="226.67" width="2.09" height="21.34"></rect><path class="cls-1" d="M541.11,237.21A10.82,10.82,0,0,1,542,233a10.52,10.52,0,0,1,2.43-3.6,11.7,11.7,0,0,1,3.47-2.33,11.07,11.07,0,0,1,4.09-.79,11.34,11.34,0,0,1,4.18.79,11.06,11.06,0,0,1,3.44,2.34,10.8,10.8,0,0,1,2.47,3.59,11.82,11.82,0,0,1,.81,4.25,12.2,12.2,0,0,1-.69,4.17,11,11,0,0,1-2.14,3.44,10.56,10.56,0,0,1-8.09,3.57,10.18,10.18,0,0,1-7.7-3.23,10.81,10.81,0,0,1-3.15-7.95m2.21.06a9.12,9.12,0,0,0,2.49,6.48,8.47,8.47,0,0,0,6.31,2.64,8.12,8.12,0,0,0,6.1-2.66,9.06,9.06,0,0,0,2.53-6.56,8.43,8.43,0,0,0-2.61-6.21,8.29,8.29,0,0,0-6.18-2.64,7.78,7.78,0,0,0-2.87.49,10.08,10.08,0,0,0-2.53,1.47,9.75,9.75,0,0,0-2.38,3.14,8.93,8.93,0,0,0-.86,3.85m8.22-12.64h-1.33l3-5.13h2.2Z"></path><polygon class="cls-1" points="579.92 245.43 579.69 226.67 581.76 226.67 581.76 248.01 579.22 248.01 567.53 229.22 567.82 248.01 565.7 248.01 565.7 226.67 568.25 226.67 579.92 245.43"></polygon><path class="cls-1" d="M611.2,232.23a9.78,9.78,0,0,0-3.2-2.95,8.53,8.53,0,0,0-4-.94,8.22,8.22,0,0,0-6.14,2.64,8.72,8.72,0,0,0-2.51,6.29,9,9,0,0,0,2.51,6.46,8.14,8.14,0,0,0,6.14,2.66,8.81,8.81,0,0,0,4-.89,9.51,9.51,0,0,0,3.1-2.79h2.48a11.17,11.17,0,0,1-3.93,4.26,10.74,10.74,0,0,1-5.51,1.42,10.61,10.61,0,0,1-7.83-3.19,10.91,10.91,0,0,1-3.13-8A11.19,11.19,0,0,1,594,233a10.67,10.67,0,0,1,2.56-3.6,9.85,9.85,0,0,1,3.37-2.33,11.08,11.08,0,0,1,4.1-.79,10.36,10.36,0,0,1,5.67,1.59,10.47,10.47,0,0,1,4.05,4.4Z"></path><path class="cls-1" d="M615.68,237.21a11.34,11.34,0,0,1,.8-4.25,10.42,10.42,0,0,1,2.54-3.6,11,11,0,0,1,3.4-2.33,10.62,10.62,0,0,1,11.69,2.34,10.21,10.21,0,0,1,2.46,3.59,10.49,10.49,0,0,1,.81,4.25,12.37,12.37,0,0,1-.68,4.17,11,11,0,0,1-5.83,6.12,10.95,10.95,0,0,1-12.09-2.34,10.81,10.81,0,0,1-3.1-7.95m2.17.06a8.9,8.9,0,0,0,2.57,6.48,8.16,8.16,0,0,0,6.23,2.64,8,8,0,0,0,6.08-2.66,9.1,9.1,0,0,0,2.48-6.56,8.83,8.83,0,0,0-8.72-8.85,7.29,7.29,0,0,0-2.86.51,8.34,8.34,0,0,0-2.53,1.45,9.53,9.53,0,0,0-2.35,3.14,8.56,8.56,0,0,0-.9,3.85"></path><polygon class="cls-1" points="654.49 245.43 654.23 226.67 656.3 226.67 656.3 248.01 653.8 248.01 642.07 229.22 642.3 248.01 640.27 248.01 640.27 226.67 642.76 226.67 654.49 245.43"></polygon><polygon class="cls-1" points="670.87 236.25 679.81 236.25 679.81 238.34 670.87 238.34 670.87 245.94 679.81 245.94 679.81 248.01 668.75 248.01 668.75 226.67 679.81 226.67 679.81 228.79 670.87 228.79 670.87 236.25"></polygon><polygon class="cls-1" points="693.4 248.01 683.79 248.01 683.79 226.67 685.87 226.67 685.87 245.94 693.4 245.94 693.4 248.01"></polygon><polygon class="cls-1" points="704.7 248.01 704.7 226.67 707.78 226.67 715.17 245.2 722.51 226.67 725.57 226.67 725.57 248.01 723.58 248.01 723.58 229.21 716.11 248.01 714.23 248.01 706.74 229.21 706.74 248.01 704.7 248.01"></polygon><polygon class="cls-1" points="731.46 236.25 740.38 236.25 740.38 238.34 731.46 238.34 731.46 245.94 740.38 245.94 740.38 248.01 729.35 248.01 729.35 226.67 740.38 226.67 740.38 228.79 731.46 228.79 731.46 236.25"></polygon><path class="cls-1" d="M744.37,226.67h6a15,15,0,0,1,4.25.53,7.7,7.7,0,0,1,3,1.59,10.54,10.54,0,0,1,2.86,3.74,11,11,0,0,1,1,4.76,12.08,12.08,0,0,1-1.1,5.15,9.65,9.65,0,0,1-3.18,3.78,9.06,9.06,0,0,1-2.9,1.36,20.83,20.83,0,0,1-4.85.43h-5.09Zm2.06,2V246h4.36c2.7,0,4.8-.73,6.2-2.28a8.89,8.89,0,0,0,2.24-6.42,9.65,9.65,0,0,0-.77-3.89,7.71,7.71,0,0,0-2.12-3,6.42,6.42,0,0,0-2.29-1.28,15.52,15.52,0,0,0-3.76-.4Z"></path><rect class="cls-1" x="764.32" y="226.67" width="2.09" height="21.34"></rect><path class="cls-1" d="M769.3,237.21a10.82,10.82,0,0,1,.85-4.25,11.4,11.4,0,0,1,5.93-5.93,10.73,10.73,0,0,1,4.07-.79,11.06,11.06,0,0,1,4.14.79,11.4,11.4,0,0,1,3.52,2.34,11,11,0,0,1,2.43,3.59,11.2,11.2,0,0,1,.8,4.25,12.12,12.12,0,0,1-.68,4.17,11,11,0,0,1-2.11,3.44,11.86,11.86,0,0,1-3.67,2.68,10.93,10.93,0,0,1-4.48.89,10.1,10.1,0,0,1-7.67-3.23,10.87,10.87,0,0,1-3.13-7.95m2.18.06a8.88,8.88,0,0,0,2.55,6.48,8.34,8.34,0,0,0,6.26,2.64,8.14,8.14,0,0,0,6.12-2.66,9.28,9.28,0,0,0,2.49-6.56,8.54,8.54,0,0,0-2.56-6.21,8.42,8.42,0,0,0-6.24-2.64,6.85,6.85,0,0,0-2.79.51,7.79,7.79,0,0,0-2.53,1.45,9.45,9.45,0,0,0-2.42,3.14,8.81,8.81,0,0,0-.88,3.85"></path><path class="cls-1" d="M415.8,268.2v17.13h-5.37v-6.68h-5.1v6.68H400V268.2h5.37v6.17h5.1V268.2Z"></path><path class="cls-1" d="M429.08,282.74h-5.71l-.85,2.59h-5.63l6.26-17.13h6.19l6.24,17.13h-5.66Zm-1.31-4-1.55-4.76-1.55,4.76Z"></path><path class="cls-1" d="M438.3,284.06a5.3,5.3,0,0,1-2.16-4.22h5.7c.08,1,.52,1.48,1.31,1.48a1.27,1.27,0,0,0,.74-.21.72.72,0,0,0,.3-.64,1.12,1.12,0,0,0-.65-1,12.88,12.88,0,0,0-2-.86,20.34,20.34,0,0,1-2.72-1.14,5.27,5.27,0,0,1-1.86-1.61,4.55,4.55,0,0,1-.75-2.74,4.69,4.69,0,0,1,.86-2.84,5.44,5.44,0,0,1,2.35-1.78,8.89,8.89,0,0,1,3.35-.6,7.84,7.84,0,0,1,5,1.45,5.15,5.15,0,0,1,1.95,4.08H443.9a1.46,1.46,0,0,0-.36-1,1.18,1.18,0,0,0-.83-.32.73.73,0,0,0-.55.23.87.87,0,0,0-.22.64,1.1,1.1,0,0,0,.64,1,15.57,15.57,0,0,0,2.05.9A23.24,23.24,0,0,1,447.3,276a5.57,5.57,0,0,1,1.82,1.54,3.92,3.92,0,0,1,.78,2.49,5.2,5.2,0,0,1-.78,2.82,5.14,5.14,0,0,1-2.25,1.95,8.18,8.18,0,0,1-3.5.7A8.45,8.45,0,0,1,438.3,284.06Z"></path><path class="cls-1" d="M465.11,268.2v4.27h-4.55v12.86h-5.37V272.47H450.7V268.2Z"></path><path class="cls-1" d="M477.42,282.74h-5.71l-.84,2.59h-5.64l6.27-17.13h6.19l6.24,17.13h-5.66Zm-1.3-4-1.55-4.76L473,278.7Z"></path><path class="cls-1" d="M494.37,272.49v2.1h5.32v4h-5.32v2.42h6.05v4.28H489V268.2h11.41v4.29Z"></path><path class="cls-1" d="M518.75,285.33h-5.37l-5.68-8.61v8.61h-5.37V268.2h5.37l5.68,8.76V268.2h5.37Z"></path><path class="cls-1" d="M526.42,272.49v2.1h5.32v4h-5.32v2.42h6v4.28H521.05V268.2h11.41v4.29Z"></path><path class="cls-1" d="M543,285.33l-3.21-6.14h0v6.14h-5.36V268.2h8a7.93,7.93,0,0,1,3.56.74,5.22,5.22,0,0,1,2.21,2,5.63,5.63,0,0,1,.74,2.87,5.11,5.11,0,0,1-1,3,5.23,5.23,0,0,1-2.75,1.91l3.72,6.56Zm-3.24-9.72h2.13a1.68,1.68,0,0,0,1.16-.35,1.4,1.4,0,0,0,.39-1.1,1.46,1.46,0,0,0-.4-1.07,1.59,1.59,0,0,0-1.15-.39h-2.13Z"></path><path class="cls-1" d="M554.36,284.36a8.39,8.39,0,0,1-3.2-3.14,9.2,9.2,0,0,1,0-9.05,8.36,8.36,0,0,1,3.2-3.13,9.34,9.34,0,0,1,8.87,0,8.45,8.45,0,0,1,3.18,3.13,9.34,9.34,0,0,1,0,9.05,8.39,8.39,0,0,1-3.2,3.14,9.16,9.16,0,0,1-8.85,0Zm6.91-4.9a4.11,4.11,0,0,0,.87-2.76,4.21,4.21,0,0,0-.87-2.8,3.5,3.5,0,0,0-5,0,4.21,4.21,0,0,0-.87,2.8,4.11,4.11,0,0,0,.87,2.76,3.5,3.5,0,0,0,5,0Z"></path><path class="cls-1" d="M578,276.66a5.58,5.58,0,0,0,1.88-3.69,1.37,1.37,0,0,0-.25-.89.82.82,0,0,0-.67-.32.86.86,0,0,0-.76.5,2.81,2.81,0,0,0-.2,1.51h-5.2a7.2,7.2,0,0,1,1-3.7,5.43,5.43,0,0,1,2.36-2.13,7.45,7.45,0,0,1,3.19-.68,6.07,6.07,0,0,1,4.53,1.49,5.26,5.26,0,0,1,1.44,3.81,7.61,7.61,0,0,1-1.56,4.58,13.84,13.84,0,0,1-3.91,3.62h5.55v4.33H572.85v-4A41.33,41.33,0,0,0,578,276.66Z"></path><path class="cls-1" d="M588.29,269.66a7.42,7.42,0,0,1,10.94,0,13,13,0,0,1,0,13.16,7.43,7.43,0,0,1-10.94,0,13.07,13.07,0,0,1,0-13.17Zm7.05,3.66a1.53,1.53,0,0,0-1.57-1,1.55,1.55,0,0,0-1.6,1,8.36,8.36,0,0,0-.39,2.92,8.44,8.44,0,0,0,.39,2.94,1.54,1.54,0,0,0,1.6,1,1.52,1.52,0,0,0,1.57-1,8.44,8.44,0,0,0,.39-2.94A8.36,8.36,0,0,0,595.34,273.32Z"></path><path class="cls-1" d="M607.43,276.66a5.6,5.6,0,0,0,1.89-3.69,1.37,1.37,0,0,0-.25-.89.82.82,0,0,0-.67-.32.86.86,0,0,0-.76.5,2.7,2.7,0,0,0-.21,1.51h-5.2a7.41,7.41,0,0,1,1-3.7,5.49,5.49,0,0,1,2.36-2.13,7.48,7.48,0,0,1,3.19-.68,6.08,6.08,0,0,1,4.54,1.49,5.26,5.26,0,0,1,1.44,3.81,7.61,7.61,0,0,1-1.56,4.58,14,14,0,0,1-3.91,3.62h5.54v4.33h-12.5v-4A41.14,41.14,0,0,0,607.43,276.66Z"></path><path class="cls-1" d="M621.78,280.87a1.21,1.21,0,0,0,.91.35,1.15,1.15,0,0,0,1.18-.91,11.21,11.21,0,0,0,.27-2.91,2.88,2.88,0,0,1-1.26,1.06,4.24,4.24,0,0,1-1.86.39,4.91,4.91,0,0,1-3.7-1.45,5.83,5.83,0,0,1-1.4-4.19,6.25,6.25,0,0,1,.76-3.15,5.07,5.07,0,0,1,2.18-2.07,7.17,7.17,0,0,1,3.3-.73q3.81,0,5.31,2.26a11.56,11.56,0,0,1,1.48,6.4c0,3.19-.48,5.59-1.46,7.18s-2.61,2.4-4.92,2.4a6.49,6.49,0,0,1-3.29-.8,5.67,5.67,0,0,1-2.12-2.09,6.33,6.33,0,0,1-.83-2.79h5A2.09,2.09,0,0,0,621.78,280.87Zm1.61-6.5a1.31,1.31,0,0,0,.39-1,1.45,1.45,0,0,0-.37-1.08,1.54,1.54,0,0,0-1.06-.35,1.5,1.5,0,0,0-1.05.35,1.41,1.41,0,0,0-.37,1.08,1.31,1.31,0,0,0,.38,1,1.43,1.43,0,0,0,1,.36A1.42,1.42,0,0,0,623.39,274.37Z"></path></g></g></svg>